<svg xmlns="http://www.w3.org/2000/svg" version="1.1" xmlns:xlink="http://www.w3.org/1999/xlink" width="512" height="512" x="0" y="0" viewBox="0 0 64 64" style="enable-background:new 0 0 512 512" xml:space="preserve" class=""><g><path d="M57 45h-6V31h6zm-4-2h2V33h-2z" fill="#3ba962" opacity="1" data-original="#000000" class=""></path><circle cx="55.5" cy="48.5" r="1.5" fill="#3ba962" opacity="1" data-original="#000000" class=""></circle><circle cx="55.5" cy="53.5" r="1.5" fill="#3ba962" opacity="1" data-original="#000000" class=""></circle><circle cx="24" cy="46" r="1" fill="#3ba962" opacity="1" data-original="#000000" class=""></circle><circle cx="42" cy="58" r="1" fill="#3ba962" opacity="1" data-original="#000000" class=""></circle><path d="M17 30.2V28c0-.6.4-1 1-1h2v-2h-3c-1.1 0-2 .9-2 2v3c0 .6-.4 1-1 1h-1v2h1c.6 0 1 .4 1 1v3c0 1.1.9 2 2 2h3v-2h-2c-.6 0-1-.4-1-1v-2.2c0-.5-.2-1-.6-1.4L16 32l.4-.4c.4-.4.6-.9.6-1.4zM31 30.2V28c0-.6-.4-1-1-1h-2v-2h3c1.1 0 2 .9 2 2v3c0 .6.4 1 1 1h1v2h-1c-.6 0-1 .4-1 1v3c0 1.1-.9 2-2 2h-3v-2h2c.6 0 1-.4 1-1v-2.2c0-.5.2-1 .6-1.4l.4-.4-.4-.4c-.4-.4-.6-.9-.6-1.4zM37 44h2v8h-2z" fill="#3ba962" opacity="1" data-original="#000000" class=""></path><circle cx="41" cy="51" r="1" fill="#3ba962" opacity="1" data-original="#000000" class=""></circle><path d="M47 44h-6v2h2v6h2v-6h2z" fill="#3ba962" opacity="1" data-original="#000000" class=""></path><path d="M59 27h-9c-1.7 0-3 1.3-3 3v10h-2V20c0-1.7-1.3-3-3-3H5c-1.7 0-3 1.3-3 3v27c0 1.7 1.3 3 3 3h16v6h-1c-2.2 0-4 1.8-4 4v2h16v-2c0-2.2-1.8-4-4-4h-1v-6h7v10c0 1.1.9 2 2 2h12c.3 0 .6-.1.9-.2.3.1.7.2 1.1.2h9c1.7 0 3-1.3 3-3V30c0-1.7-1.3-3-3-3zM48 42v12H36V42zM28 58c1.1 0 2 .9 2 2H18c0-1.1.9-2 2-2zm-5-2v-6h2v6zm11-8H5c-.6 0-1-.4-1-1V20c0-.6.4-1 1-1h37c.6 0 1 .4 1 1v20h-1V20H5v24h29zm0-6H7V22h33v18h-4c-1.1 0-2 .9-2 2zm2 18v-4h12v4zm24-1c0 .6-.4 1-1 1h-9V42c0-.7-.4-1.4-1-1.7V30c0-.6.4-1 1-1h9c.6 0 1 .4 1 1z" fill="#3ba962" opacity="1" data-original="#000000" class=""></path></g></svg>