<svg xmlns="http://www.w3.org/2000/svg" version="1.1" xmlns:xlink="http://www.w3.org/1999/xlink" width="512" height="512" x="0" y="0" viewBox="0 0 64 64" style="enable-background:new 0 0 512 512" xml:space="preserve" class=""><g><path d="M57.385 36.351V25.945a1 1 0 0 0-2 0v10.406a1 1 0 0 0 2 0zM25.792 22.051a6 6 0 0 0 5.994 5.994 6 6 0 0 0 5.994-5.994 6 6 0 0 0-5.994-5.994 6 6 0 0 0-5.994 5.994zm9.988 0c0 2.202-1.792 3.994-3.994 3.994s-3.994-1.792-3.994-3.994 1.792-3.994 3.994-3.994 3.994 1.792 3.994 3.994zM36.408 28.982a1 1 0 0 0-.758-.005 10.313 10.313 0 0 1-7.513.078.995.995 0 0 0-.756.021 11.482 11.482 0 0 0-6.853 10.498v5.297a3.076 3.076 0 0 0 3.073 3.073H40.4a3.076 3.076 0 0 0 3.073-3.073v-5.297c0-3.073-1.197-5.953-3.365-8.102a11.335 11.335 0 0 0-3.7-2.489zm5.065 15.888c0 .592-.481 1.073-1.073 1.073H23.601a1.074 1.074 0 0 1-1.073-1.073v-5.297a9.48 9.48 0 0 1 5.306-8.503c2.676.908 5.542.867 8.162-.084a9.325 9.325 0 0 1 2.699 1.899 9.35 9.35 0 0 1 2.779 6.688v5.297zM56.244 8.548c2.356 0 4.274-1.917 4.274-4.274S58.601 0 56.244 0s-4.273 1.917-4.273 4.273 1.917 4.274 4.273 4.274zm0-6.547c1.254 0 2.274 1.02 2.274 2.273s-1.02 2.274-2.274 2.274-2.273-1.02-2.273-2.274 1.02-2.273 2.273-2.273zM61.944 11.573a7.778 7.778 0 0 0-2.537-1.707 1 1 0 0 0-.758-.005 6.404 6.404 0 0 1-4.675.048 1.004 1.004 0 0 0-.756.021 7.87 7.87 0 0 0-4.698 7.196v3.472a2.362 2.362 0 0 0 2.359 2.359H61.89a2.361 2.361 0 0 0 2.359-2.359v-3.472a7.767 7.767 0 0 0-2.306-5.554zm.306 9.026a.36.36 0 0 1-.359.359H50.88a.36.36 0 0 1-.359-.359v-3.472a5.87 5.87 0 0 1 3.162-5.202 8.383 8.383 0 0 0 5.302-.055 5.766 5.766 0 0 1 1.546 1.117 5.788 5.788 0 0 1 1.72 4.14v3.472zM51.971 45.316c0 2.356 1.917 4.273 4.273 4.273s4.274-1.917 4.274-4.273-1.917-4.274-4.274-4.274-4.273 1.917-4.273 4.274zm4.273-2.274c1.254 0 2.274 1.02 2.274 2.274s-1.02 2.273-2.274 2.273-2.273-1.02-2.273-2.273 1.02-2.274 2.273-2.274zM59.407 50.908a.995.995 0 0 0-.758-.005 6.402 6.402 0 0 1-4.674.048.99.99 0 0 0-.756.021 7.87 7.87 0 0 0-4.698 7.196v3.472a2.362 2.362 0 0 0 2.359 2.359h11.011a2.361 2.361 0 0 0 2.359-2.359v-3.472a7.77 7.77 0 0 0-2.306-5.554 7.778 7.778 0 0 0-2.537-1.707zM62.25 61.64a.36.36 0 0 1-.359.359H50.88a.36.36 0 0 1-.359-.359v-3.472a5.87 5.87 0 0 1 3.162-5.202 8.397 8.397 0 0 0 5.302-.055 5.766 5.766 0 0 1 1.546 1.117 5.79 5.79 0 0 1 1.72 4.14v3.472zM7.726 8.548c2.356 0 4.273-1.917 4.273-4.274S10.082 0 7.726 0 3.452 1.918 3.452 4.274s1.917 4.274 4.274 4.274zm0-6.547c1.253 0 2.273 1.02 2.273 2.273s-1.02 2.274-2.273 2.274-2.274-1.02-2.274-2.274 1.02-2.273 2.274-2.273zM10.888 9.866a1 1 0 0 0-.758-.005 6.41 6.41 0 0 1-4.675.048 1.004 1.004 0 0 0-.756.021A7.871 7.871 0 0 0 0 17.126v3.472a2.361 2.361 0 0 0 2.359 2.359h11.013a2.361 2.361 0 0 0 2.359-2.359v-3.472a7.767 7.767 0 0 0-2.306-5.554 7.778 7.778 0 0 0-2.537-1.707zm2.843 10.732a.36.36 0 0 1-.359.359H2.36a.36.36 0 0 1-.359-.359v-3.472a5.87 5.87 0 0 1 3.161-5.202 8.397 8.397 0 0 0 5.302-.055 5.766 5.766 0 0 1 1.546 1.117 5.788 5.788 0 0 1 1.72 4.14v3.472zM3.452 45.316c0 2.356 1.917 4.273 4.274 4.273s4.273-1.917 4.273-4.273-1.917-4.274-4.273-4.274-4.274 1.917-4.274 4.274zm4.274-2.274c1.253 0 2.273 1.02 2.273 2.274s-1.02 2.273-2.273 2.273-2.274-1.02-2.274-2.273 1.02-2.274 2.274-2.274zM10.888 50.908a.995.995 0 0 0-.758-.005 6.407 6.407 0 0 1-4.674.048.99.99 0 0 0-.756.021A7.87 7.87 0 0 0 0 58.168v3.472a2.361 2.361 0 0 0 2.359 2.359h11.013a2.361 2.361 0 0 0 2.359-2.359v-3.472a7.767 7.767 0 0 0-2.306-5.554 7.778 7.778 0 0 0-2.537-1.707zm2.843 10.732a.36.36 0 0 1-.359.359H2.36a.36.36 0 0 1-.359-.359v-3.472a5.871 5.871 0 0 1 3.161-5.202 8.384 8.384 0 0 0 5.302-.055 5.766 5.766 0 0 1 1.546 1.117 5.788 5.788 0 0 1 1.72 4.14v3.472zM8.866 36.351V25.945a1 1 0 0 0-2 0v10.406a1 1 0 0 0 2 0zM22.906 9.083h18.188a1 1 0 0 0 0-2H22.906a1 1 0 0 0 0 2zM41.094 54.917H22.906a1 1 0 0 0 0 2h18.188a1 1 0 0 0 0-2z" fill="#3ba962" opacity="1" data-original="#000000" class=""></path></g></svg>