<svg xmlns="http://www.w3.org/2000/svg" version="1.1" xmlns:xlink="http://www.w3.org/1999/xlink" width="512" height="512" x="0" y="0" viewBox="0 0 511.989 511.989" style="enable-background:new 0 0 512 512" xml:space="preserve"><g><path d="M185.027 7.5H326.9v65.462H185.027zM338.957 476.269a136.949 136.949 0 0 0 14.47-12.883M284.722 501.454a135.106 135.106 0 0 0 37.682-14.253M178.051 256.849a135.697 135.697 0 0 1 35.126-17.639 121.375 121.375 0 0 1 4.772-1.476V72.962h76.025v164.772c56.656 16.442 98.066 68.733 98.066 130.683 0 2.749-.076 5.472-.242 8.183-1.603 26.928-11.033 51.756-26.037 72.22M284.739 501.538c-84.872 17.383-159.837-44.324-164.602-124.938a124.781 124.781 0 0 1-.255-8.183c0-39.345 16.701-74.782 43.397-99.624M217.953 147.079h76.02M327.993 332.545h15.026M312.966 300.85h15.027" style="stroke-width:15;stroke-miterlimit:10;" fill="none" stroke="#3ba962" stroke-width="15" stroke-miterlimit="10" data-original="#000000" opacity="1"></path><path d="M268.21 303.473a92.79 92.79 0 0 0-12.248-8.354 92.886 92.886 0 0 0-12.248 8.354c-17.189 13.891-27.816 33.077-27.816 54.281 0 25.853 15.823 48.727 40.064 62.636 24.24-13.909 40.063-36.783 40.063-62.636 0-21.204-10.626-40.39-27.815-54.281zM255.962 349.468v104.525M70.954 168.961H29.427L8.663 204.925l20.764 35.964h41.527l20.764-35.964zM70.954 97.033H29.427L8.663 132.997l20.764 35.964h41.527l20.764-35.964zM133.247 132.997H91.719l-20.764 35.964 20.764 35.964h41.528l20.764-35.964zM441.034 168.961h41.528l20.764 35.964-20.764 35.964h-41.528l-20.764-35.964zM441.034 97.033h41.528l20.764 35.964-20.764 35.964h-41.528l-20.764-35.964z" style="stroke-width:15;stroke-miterlimit:10;" fill="none" stroke="#3ba962" stroke-width="15" stroke-miterlimit="10" data-original="#000000" opacity="1"></path><path d="M378.742 132.997h41.528l20.763 35.964-20.763 35.964h-41.528l-20.764-35.964zM154.011 168.961h63.938M290.407 168.961h63.938" style="stroke-width:15;stroke-miterlimit:10;" fill="none" stroke="#3ba962" stroke-width="15" stroke-miterlimit="10" data-original="#000000" opacity="1"></path></g></svg>