<svg id="Layer_1" enable-background="new 0 0 64 64" viewBox="0 0 64 64" xmlns="http://www.w3.org/2000/svg"><g><path d="m64 2.8c0-1.5-1.3-2.8-2.8-2.8-3.2-.1-9.3 2.3-19.9 14.2l-15.3-6.1 2.1-2.1c.4-.4.4-1 0-1.4s-1-.4-1.4 0l-2.7 2.7-8-3.3 2.1-2.1c.4-.4.4-1 0-1.4-.4-.4-1-.4-1.4 0l-2.7 2.7-4.2-1.7c-1.4-.5-3-.2-4 .8-.8.8-1.2 1.8-1.1 2.9s.6 2 1.5 2.7l23.2 17.2c-2.7 2.6-11 11-14.6 17.2l-10.9-1c-1.3-.1-2.5.4-3.2 1.4-.7.9-.9 2.1-.6 3.2s1.1 2 2.2 2.4l8.9 3.5c.4.2.8.5 1 1l3.5 8.9c.4 1.1 1.3 1.9 2.4 2.2.3.1.7.1 1 .1.8 0 1.5-.2 2.2-.7 1-.8 1.5-2 1.4-3.2l-.9-10.9c6.1-3.6 14.6-11.9 17.2-14.6l17.2 23.2c.6.9 1.6 1.4 2.7 1.5s2.1-.3 2.9-1.1c1-1 1.4-2.6.8-4l-1.8-4.2 2.7-2.7c.4-.4.4-1 0-1.4s-1-.4-1.4 0l-2.1 2.1-3.2-8.1 2.7-2.7c.4-.4.4-1 0-1.4s-1-.4-1.4 0l-2.2 2.2-6.1-15.3c11.9-10.6 14.3-16.7 14.2-19.9zm-16 18.9c-.3.3-.4.7-.3 1.1l6.9 17.2 6 14.9c.3.6.1 1.4-.4 1.9-.4.4-.9.5-1.4.5s-1-.3-1.3-.7l-17.7-24.1c-.2-.2-.4-.4-.7-.4s-.6.1-.8.3c-.1.1-11.1 11.6-18 15.4-.3.2-.5.6-.5.9l1 11.5c.1.6-.2 1.1-.7 1.5-.4.3-1 .4-1.5.3s-.9-.5-1.1-1l-3.5-8.9c-.4-.9-1.1-1.7-2-2l-9-3.6c-.5-.2-.9-.6-1-1.1s0-1.1.3-1.5.8-.7 1.4-.7h.1l11.5 1c.4 0 .7-.2.9-.5 3.8-7 15.3-18 15.4-18.1.2-.2.3-.5.3-.8s-.2-.5-.4-.7l-24.1-17.8c-.5-.3-.7-.7-.7-1.2s.1-1 .5-1.4c.4-.5 1.2-.6 1.8-.4l4.9 1.9 27.2 11c.4.2.8.1 1.1-.3 11.4-12.8 17-14.1 18.9-14 .5 0 .9.4.9.9.1 1.9-1.2 7.5-14 18.9z"/></g></svg>