<?xml version="1.0" encoding="UTF-8" standalone="no"?>
<!-- Created with Inkscape (http://www.inkscape.org/) -->

<svg
   version="1.1"
   id="svg780"
   xml:space="preserve"
   width="682.66669"
   height="682.66669"
   viewBox="0 0 682.66669 682.66669"
   xmlns="http://www.w3.org/2000/svg"
   xmlns:svg="http://www.w3.org/2000/svg"><defs
     id="defs784"><clipPath
       clipPathUnits="userSpaceOnUse"
       id="clipPath794"><path
         d="M 0,512 H 512 V 0 H 0 Z"
         id="path792" /></clipPath></defs><g
     id="g786"
     transform="matrix(1.3333333,0,0,-1.3333333,0,682.66667)"><g
       id="g788"><g
         id="g790"
         clip-path="url(#clipPath794)"><g
           id="g796"
           transform="translate(151.5713,471.7266)"><path
             d="m 0,0 h 206.037 c 10.228,0 18.604,-8.357 18.604,-18.562 0,-10.206 -8.376,-18.563 -18.604,-18.563 H 0 c -10.228,0 -18.604,8.357 -18.604,18.563 C -18.604,-8.357 -10.228,0 0,0 Z"
             style="fill:none;stroke:#000000;stroke-width:15;stroke-linecap:round;stroke-linejoin:round;stroke-miterlimit:10;stroke-dasharray:none;stroke-opacity:1"
             id="path798" /></g><path
           d="m 384.759,171.83 h 67.206 v 42.725 h -67.206 z"
           style="fill:none;stroke:#000000;stroke-width:15;stroke-linecap:round;stroke-linejoin:round;stroke-miterlimit:10;stroke-dasharray:none;stroke-opacity:1"
           id="path800" /><path
           d="m 384.759,82.032 h 67.206 v 42.696 h -67.206 z"
           style="fill:none;stroke:#000000;stroke-width:15;stroke-linecap:round;stroke-linejoin:round;stroke-miterlimit:10;stroke-dasharray:none;stroke-opacity:1"
           id="path802" /><g
           id="g804"
           transform="translate(350.6846,434.6021)"><path
             d="M 0,0 V -394.329 H -189.369 V 0"
             style="fill:none;stroke:#000000;stroke-width:15;stroke-linecap:round;stroke-linejoin:round;stroke-miterlimit:10;stroke-dasharray:none;stroke-opacity:1"
             id="path806" /></g><g
           id="g808"
           transform="translate(161.3154,40.2734)"><path
             d="M 0,0 H -135.383 V 306.69"
             style="fill:none;stroke:#000000;stroke-width:15;stroke-linecap:round;stroke-linejoin:round;stroke-miterlimit:10;stroke-dasharray:none;stroke-opacity:1"
             id="path810" /></g><g
           id="g812"
           transform="translate(161.3154,346.9639)"><path
             d="m 0,0 h -135.212 c -10.227,0 -18.603,8.357 -18.603,18.562 0,10.205 8.376,18.563 18.603,18.563 H 0"
             style="fill:none;stroke:#000000;stroke-width:15;stroke-linecap:round;stroke-linejoin:round;stroke-miterlimit:10;stroke-dasharray:none;stroke-opacity:1"
             id="path814" /></g><g
           id="g816"
           transform="translate(486.0674,215.7485)"><path
             d="m 0,0 v 131.215 m -135.383,-306.69 H 0 v 140.738"
             style="fill:none;stroke:#000000;stroke-width:15;stroke-linecap:round;stroke-linejoin:round;stroke-miterlimit:10;stroke-dasharray:none;stroke-opacity:1"
             id="path818" /></g><g
           id="g820"
           transform="translate(350.6846,346.9639)"><path
             d="m 0,0 h 135.212 c 10.227,0 18.603,8.357 18.603,18.562 0,10.205 -8.376,18.563 -18.603,18.563 H 0"
             style="fill:none;stroke:#000000;stroke-width:15;stroke-linecap:round;stroke-linejoin:round;stroke-miterlimit:10;stroke-dasharray:none;stroke-opacity:1"
             id="path822" /></g><g
           id="g824"
           transform="translate(270.7715,434.6021)"><path
             d="m 0,0 h 86.837 c 10.227,0 18.603,8.357 18.603,18.562 0,10.205 -8.376,18.563 -18.603,18.563 H -119.2 c -10.228,0 -18.604,-8.358 -18.604,-18.563 C -137.804,8.357 -129.428,0 -119.2,0 h 84.387"
             style="fill:none;stroke:#000000;stroke-width:15;stroke-linecap:round;stroke-linejoin:round;stroke-miterlimit:10;stroke-dasharray:none;stroke-opacity:1"
             id="path826" /></g><path
           d="m 60.035,261.628 h 67.178 v 42.725 H 60.035 Z"
           style="fill:none;stroke:#000000;stroke-width:15;stroke-linecap:round;stroke-linejoin:round;stroke-miterlimit:10;stroke-dasharray:none;stroke-opacity:1"
           id="path828" /><path
           d="m 60.035,171.83 h 67.178 v 42.725 H 60.035 Z"
           style="fill:none;stroke:#000000;stroke-width:15;stroke-linecap:round;stroke-linejoin:round;stroke-miterlimit:10;stroke-dasharray:none;stroke-opacity:1"
           id="path830" /><path
           d="m 60.035,82.032 h 67.178 v 42.696 H 60.035 Z"
           style="fill:none;stroke:#000000;stroke-width:15;stroke-linecap:round;stroke-linejoin:round;stroke-miterlimit:10;stroke-dasharray:none;stroke-opacity:1"
           id="path832" /><path
           d="m 384.759,261.628 h 67.206 v 42.725 h -67.206 z"
           style="fill:none;stroke:#000000;stroke-width:15;stroke-linecap:round;stroke-linejoin:round;stroke-miterlimit:10;stroke-dasharray:none;stroke-opacity:1"
           id="path834" /><g
           id="g836"
           transform="translate(201.001,40.2734)"><path
             d="M 0,0 V 114.245 H 109.998 V 0"
             style="fill:none;stroke:#000000;stroke-width:15;stroke-linecap:round;stroke-linejoin:round;stroke-miterlimit:10;stroke-dasharray:none;stroke-opacity:1"
             id="path838" /></g><g
           id="g840"
           transform="translate(255.9854,154.5186)"><path
             d="M 0,0 V -114.245"
             style="fill:none;stroke:#000000;stroke-width:15;stroke-linecap:round;stroke-linejoin:round;stroke-miterlimit:10;stroke-dasharray:none;stroke-opacity:1"
             id="path842" /></g><g
           id="g844"
           transform="translate(240.459,383.0366)"><path
             d="m 0,0 h 31.054 c 1.481,0 2.706,-1.222 2.706,-2.7 v -28.569 h 28.632 c 1.481,0 2.707,-1.222 2.707,-2.7 v -30.985 c 0,-1.478 -1.226,-2.672 -2.707,-2.672 H 33.76 v -28.597 c 0,-1.478 -1.225,-2.672 -2.706,-2.672 H 0 c -1.481,0 -2.678,1.194 -2.678,2.672 v 28.597 H -31.31 c -1.51,0 -2.707,1.194 -2.707,2.672 v 30.985 c 0,1.478 1.197,2.7 2.707,2.7 H -2.678 V -2.7 C -2.678,-1.222 -1.481,0 0,0 Z"
             style="fill:none;stroke:#000000;stroke-width:15;stroke-linecap:round;stroke-linejoin:round;stroke-miterlimit:10;stroke-dasharray:none;stroke-opacity:1"
             id="path846" /></g><g
           id="g848"
           transform="translate(224.3057,245.4253)"><path
             d="M 0,0 H 63.389"
             style="fill:none;stroke:#000000;stroke-width:15;stroke-linecap:round;stroke-linejoin:round;stroke-miterlimit:10;stroke-dasharray:none;stroke-opacity:1"
             id="path850" /></g><g
           id="g852"
           transform="translate(224.3057,210.0063)"><path
             d="M 0,0 H 63.389"
             style="fill:none;stroke:#000000;stroke-width:15;stroke-linecap:round;stroke-linejoin:round;stroke-miterlimit:10;stroke-dasharray:none;stroke-opacity:1"
             id="path854" /></g></g></g></g></svg>
