<svg height="512" viewBox="0 0 128 128" width="512" xmlns="http://www.w3.org/2000/svg"><path d="m125.476 34.159a46.533 46.533 0 0 0 -68.722.002 1.998 1.998 0 0 0 -.523 1.349v16.233l-.011.207a2.009 2.009 0 0 0 2.011 2 1.985 1.985 0 0 0 1.355-.534 48.227 48.227 0 0 1 15.694-8.14v6.671a2 2 0 0 0 4 0v-7.741a56.817 56.817 0 0 1 24.96.001v16.573a90.454 90.454 0 0 0 -9.814-.832 2 2 0 1 0 -.117 3.998 86.451 86.451 0 0 1 9.932.877v16.661c-4.088-.316-8.272-.485-12.48-.485-2.097 0-4.191.039-6.229.116a2.002 2.002 0 0 0 -1.923 2.075 1.967 1.967 0 0 0 2.075 1.923c1.986-.076 4.03-.114 6.076-.114 4.213 0 8.398.173 12.48.497v19.503h-15.96a2 2 0 0 0 0 4h35.72a2 2 0 0 0 2-2v-71.49a2.004 2.004 0 0 0 -.524-1.351zm-50.195 6.939a53.411 53.411 0 0 0 -15.05 6.905v-11.707a42.509 42.509 0 0 1 15.05-10.232zm28.96-.982a60.907 60.907 0 0 0 -24.96-.009v-15.413a43.045 43.045 0 0 1 24.96.395zm17.76 64.884h-13.76v-19.125a138.748 138.748 0 0 1 13.76 2.146zm0-21.062c-4.411-.895-9.018-1.594-13.76-2.084v-16.353a72.538 72.538 0 0 1 13.76 4.148zm0-18.602a77.709 77.709 0 0 0 -13.76-3.903v-16.154a48.835 48.835 0 0 1 13.76 6.699zm0-18.16a53.886 53.886 0 0 0 -13.76-6.066v-14.498a42.77 42.77 0 0 1 13.76 9.685zm-40.389 46.99h-50.196l-.837-3.526h40.182a2.001 2.001 0 0 0 1.781-1.09l14.21-27.819a2 2 0 0 0 -1.781-2.91h-61.943l-3.061-12.899a2 2 0 0 0 -1.946-1.538h-14.02a2 2 0 0 0 0 4h12.438l11.449 48.245a2 2 0 0 0 1.946 1.538h51.777a2 2 0 1 0 0-4zm-51.982-7.526-5.653-23.819h57.726l-12.167 23.819zm7.871 18.874a3.5 3.5 0 1 1 -3.5-3.5 3.504 3.504 0 0 1 3.5 3.5zm39 0a3.5 3.5 0 1 1 -3.5-3.5 3.504 3.504 0 0 1 3.5 3.5z"/></svg>