<svg height="512" viewBox="0 0 64 64" width="512" xmlns="http://www.w3.org/2000/svg"><g id="Train"><path d="m45 48h-26a7.0085 7.0085 0 0 1 -7-7v-30a7.0085 7.0085 0 0 1 7-7h26a7.0085 7.0085 0 0 1 7 7v30a7.0085 7.0085 0 0 1 -7 7zm-26-42a5.0059 5.0059 0 0 0 -5 5v30a5.0059 5.0059 0 0 0 5 5h26a5.0059 5.0059 0 0 0 5-5v-30a5.0059 5.0059 0 0 0 -5-5z"/><path d="m37 10h-10a1 1 0 0 1 0-2h10a1 1 0 0 1 0 2z"/><circle cx="23" cy="9" r="1"/><circle cx="41" cy="9" r="1"/><path d="m45 26h-26a3.0033 3.0033 0 0 1 -3-3v-8a3.0033 3.0033 0 0 1 3-3h26a3.0033 3.0033 0 0 1 3 3v8a3.0033 3.0033 0 0 1 -3 3zm-26-12a1.0006 1.0006 0 0 0 -1 1v8a1.0006 1.0006 0 0 0 1 1h26a1.0006 1.0006 0 0 0 1-1v-8a1.0006 1.0006 0 0 0 -1-1z"/><path d="m32 26a1 1 0 0 1 -1-1v-12a1 1 0 0 1 2 0v12a1 1 0 0 1 -1 1z"/><path d="m20 38a4 4 0 1 1 4-4 4.0039 4.0039 0 0 1 -4 4zm0-6a2 2 0 1 0 2 2 2.0027 2.0027 0 0 0 -2-2z"/><path d="m44 38a4 4 0 1 1 4-4 4.0039 4.0039 0 0 1 -4 4zm0-6a2 2 0 1 0 2 2 2.0027 2.0027 0 0 0 -2-2z"/><path d="m50.65 44h-37.3a1 1 0 0 1 0-2h37.3a1 1 0 0 1 0 2z"/><path d="m37 33h-10a1 1 0 0 1 0-2h10a1 1 0 0 1 0 2z"/><path d="m35 37h-6a1 1 0 0 1 0-2h6a1 1 0 0 1 0 2z"/><path d="m14.999 60a1 1 0 0 1 -.8935-1.4473l6-12a1 1 0 1 1 1.789.8946l-6 12a1 1 0 0 1 -.8955.5527z"/><path d="m49.001 60a1 1 0 0 1 -.8955-.5527l-6-12a1 1 0 0 1 1.789-.8946l6 12a1 1 0 0 1 -.8935 1.4473z"/><path d="m45 52h-26a1 1 0 0 1 0-2h26a1 1 0 0 1 0 2z"/><path d="m48 58h-32a1 1 0 0 1 0-2h32a1 1 0 0 1 0 2z"/></g></svg>