<svg xmlns="http://www.w3.org/2000/svg" version="1.1" xmlns:xlink="http://www.w3.org/1999/xlink" width="512" height="512" x="0" y="0" viewBox="0 0 66 66" style="enable-background:new 0 0 512 512" xml:space="preserve"><g><path d="M14.22 32.902a.94.94 0 0 0 1.626.868l11.445-14.116a.94.94 0 0 0-.73-1.531h-3.468l3.068-5.893a.938.938 0 0 0-.833-1.373h-8.113a.939.939 0 0 0-.87.583l-4.442 10.875a.94.94 0 0 0 .87 1.294h4.312zm-.05-11.171 3.676-8.996h5.933l-3.067 5.893a.938.938 0 0 0 .833 1.373h3.046l-7.146 8.814 1.81-5.868a.942.942 0 0 0-.898-1.216z" fill="#3ba962" opacity="1" data-original="#000000"></path><path d="M63.303 32.203c-3.195-.894-6.364-.44-8.919 1.27a10.072 10.072 0 0 0-2.695 2.687V33.1c2.309-2.122 3.587-4.875 3.587-7.81 0-3.079-1.39-5.963-3.915-8.123a.945.945 0 0 0-1.228.005c-2.521 2.16-3.91 5.042-3.91 8.117 0 2.932 1.276 5.682 3.588 7.812v3.06a10.058 10.058 0 0 0-2.695-2.688c-2.556-1.712-5.725-2.164-8.931-1.267a.94.94 0 0 0-.675 1.013c.388 3.3 2.01 6.06 4.566 7.774 1.697 1.138 3.665 1.718 5.733 1.718.659 0 1.328-.065 2.002-.184V54.52c0 4.19-3.41 7.6-7.6 7.6H28.13c-3.9 0-7.122-2.956-7.548-6.745 3.096-.48 5.478-3.156 5.478-6.385v-.853h.245a3.997 3.997 0 0 0 2.81-1.161 3.946 3.946 0 0 0 1.16-2.809c0-1.847-1.273-3.39-2.983-3.831.445-2.847 1.885-5.479 4.136-7.484l.002-.002c4.26-3.808 6.378-9.27 5.812-14.987-.825-8.248-7.4-14.875-15.631-15.756-5.086-.544-9.975 1.028-13.75 4.423a17.704 17.704 0 0 0-5.86 13.145 17.63 17.63 0 0 0 5.954 13.213 12.385 12.385 0 0 1 4.076 7.404c-.738.16-1.418.52-1.963 1.066a3.947 3.947 0 0 0-1.162 2.81 3.975 3.975 0 0 0 3.971 3.97h.245v.852c0 3.262 2.43 5.962 5.573 6.4.442 4.82 4.502 8.609 9.435 8.609h14.08c5.227 0 9.478-4.252 9.478-9.479V42.527c.674.118 1.343.184 2.002.184 2.067 0 4.035-.58 5.733-1.718 2.557-1.713 4.178-4.473 4.567-7.774a.947.947 0 0 0-.688-1.016zM9.2 31.479A15.747 15.747 0 0 1 3.88 19.675c0-4.474 1.909-8.756 5.237-11.748 3.373-3.034 7.737-4.44 12.295-3.952 7.352.787 13.224 6.707 13.961 14.075.505 5.11-1.388 9.996-5.197 13.4-2.617 2.332-4.292 5.412-4.775 8.746H13.927c-.474-3.356-2.132-6.426-4.727-8.717zm1.586 12.688a2.082 2.082 0 0 1 2.092-2.092h13.428a2.094 2.094 0 0 1 1.481 3.573c-.388.388-.928.61-1.481.61H12.878a2.094 2.094 0 0 1-2.092-2.09zm4.216 4.823v-.853h9.18v.853c0 2.531-2.06 4.59-4.59 4.59s-4.59-2.059-4.59-4.59zm33.1-23.7c0-2.266.935-4.416 2.648-6.13 1.713 1.716 2.647 3.865 2.647 6.13 0 1.802-.6 3.528-1.708 5.025v-2.373a.939.939 0 1 0-1.878 0v2.373c-1.107-1.497-1.708-3.223-1.708-5.026zm-4.98 14.142c-1.88-1.26-3.146-3.232-3.617-5.611 2.381-.466 4.685-.047 6.565 1.214 1.494 1 2.592 2.458 3.221 4.214l-2.366-1.585a.94.94 0 0 0-1.046 1.56l2.369 1.588c-1.86.087-3.63-.375-5.126-1.38zm15.256.001c-1.498 1.003-3.266 1.465-5.126 1.379l2.937-1.968a.94.94 0 0 0-1.046-1.561l-2.937 1.968c.628-1.753 1.727-3.213 3.224-4.216 1.875-1.257 4.17-1.68 6.566-1.212-.473 2.378-1.738 4.35-3.618 5.61z" fill="#3ba962" opacity="1" data-original="#000000"></path></g></svg>