<svg xmlns="http://www.w3.org/2000/svg" version="1.1" xmlns:xlink="http://www.w3.org/1999/xlink" width="512" height="512" x="0" y="0" viewBox="0 0 100 100" style="enable-background:new 0 0 512 512" xml:space="preserve" class=""><g><path d="m11.31 25.54-3.48-6.66a2.68 2.68 0 0 1-1.83.85l3.52 6.73a1 1 0 0 0 .89.54 1 1 0 0 0 .46-.11 1 1 0 0 0 .44-1.35zM28.74 37.54H17.59l-3.14-6a1 1 0 1 0-1.78.92L16.09 39a1 1 0 0 0 .89.54h11.15a3.14 3.14 0 0 1 .61-2z" fill="#3ba962" opacity="1" data-original="#000000" class=""></path><path d="M46.4 70a1.09 1.09 0 0 1-.5-.13L28 59.55a1 1 0 0 1-.5-.87V38a1 1 0 0 1 .5-.87l17.9-10.31a1 1 0 0 1 1 0l17.88 10.33a1 1 0 0 1 .5.87V51a1 1 0 0 1-2 0V38.6L46.4 28.85 29.52 38.6v19.5l16.88 9.75 16.88-9.75V57a1 1 0 0 1 2 0v1.68a1 1 0 0 1-.5.87L46.9 69.88a1.09 1.09 0 0 1-.5.12z" fill="#3ba962" opacity="1" data-original="#000000" class=""></path><path d="M57.24 40.57a.94.94 0 0 1-.48-.13l-9.3-5.16a1 1 0 0 1 1-1.75l9.29 5.17a1 1 0 0 1 .39 1.36 1 1 0 0 1-.9.51zM33.5 55a1 1 0 0 1-1-1V42.67a1 1 0 0 1 2 0V54a1 1 0 0 1-1 1zM90.54 28.15 64.13 37.6a1 1 0 0 0-.6 1.27 1 1 0 0 0 .94.67 1 1 0 0 0 .33-.06l26.31-9.4a3.13 3.13 0 0 1-.57-1.93zM80.77 69.4 65 58.38a1 1 0 0 0-1.39.24 1 1 0 0 0 .24 1.4L79.52 71a2.72 2.72 0 0 1 1.25-1.6zM46.68 86.92a3.24 3.24 0 0 1 .72.08V69.53a1 1 0 0 0-2 0V87.2a3 3 0 0 1 1.28-.28z" fill="#3ba962" opacity="1" data-original="#000000" class=""></path><path d="M93.89 33.34a4.62 4.62 0 1 1 4.61-4.62 4.62 4.62 0 0 1-4.61 4.62zm0-7.23a2.62 2.62 0 1 0 2.61 2.61 2.62 2.62 0 0 0-2.61-2.61zM46.4 95.32a4.62 4.62 0 1 1 4.6-4.61 4.62 4.62 0 0 1-4.6 4.61zm0-7.23a2.62 2.62 0 1 0 2.6 2.62 2.61 2.61 0 0 0-2.6-2.62zM95.44 87.06h-4.52a13 13 0 0 1-13-13v-4.53a1 1 0 0 1 1-1h4.52a13 13 0 0 1 13 13v4.53a1 1 0 0 1-1 1zM79.92 70.53v3.53a11 11 0 0 0 11 11h3.52v-3.53a11 11 0 0 0-11-11z" fill="#3ba962" opacity="1" data-original="#000000" class=""></path><path d="M85.11 76.73a1 1 0 0 1-.7-.3l-5.17-5.16a1 1 0 1 1 1.42-1.41L85.82 75a1 1 0 0 1 0 1.41 1 1 0 0 1-.71.32zM5.63 20.94a5.13 5.13 0 1 1 5.13-5.13 5.13 5.13 0 0 1-5.13 5.13zm0-8.26a3.13 3.13 0 1 0 3.13 3.13 3.13 3.13 0 0 0-3.13-3.13z" fill="#3ba962" opacity="1" data-original="#000000" class=""></path></g></svg>