<svg xmlns="http://www.w3.org/2000/svg" version="1.1" xmlns:xlink="http://www.w3.org/1999/xlink" width="512"
  height="512" x="0" y="0" viewBox="0 0 50 50" style="enable-background:new 0 0 512 512" xml:space="preserve" class="">
  <g>
    <path
      d="M25 14.5c-2.4 0-4.6.6-6.5 1.8.5 1 1.2 1.8 2.1 2.4 1.3-.7 2.8-1.1 4.4-1.1s3.1.4 4.4 1.1c.8-.6 1.5-1.5 2.1-2.4-1.9-1.2-4.1-1.8-6.5-1.8zm12.8 12.8c-1 0-2.1.2-3 .6-.2 3.2-1.9 6-4.4 7.6.1 1 .5 2.1 1.1 3 3.9-2.2 6.5-6.4 6.5-11.2v-.1h-.2zm-22.5.6c-.1 0-.1 0 0 0-1-.4-2-.6-3-.6h-.1v.1c0 4.8 2.6 9 6.5 11.2.6-.9.9-2 1.1-3-2.7-1.7-4.4-4.5-4.5-7.7z"
      fill="#ffffff" opacity="1" data-original="#000000" class=""></path>
    <path
      d="M47.8 27.7c-1.2-2.6-3.6-4.8-6.4-6-1.5-.6-3.2-1-4.9-1 .8-1.5 1.4-3.1 1.6-4.7.4-3.1-.3-6.2-2-8.6s-4.2-4.1-6.8-4.5c2.2 1.5 3.8 3.5 4.5 5.7.8 2.2.8 4.5.3 6.6-.6 2.1-1.9 3.8-3.5 5-1.6 1.3-3.6 2-5.6 2s-4-.7-5.6-1.9-2.9-3-3.5-5c-.6-2.1-.6-4.4.2-6.6s2.4-4.2 4.5-5.7c-2.6.5-5.1 2.1-6.8 4.5s-2.4 5.5-2 8.6c.2 1.6.8 3.3 1.6 4.7-1.7 0-3.3.3-4.9 1-2.8 1.2-5.2 3.4-6.4 6S.7 33.4 1.6 36c.3-2.6 1.2-5 2.7-6.8s3.5-3 5.5-3.5c2.1-.5 4.2-.3 6.1.5s3.4 2.2 4.4 3.9 1.4 3.8 1.2 5.8c-.3 2-1.2 4-2.6 5.5-1.5 1.5-3.5 2.7-5.8 3.1-2.3.5-4.8 0-7.2-1.1 1.7 2 4.4 3.4 7.3 3.6 2.9.3 6-.7 8.4-2.5 1.3-1 2.4-2.3 3.3-3.7.8 1.5 1.9 2.7 3.3 3.7 2.4 1.9 5.5 2.8 8.4 2.5s5.6-1.6 7.3-3.6c-2.4 1.1-4.9 1.5-7.2 1.1s-4.3-1.5-5.8-3.1-2.4-3.5-2.6-5.5.2-4.1 1.2-5.8 2.6-3.1 4.4-3.9c1.9-.8 4-1 6.1-.5s4.1 1.7 5.5 3.5c1.5 1.8 2.4 4.1 2.7 6.8 1.1-2.6.9-5.6-.4-8.3zm-21.7 2.1c-.4.1-.7.2-1.1.2s-.7-.1-1.1-.2c-.9-.4-1.5-1.3-1.5-2.4v-.3c.1-.8.5-1.4 1.1-1.8.4-.3 1-.5 1.5-.5.6 0 1.1.2 1.5.5.6.4 1 1.1 1.1 1.8v.3c0 1.1-.6 2-1.5 2.4z"
      fill="#ffffff" opacity="1" data-original="#000000" class=""></path>
  </g>
</svg>