<svg xmlns="http://www.w3.org/2000/svg" version="1.1" xmlns:xlink="http://www.w3.org/1999/xlink" width="512" height="512" x="0" y="0" viewBox="0 0 512 512" style="enable-background:new 0 0 512 512" xml:space="preserve" class=""><g><path d="M473.636 439.266h-41.373c-34.229 0-62.077-27.848-62.077-62.077V364.05c0-72.127-58.68-130.807-130.807-130.807s-130.806 58.68-130.806 130.807v13.139c0 34.229-27.848 62.077-62.077 62.077h-8.132C19.416 439.266 4 454.682 4 473.631s15.416 34.364 34.364 34.364h8.132c72.126 0 130.806-58.68 130.806-130.807v-13.139c0-34.229 27.848-62.077 62.077-62.077s62.077 27.848 62.077 62.077v13.139c0 72.127 58.68 130.807 130.807 130.807h41.373c18.948 0 34.364-15.416 34.364-34.364s-15.416-34.365-34.364-34.365zm-116.789-52.209c-4.427 16.116-19.125 26.906-35.581 26.518a116.34 116.34 0 0 1-5.81-36.386V364.05c0-5.819-.681-11.539-1.967-17.088 14.722-2.974 27.41-12.247 34.83-25.046 5.075 13.077 7.866 27.285 7.866 42.133v13.139c0 3.327.237 6.618.662 9.868zM122.573 364.05c0-16.465 3.431-32.141 9.605-46.362 7.225-1.408 14.846-.24 21.318 3.342 6.702 3.712 11.856 9.844 14.412 17.033a75.316 75.316 0 0 0-4.606 25.986v13.139c0 7.436-.707 14.709-2.042 21.762a43.866 43.866 0 0 0-8.99-9.931c-8.353-6.753-18.683-10.016-29.753-9.555.022-.758.056-1.514.056-2.276v-13.139zM38.364 493.995c-11.229 0-20.364-9.136-20.364-20.364s9.136-20.365 20.364-20.365h8.132c9.257 0 18.271-1.69 26.717-4.89 6.246 2.213 11.167 6.757 13.981 12.992 3.441 7.624 3.315 16.951-.236 25.397-12.613 4.672-26.244 7.229-40.462 7.229h-8.132zm65.018-14.821c1.009-8.102-.112-16.22-3.427-23.565-2.738-6.066-6.755-11.117-11.759-14.913a77.746 77.746 0 0 0 11.995-9.812c10.441-10.441 17.467-23.313 20.567-37.276 10.725-1.167 18.178 2.633 22.71 6.299 6.677 5.399 10.732 13.473 11.016 21.788-10.097 24.41-28.238 44.676-51.101 57.48zm82.302-168.819a77.615 77.615 0 0 0-10.054 12.374c-3.96-5.72-9.204-10.539-15.353-13.945-6.316-3.497-13.391-5.391-20.535-5.633 19.954-32.526 55.377-54.579 95.951-55.843 7.666 12.563 7.636 28.221-.093 40.759-18.784.927-36.386 8.759-49.917 22.289zm107.39 0c-11.639-11.638-26.295-19.053-42.121-21.491a52.696 52.696 0 0 0 .647-40.983c37.758 3.944 70.218 25.951 88.571 57.2-3.684 14.896-16.13 26.151-31.162 28.463-3.77-8.514-9.119-16.373-15.935-23.189zM326.8 427.373a49.919 49.919 0 0 0 35.614-20.17c3.779 8.704 9.207 16.734 16.155 23.681 7.882 7.881 17.152 13.812 27.226 17.588-5.4 16.233-14.185 26.995-26.719 32.695-22.77-11.695-41.22-30.654-52.276-53.795zm146.836 66.623h-41.373a116.347 116.347 0 0 1-37.149-6.058c10.973-8.032 19.063-20.026 24.199-35.802a75.9 75.9 0 0 0 12.95 1.131h41.373c11.229 0 20.364 9.136 20.364 20.365s-9.136 20.364-20.364 20.364zm-4.368-24.921a7 7 0 0 1-7 7h-9.127a7 7 0 1 1 0-14h9.127a7 7 0 0 1 7 7zM339.04 168.88l42.019 24.259v37.148c-11.72 3.101-20.387 13.795-20.387 26.477 0 15.102 12.286 27.388 27.388 27.388s27.388-12.286 27.388-27.388c0-12.683-8.667-23.376-20.388-26.478v-37.147l38.519-22.239 20.606 11.896a27.31 27.31 0 0 0-.96 7.175c0 15.102 12.286 27.388 27.388 27.388s27.388-12.286 27.388-27.388-12.286-27.388-27.388-27.388c-7.582 0-14.453 3.099-19.417 8.094l-20.617-11.903v-48.52a6.999 6.999 0 0 0-3.5-6.062l-42.02-24.26V57.866a27.327 27.327 0 0 0 6.694-2.763c13.078-7.552 17.574-24.335 10.024-37.412C404.225 4.612 387.441.116 374.365 7.666c-6.336 3.658-10.867 9.564-12.761 16.631s-.922 14.447 2.735 20.782c3.791 6.566 9.91 10.968 16.719 12.769v22.084l-42.019 24.26a7.001 7.001 0 0 0-3.5 6.062v52.562a6.999 6.999 0 0 0 3.5 6.062zm141.572 7.704c7.382 0 13.388 6.006 13.388 13.388s-6.006 13.388-13.388 13.388-13.388-6.006-13.388-13.388 6.006-13.388 13.388-13.388zm-79.165 80.181c0 7.382-6.006 13.388-13.388 13.388s-13.388-6.006-13.388-13.388 6.006-13.388 13.388-13.388 13.388 6.006 13.388 13.388zM376.465 38.081c-1.788-3.097-2.264-6.705-1.338-10.159s3.141-6.341 6.238-8.129a13.295 13.295 0 0 1 6.671-1.791c4.63 0 9.14 2.401 11.616 6.691 3.691 6.393 1.493 14.597-4.899 18.288-6.392 3.694-14.597 1.493-18.288-4.9zm-26.925 76.216 38.519-22.238 38.52 22.238v44.479l-38.519 22.238-38.52-22.238zm-146.336-1.447a7 7 0 0 1 7-7h72.923l-8.207-7.161a7.001 7.001 0 0 1 9.205-10.549l22.273 19.436a7.001 7.001 0 0 1 0 10.548l-22.273 19.436a6.979 6.979 0 0 1-4.6 1.726 7.001 7.001 0 0 1-4.605-12.274l8.207-7.161h-72.923a7 7 0 0 1-7-7zm0 62.448c0-2.021.874-3.945 2.397-5.274l22.274-19.436a7.001 7.001 0 0 1 9.205 10.549l-8.208 7.161h72.923a7 7 0 1 1 0 14h-72.924l8.209 7.162a7.001 7.001 0 0 1-9.205 10.548l-22.274-19.437a7.001 7.001 0 0 1-2.397-5.274zM31.388 217.359c15.102 0 27.388-12.286 27.388-27.388a27.32 27.32 0 0 0-.96-7.175L78.422 170.9l42.02 24.26a6.997 6.997 0 0 0 7 0l45.519-26.28a7.001 7.001 0 0 0 3.5-6.062v-52.562a6.999 6.999 0 0 0-3.5-6.062l-42.019-24.26V57.85c6.808-1.801 12.927-6.203 16.719-12.769 7.551-13.078 3.054-29.861-10.024-37.413-13.081-7.55-29.862-3.053-37.413 10.025-7.55 13.078-3.053 29.861 10.025 37.412a27.353 27.353 0 0 0 6.693 2.763v22.065l-42.02 24.26a7.001 7.001 0 0 0-3.5 6.062v48.52l-20.617 11.903c-4.964-4.996-11.835-8.094-19.417-8.094C16.286 162.584 4 174.87 4 189.972s12.286 27.388 27.388 27.388zm80.96-192.666c2.477-4.291 6.986-6.691 11.617-6.691 2.27 0 4.568.577 6.671 1.791 6.394 3.69 8.591 11.895 4.899 18.288-3.689 6.395-11.893 8.591-18.287 4.901-6.394-3.692-8.592-11.896-4.9-18.289zm-26.926 89.604 38.52-22.238 38.519 22.238v44.479l-38.519 22.238-38.52-22.238zm-54.034 62.287c7.382 0 13.388 6.006 13.388 13.388S38.77 203.36 31.388 203.36 18 197.354 18 189.972s6.006-13.388 13.388-13.388z" fill="#3ba962" opacity="1" data-original="#000000"></path></g></svg>