<svg xmlns="http://www.w3.org/2000/svg" version="1.1" xmlns:xlink="http://www.w3.org/1999/xlink" width="512" height="512" x="0" y="0" viewBox="0 0 48 48" style="enable-background:new 0 0 512 512" xml:space="preserve" class=""><g><path d="M37 8H11c-2.21 0-4 1.79-4 4v20c0 2.21 1.79 4 4 4h26c2.21 0 4-1.79 4-4V12c0-2.21-1.79-4-4-4zm2 24c0 1.1-.9 2-2 2H11c-1.1 0-2-.9-2-2V12c0-1.1.9-2 2-2h26c1.1 0 2 .9 2 2zM35 39.06 13 39c-.55 0-1 .44-1 1 0 .55.45 1 1 1l22 .06c.55 0 1-.44 1-1 0-.55-.45-1-1-1z" fill="#3ba962" opacity="1" data-original="#000000"></path><path d="M30 21h-1.1c-.13-.64-.38-1.23-.73-1.75l.78-.78a.996.996 0 0 0-.71-1.7c-.26 0-.51.1-.71.29l-.78.78a4.93 4.93 0 0 0-1.75-.73v-1.1c0-.55-.45-1-1-1s-1 .45-1 1v1.1c-.64.13-1.23.38-1.75.73l-.78-.78c-.2-.2-.45-.29-.71-.29s-.51.1-.71.29a.996.996 0 0 0 0 1.41l.78.78c-.35.52-.6 1.12-.73 1.75H18c-.55 0-1 .45-1 1s.45 1 1 1h1.1c.13.64.38 1.23.73 1.75l-.78.78a.996.996 0 0 0 .71 1.7c.26 0 .51-.1.71-.29l.78-.78c.52.35 1.12.6 1.75.73v1.1c0 .55.45 1 1 1s1-.45 1-1v-1.1c.64-.13 1.23-.38 1.75-.73l.78.78c.2.2.45.29.71.29s.51-.1.71-.29a.996.996 0 0 0 0-1.41l-.78-.78c.35-.52.6-1.12.73-1.75H30c.55 0 1-.45 1-1s-.45-1-1-1zm-6.08 3.96c-1.65 0-3-1.35-3-3s1.35-3 3-3 3 1.35 3 3-1.35 3-3 3z" fill="#3ba962" opacity="1" data-original="#000000"></path></g></svg>