<svg xmlns="http://www.w3.org/2000/svg" version="1.1" xmlns:xlink="http://www.w3.org/1999/xlink" width="512" height="512" x="0" y="0" viewBox="0 0 511.999 511" style="enable-background:new 0 0 512 512" xml:space="preserve" class=""><g><path d="M505.871 140.7 129.008 1.077c-4.82-1.781-10.176.684-11.953 5.508-.004.004-.004.008-.008.012L75.328 120.156c-1.773 4.824.7 10.176 5.524 11.95h.007l43.684 16.039-9.625 26.222a9.306 9.306 0 0 0 5.527 11.942l87.383 32.082-6.422 17.48c-5.836 15.656-.39 33.281 13.266 42.91v47.5H89.43a46.665 46.665 0 0 0-33.285-26.992v-19.547a9.307 9.307 0 0 0-9.31-9.308H9.31A9.31 9.31 0 0 0 0 279.742v148.926a9.307 9.307 0 0 0 9.309 9.309h37.527a9.304 9.304 0 0 0 9.309-9.309v-19.543a46.67 46.67 0 0 0 33.285-26.996h125.242v9.309c0 15.421 12.5 27.925 27.922 27.925s27.926-12.504 27.926-27.925V288.323a36.915 36.915 0 0 0 18.253-20.34l6.422-17.48 78.64 28.855a9.316 9.316 0 0 0 11.945-5.527l3.49-9.504c30.289 5.7 59.46-14.234 65.156-44.52a55.82 55.82 0 0 0-3.918-33.148l56.426-28.972a9.308 9.308 0 0 0-1.016-17.016zM233.285 287.261l7.707 2.793a37.05 37.05 0 0 0 10.91 2.14v34.086h-18.617zM37.531 419.363H18.617V289.051h18.914zm37.23-55.847a27.986 27.986 0 0 1-18.616 26.332v-71.282a27.978 27.978 0 0 1 18.617 26.332zm18.907-18.618h158.234v18.618H93.668zm148.926 55.848a9.31 9.31 0 0 1-9.309-9.309v-9.308h18.617v9.309a9.31 9.31 0 0 1-9.308 9.308zm35.129-156.652-6.422 17.48c-3.547 9.64-14.238 14.586-23.887 11.047l-17.508-6.414c-9.648-3.543-14.601-14.238-11.058-23.89v-.005l6.425-17.468 47.18 17.32zm93.797 14.613-235.922-86.633 6.425-17.48L281.82 205.93a9.367 9.367 0 0 0 9.594-1.957l26.121-24.59 73.235 26.898zm62.933-36.379c-5.898 15.902-21.762 25.84-38.64 24.203l14.382-39.18 23.493-12.097a36.922 36.922 0 0 1 .765 27.074zm-31.418-32.183a8.48 8.48 0 0 0-1.46.257l-82.99-30.472a9.316 9.316 0 0 0-9.589 1.953l-26.152 24.594-186.832-68.61L131.3 21.781 479.566 150.81zm0 0" fill="#3ba962" opacity="1" data-original="#000000"></path><path d="m172.328 126.055 6.414-17.477 17.477 6.418-6.418 17.477zM207.277 138.887l6.414-17.477 17.477 6.418-6.418 17.473zM242.227 151.727l6.418-17.477 17.472 6.418-6.418 17.477zm0 0" fill="#3ba962" opacity="1" data-original="#000000"></path></g></svg>