<svg xmlns="http://www.w3.org/2000/svg" version="1.1" xmlns:xlink="http://www.w3.org/1999/xlink" width="512" height="512" x="0" y="0" viewBox="0 0 64 64" style="enable-background:new 0 0 512 512" xml:space="preserve" class=""><g><path d="M49.967 20.64a22.86 22.86 0 0 0-1.457-1.653l-1.435 1.392c.465.48.913.988 1.33 1.51zM50.606 25.253l1.771-.929a23.006 23.006 0 0 0-1.117-1.9l-1.673 1.1c.364.552.707 1.135 1.019 1.729zM46.9 17.48a23.3 23.3 0 0 0-1.743-1.345l-1.145 1.638c.546.383 1.082.8 1.592 1.231zM52.9 32.92l1.991-.2a22.954 22.954 0 0 0-.321-2.183l-1.962.387c.126.657.225 1.327.292 1.996zM52.123 28.976l1.916-.574c-.209-.7-.456-1.4-.732-2.078l-1.853.754c.253.622.478 1.258.669 1.898zM52.912 36.941l1.991.183c.064-.7.1-1.415.1-2.2L53 35c0 .648-.03 1.3-.088 1.941zM27.1 57.476c.641.139 1.295.252 1.945.335l.253-1.983a21.325 21.325 0 0 1-1.773-.307zM31.09 55.98l-.087 2Q31.5 58 32 58c.327 0 .652-.007.977-.021l-.085-2c-.599.028-1.205.027-1.802.001zM23.33 56.31c.61.248 1.235.472 1.858.664l.59-1.911a20.628 20.628 0 0 1-1.694-.606zM38.2 55.069l.589 1.911a22.836 22.836 0 0 0 1.859-.664l-.748-1.852a20.67 20.67 0 0 1-1.7.605zM34.688 55.829l.253 1.984c.649-.083 1.3-.2 1.945-.334l-.423-1.955c-.586.127-1.183.23-1.775.305zM11.087 36.918A21.12 21.12 0 0 1 11 35v-.1L9 35c0 .7.032 1.405.1 2.1zM12.552 27.062l-1.852-.757a23.138 23.138 0 0 0-.734 2.077l1.916.575c.192-.641.418-1.278.67-1.895zM20 17.766l-1.144-1.64c-.6.42-1.189.873-1.745 1.346L18.4 19a20.085 20.085 0 0 1 1.6-1.234zM11.4 30.908l-1.964-.388c-.142.718-.25 1.452-.323 2.18l1.991.2c.065-.667.165-1.337.296-1.992zM14.421 23.506l-1.672-1.1c-.4.613-.778 1.252-1.118 1.9l1.77.931c.311-.588.654-1.171 1.02-1.731zM16.934 20.371 15.5 18.977a23.1 23.1 0 0 0-1.458 1.65l1.56 1.252c.42-.523.868-1.03 1.332-1.508z" fill="#3ba962" opacity="1" data-original="#000000"></path><path d="M52 39a10.959 10.959 0 0 0-8.149 3.638l-6.523-4.892A5.982 5.982 0 0 0 33 29.09v-4.141a11 11 0 1 0-2 0v4.141a5.983 5.983 0 0 0-4.328 8.657l-6.522 4.891a11.033 11.033 0 1 0 1.2 1.6l6.523-4.891a5.971 5.971 0 0 0 8.252 0l6.523 4.891A10.989 10.989 0 1 0 52 39zM8 58.05V56a4 4 0 0 1 8 0v2.05a8.9 8.9 0 0 1-8 0zM10 48v-1a2 2 0 0 1 4 0v1a2 2 0 0 1-4 0zm8 8.689V56a6 6 0 0 0-3.107-5.253A3.978 3.978 0 0 0 16 48v-1a4 4 0 0 0-8 0v1a3.978 3.978 0 0 0 1.107 2.747A6 6 0 0 0 6 56v.689a9 9 0 1 1 12 0zM30 12v-1a2 2 0 0 1 4 0v1a2 2 0 0 1-4 0zm2 4a4 4 0 0 1 4 4v2.05a8.9 8.9 0 0 1-8 0V20a4 4 0 0 1 4-4zm-9-2a9 9 0 1 1 15 6.689V20a6 6 0 0 0-3.107-5.253A3.978 3.978 0 0 0 36 12v-1a4 4 0 0 0-8 0v1a3.978 3.978 0 0 0 1.107 2.747A6 6 0 0 0 26 20v.689A8.971 8.971 0 0 1 23 14zm9 25a4 4 0 1 1 4-4 4 4 0 0 1-4 4zm16 19.05V56a4 4 0 0 1 8 0v2.05a8.9 8.9 0 0 1-8 0zM50 48v-1a2 2 0 0 1 4 0v1a2 2 0 0 1-4 0zm8 8.689V56a6 6 0 0 0-3.107-5.253A3.978 3.978 0 0 0 56 48v-1a4 4 0 0 0-8 0v1a3.978 3.978 0 0 0 1.107 2.747A6 6 0 0 0 46 56v.689a9 9 0 1 1 12 0z" fill="#3ba962" opacity="1" data-original="#000000"></path></g></svg>