<svg width="450" height="411" viewBox="0 0 450 411" fill="none" xmlns="http://www.w3.org/2000/svg">
  <path
    d="M121.527 128.526C121.17 128.471 120.809 128.442 120.448 128.439C120.2 128.439 119.948 128.453 119.7 128.479C112.107 127.753 106.304 121.374 106.293 113.744C106.293 109.619 102.948 106.274 98.8232 106.274C94.6982 106.274 91.3536 109.619 91.3536 113.744C91.3719 127.038 100.195 138.709 112.978 142.353V148.98C112.978 153.109 116.323 156.45 120.448 156.45C124.573 156.45 127.917 153.109 127.917 148.98V142.688C142.612 139.227 152.383 125.302 150.636 110.308C148.893 95.3104 136.193 84.0002 121.093 84.0002C112.916 84.0002 106.289 77.3731 106.289 69.1959C106.289 61.0188 112.916 54.3917 121.093 54.3917C129.271 54.3917 135.898 61.0224 135.898 69.1996C135.898 73.3247 139.242 76.6692 143.367 76.6692C147.492 76.6692 150.837 73.3247 150.837 69.1996C150.819 55.0482 140.851 42.8627 126.984 40.0433V33.2011C126.984 29.076 123.639 25.7314 119.514 25.7314C115.389 25.7314 112.045 29.076 112.045 33.2011V40.8676C98.0792 45.3246 89.4425 59.2936 91.7001 73.7806C93.9578 88.2639 106.435 98.9467 121.093 98.9431C129.179 98.9467 135.763 105.439 135.883 113.521C136 121.607 129.606 128.289 121.527 128.53V128.526Z"
    fill="#3ba962" />
  <path
    d="M277.196 192.451C279.884 195.03 284.06 195.23 286.985 192.925L337.46 153.17L400.568 202.218L368.272 204.524C364.26 204.808 361.192 208.218 361.335 212.238C361.473 216.257 364.774 219.445 368.793 219.445C368.976 219.445 369.154 219.437 369.337 219.426L421.015 215.735C422.995 215.593 424.841 214.667 426.139 213.16C427.438 211.654 428.08 209.692 427.93 207.711L424.239 159.724C423.922 155.61 420.329 152.532 416.219 152.849C412.105 153.166 409.026 156.755 409.344 160.869L411.736 191.977L342.015 137.789C339.305 135.681 335.505 135.692 332.809 137.819L282.856 177.169L234.636 130.914C231.656 128.055 226.925 128.153 224.07 131.13C221.21 134.109 221.309 138.84 224.285 141.699L277.196 192.451Z"
    fill="#3ba962" />
  <path
    d="M442.53 395.477H407.094V307.469C407.094 303.344 403.432 300.24 399.307 300.24H327.207C323.082 300.24 319.326 303.344 319.326 307.469V395.477H273.574V240.06C273.574 235.935 269.982 233.013 265.857 233.013H193.757C191.868 232.937 190.034 233.655 188.699 234.994C187.364 236.332 186.653 238.171 186.74 240.06V395.477H140.055V203.864C140.008 201.888 139.172 200.009 137.739 198.645C136.302 197.285 134.387 196.548 132.407 196.599H60.3076C58.3891 196.57 56.54 197.332 55.1978 198.704C53.8592 200.079 53.1407 201.946 53.2209 203.864V395.477H14.9392V52.8055C14.9392 48.6805 11.5947 45.3359 7.46961 45.3359C3.34454 45.3359 0 48.6805 0 52.8055V402.538C0 406.667 3.38831 410.417 7.51337 410.417H442.53C446.655 410.417 450 407.076 450 402.947C450 398.822 446.655 395.477 442.53 395.477ZM68.1602 395.477V211.538H125.116V395.477H68.1602ZM201.679 395.477V247.953H258.635V395.477H201.679ZM334.265 395.477V315.179H392.154V395.477H334.265Z"
    fill="#3ba962" />
  <path
    d="M121.093 183.994C171.904 183.994 213.092 142.805 213.092 91.9987C213.092 41.1886 171.904 0 121.093 0C70.2833 0 29.0947 41.1886 29.0947 91.9987C29.1531 142.783 70.3089 183.939 121.093 183.994ZM121.093 14.9392C163.653 14.9392 198.153 49.4387 198.153 91.9987C198.153 134.555 163.653 169.055 121.093 169.055C78.5371 169.055 44.0339 134.555 44.0339 91.9987C44.0814 49.4606 78.5553 14.9866 121.093 14.9392Z"
    fill="#3ba962" />
</svg>