<svg width="450" height="333" viewBox="0 0 450 333" fill="none" xmlns="http://www.w3.org/2000/svg">
  <path
    d="M41.5322 284.396C41.5322 288.044 44.4889 291.001 48.1372 291.001H94.5875C114.617 291.001 130.912 274.706 130.912 254.676V251.463C130.912 231.434 114.617 215.139 94.5875 215.139H48.1372C44.4898 215.139 41.5322 218.095 41.5322 221.744V284.396ZM54.7422 228.349H94.5875C107.333 228.349 117.702 238.718 117.702 251.463V254.676C117.702 267.422 107.333 277.791 94.5875 277.791H54.7422V228.349Z"
    fill="#3ba962" />
  <path
    d="M48.1372 186.816H83.0545C100.143 186.816 114.046 172.913 114.046 155.825C114.046 138.738 100.143 124.835 83.0545 124.835H48.1372C44.4898 124.835 41.5322 127.792 41.5322 131.44V180.211C41.5322 183.859 44.4898 186.816 48.1372 186.816ZM54.7422 138.044H83.0545C92.8596 138.044 100.837 146.02 100.837 155.825C100.837 165.63 92.8596 173.606 83.0545 173.606H54.7422V138.044Z"
    fill="#3ba962" />
  <path
    d="M437.445 153.343C435.845 150.064 431.891 148.702 428.613 150.303C425.334 151.901 423.974 155.856 425.573 159.135C433.017 174.393 436.792 190.805 436.792 207.918C436.792 209.992 436.73 212.052 436.618 214.099C430.584 210.445 421.978 207.627 410.752 209.664C400.621 211.502 392.109 216.22 385.269 220.011C379.149 223.404 373.367 226.605 370.529 225.233C362.283 221.234 349.241 219.728 340.09 225.865C333.764 230.109 330.583 237.3 331.134 246.112C331.877 258.02 340.49 265.289 346.778 270.596C354.55 277.156 354.152 277.772 352.831 279.817C347.025 288.8 346.49 299.804 351.399 309.25C352.543 311.451 353.948 313.434 355.541 315.174C345.947 317.875 335.833 319.324 325.387 319.324C322.404 319.324 319.448 319.202 316.523 318.971C316.079 308.91 308.046 298.943 298.988 292.821C296.855 291.38 296.623 289.87 297.526 283.317C298.368 277.205 299.642 267.968 291.195 261.606C279.529 252.816 268.141 260.121 258.094 266.566C254.747 268.713 251.286 270.934 247.658 272.782C244.73 274.273 242.035 276.327 239.573 278.885C223.596 259.598 213.981 234.861 213.981 207.918C213.981 187.505 219.504 168.361 229.127 151.892C233.244 159.169 237.895 165.415 243.022 170.543C245.108 172.629 246.949 175.353 248.495 178.641C252.685 186.573 263.749 180.718 260.449 173.022C258.252 168.347 255.531 164.371 252.362 161.202C246.779 155.62 241.804 148.322 237.541 139.481C257.946 113.346 289.736 96.5117 325.387 96.5117C332.648 96.5117 339.814 97.2131 346.8 98.5736C336.957 101.012 328.991 104.716 328.556 112.119C328.1 119.861 336.612 124.196 348.393 130.197C353.927 133.015 359.65 135.93 363.905 138.961C367.131 141.26 368.332 142.803 368.777 143.595C364.993 143.167 356.543 139.108 351.757 136.809C339.983 131.154 329.815 126.271 322.408 130.423C318.743 132.48 317.48 135.257 317.067 137.226C316.046 142.082 318.936 145.926 321.732 149.642C326.387 155.83 328.786 159.639 323.967 165.959C319.741 171.503 315.402 176.018 311.206 180.384C302.018 189.947 293.341 198.977 290.832 214.541C289.397 223.442 284.117 228.425 279.518 229.417C276.123 230.151 273.175 228.786 270.998 225.492C269.945 223.742 269.177 216.181 268.615 210.661C268.289 207.45 267.952 204.13 267.504 200.627C267.04 197.01 263.732 194.449 260.114 194.913C256.496 195.376 253.938 198.685 254.401 202.302C254.827 205.637 255.156 208.87 255.474 211.997C256.448 221.577 257.152 228.499 259.97 232.761C264.262 239.253 270.683 242.825 277.718 242.825C279.222 242.825 280.754 242.662 282.3 242.329C293.271 239.965 301.739 229.882 303.874 216.642C305.725 205.153 312.02 198.601 320.732 189.536C324.977 185.118 329.788 180.111 334.472 173.969C344.741 160.501 337.865 149.285 333.351 143.126C337.368 144.552 342.654 147.091 346.038 148.716C357.254 154.104 366.938 158.755 374.459 155.994C377.445 154.896 379.722 152.746 381.041 149.78C383.17 144.99 383.592 137.609 373.503 129.65C368.183 125.452 360.855 121.721 354.389 118.427C351.335 116.872 347.267 114.8 344.423 113.071C350.255 110.922 362.004 108.664 373.8 107.557C388.104 114.46 400.94 124.436 411.356 137.057C413.678 139.872 417.842 140.27 420.654 137.948C423.468 135.627 423.866 131.463 421.544 128.651C397.762 99.8322 362.714 83.3043 325.387 83.3043C276.718 83.3043 234.484 111.352 213.981 152.129V110.676C213.981 97.8599 205.125 87.0766 193.212 84.1147V64.9677C193.648 64.9738 194.096 64.9782 194.564 64.9782C205.238 64.9782 223.766 63.2011 235.944 52.1699C253.902 35.9057 250.086 7.24628 249.915 6.03426C249.495 3.05916 247.12 0.742356 244.135 0.396945C242.833 0.245773 212.013 -3.12044 194.426 12.8089C191.142 15.7831 188.593 19.1739 186.609 22.7335C184.626 19.1739 182.076 15.7831 178.792 12.8089C161.206 -3.11956 130.387 0.245773 129.083 0.396945C126.098 0.742356 123.723 3.05916 123.303 6.03426C123.131 7.24628 119.315 35.9057 137.274 52.1699C149.454 63.2019 167.98 64.9782 178.654 64.9782C179.12 64.9782 179.566 64.9738 180.001 64.9677V84.1156C168.091 87.0792 159.237 97.8608 159.237 110.676V208.204C155.401 202.469 150.797 197.22 145.513 192.634C152.117 181.492 155.58 168.888 155.58 155.828C155.58 115.839 123.045 83.3043 83.055 83.3043H27.371C12.2783 83.3017 0 95.5809 0 110.674V153.793C0 157.441 2.95753 160.398 6.60499 160.398C10.2525 160.398 13.21 157.441 13.21 153.793V110.674C13.21 102.864 19.5627 96.5108 27.3718 96.5108H83.0559C115.763 96.5108 142.371 123.119 142.371 155.825C142.371 168.213 138.556 180.101 131.34 190.204C129.24 193.142 129.891 197.223 132.8 199.363C149.355 211.541 159.237 231.017 159.237 251.463V254.676C159.237 290.324 130.236 319.325 94.589 319.325H27.371C19.5619 319.325 13.2091 312.971 13.2091 305.163V180.211C13.2091 176.563 10.2516 173.606 6.60411 173.606C2.95665 173.606 0 176.564 0 180.211V305.162C0 320.254 12.2783 332.534 27.371 332.534H94.5881C121.488 332.534 145.244 318.819 159.236 298.016V305.162C159.236 320.254 171.515 332.534 186.607 332.534C201.699 332.534 213.978 320.254 213.978 305.162V263.708C234.482 304.485 276.716 332.533 325.384 332.533C394.097 332.533 450 276.63 450 207.916C450.001 188.782 445.776 170.42 437.445 153.343ZM203.291 22.5964C212.716 14.0613 228.758 13.0901 237.143 13.2272C237.217 20.7191 235.989 34.3017 227.073 42.3771C217.647 50.9139 201.605 51.8922 193.221 51.7463C193.147 44.2536 194.375 30.6709 203.291 22.5964ZM146.14 42.3762C137.223 34.2999 135.996 20.712 136.071 13.2264C144.46 13.0875 160.498 14.0596 169.923 22.5955C178.84 30.6727 180.067 44.2597 179.992 51.7454C171.608 51.8878 155.565 50.9131 146.14 42.3762ZM200.769 305.163C200.769 312.972 194.416 319.325 186.607 319.325C178.798 319.325 172.445 312.971 172.445 305.163V110.674C172.445 102.864 178.799 96.5108 186.607 96.5108C194.416 96.5108 200.769 102.864 200.769 110.674V305.163ZM253.651 284.553C257.864 282.408 261.775 279.898 265.225 277.685C275.835 270.877 279.487 269.327 283.244 272.156C285.214 273.641 285.269 275.485 284.438 281.513C283.563 287.859 282.241 297.449 291.588 303.766C296.708 307.226 301.4 312.472 302.86 317.036C282.086 312.754 263.405 302.67 248.595 288.559C250.173 286.811 251.862 285.464 253.651 284.553ZM370.787 309.645C367.771 309.002 364.918 306.622 363.119 303.159C360.426 297.978 360.728 291.932 363.923 286.987C371.954 274.561 361.93 266.1 355.297 260.502C349.851 255.906 344.708 251.565 344.316 245.289C343.934 239.192 346.578 237.418 347.447 236.835C351.784 233.926 359.812 234.719 364.764 237.118C373.77 241.488 382.466 236.668 391.672 231.565C397.976 228.071 405.119 224.111 413.108 222.662C424.696 220.556 431.805 226.226 434.72 229.318C427.702 265.244 403.367 295.046 370.787 309.645Z"
    fill="#3ba962" />
</svg>