<svg width="450" height="450" viewBox="0 0 450 450" fill="none" xmlns="http://www.w3.org/2000/svg">
  <path
    d="M428.906 71.7187H298.125C293.203 50.625 279.844 39.375 262.266 36.5625C246.797 6.32812 220.078 0 188.437 0C175.781 0 132.891 2.10938 108.281 33.75C90 56.9531 85.0781 90 94.2187 132.891C83.6719 138.516 82.9688 150.469 86.4844 161.719C88.5938 172.266 95.625 204.609 113.203 208.125C115.313 215.859 119.531 229.922 128.672 243.984V279.141L40.0781 313.594C16.1719 322.734 0 345.938 0 371.953V442.969C0 447.188 2.8125 450 7.03125 450H379.688C383.906 450 386.719 447.188 386.719 442.969V400.781H428.906C440.859 400.781 450 391.641 450 379.688V92.8125C450 80.8594 440.156 71.7187 428.906 71.7187ZM122.344 195.469C114.609 190.547 114.609 207.422 100.547 158.203C96.3281 143.438 104.062 144.844 103.359 144.844C107.578 144.844 111.094 140.625 110.391 136.406C99.8438 94.9219 103.359 63.2812 119.531 42.8906C136.406 21.7969 168.047 12.6562 192.656 14.0625H193.359C237.656 11.9531 251.016 44.2969 251.016 45C254.531 54.1406 266.484 44.2969 278.437 60.4688C285.469 70.3125 291.094 91.4063 277.031 135C276.328 137.109 277.031 139.219 277.734 141.328C281.953 146.953 291.094 139.922 286.172 157.5C286.172 158.203 278.437 194.063 269.297 194.063C268.594 194.063 266.484 193.359 263.672 194.766C262.266 195.469 260.859 197.578 260.859 199.687C260.156 202.5 247.5 267.891 192.656 270C137.812 267.891 125.156 202.5 124.453 199.687C125.156 198.281 123.75 196.875 122.344 195.469ZM222.187 435.938H165.234L185.625 376.172C187.734 369.844 182.109 368.437 168.047 348.75L194.063 341.719L219.375 348.75C196.172 386.719 193.359 348.047 222.187 435.938ZM132.891 292.5L178.594 331.172L135 343.125L116.719 298.828L132.891 292.5ZM208.125 331.172L253.125 291.797L268.594 298.125L249.609 343.125L208.125 331.172ZM244.687 262.266V281.25L193.359 325.547L142.031 282.656V262.266C170.859 291.094 213.75 293.203 244.687 262.266ZM14.0625 371.953C14.0625 352.266 26.7188 333.984 45 326.953L103.359 304.453L124.453 354.375C125.859 357.188 127.969 358.594 130.781 358.594H132.891L153.281 352.969L170.859 375.469L149.766 435.938H14.0625V371.953ZM372.656 435.938H236.953L215.859 375.469L233.438 352.969L251.719 357.891H253.828C256.641 357.891 259.453 356.484 260.156 353.672L281.25 303.047L341.016 326.25C359.297 333.281 371.953 351.562 371.953 371.25V435.938H372.656ZM435.938 379.688C435.938 383.906 433.125 386.719 428.906 386.719H386.719V371.25C386.719 345.937 370.547 322.031 346.641 312.891L258.75 279.141V243.984C267.187 229.922 272.109 215.859 274.219 208.125C291.094 204.609 298.828 172.266 300.937 161.719C304.453 150.469 303.75 139.219 293.906 132.891C299.531 114.609 301.641 98.4375 301.641 85.0781H430.313C434.531 85.0781 437.344 87.8906 437.344 92.1094V379.688H435.938Z"
    fill="#3ba962" />
  <path
    d="M407.812 118.125H379.688C375.469 118.125 372.656 120.937 372.656 125.156C372.656 129.375 375.469 132.188 379.688 132.188H407.812C412.031 132.188 414.844 129.375 414.844 125.156C414.844 120.937 412.031 118.125 407.812 118.125Z"
    fill="#3ba962" />
  <path
    d="M407.812 174.375H379.688C375.469 174.375 372.656 177.187 372.656 181.406C372.656 185.625 375.469 188.438 379.688 188.438H407.812C412.031 188.438 414.844 185.625 414.844 181.406C414.844 177.187 412.031 174.375 407.812 174.375Z"
    fill="#3ba962" />
  <path
    d="M407.812 230.625H379.688C375.469 230.625 372.656 233.437 372.656 237.656C372.656 241.875 375.469 244.688 379.688 244.688H407.812C412.031 244.688 414.844 241.875 414.844 237.656C414.844 233.437 412.031 230.625 407.812 230.625Z"
    fill="#3ba962" />
  <path
    d="M344.531 118.125H330.469C321.328 118.125 321.328 132.188 330.469 132.188H344.531C348.75 132.188 351.562 129.375 351.562 125.156C351.562 120.937 348.75 118.125 344.531 118.125Z"
    fill="#3ba962" />
  <path
    d="M344.531 174.375C338.203 175.078 323.438 170.859 323.438 181.406C323.438 185.625 326.25 188.437 330.469 188.437H344.531C348.75 188.437 351.562 185.625 351.562 181.406C351.562 177.187 348.75 174.375 344.531 174.375Z"
    fill="#3ba962" />
  <path
    d="M344.531 230.625H330.469C326.25 230.625 323.438 233.437 323.438 237.656C323.438 241.875 326.25 244.688 330.469 244.688H344.531C348.75 244.688 351.562 241.875 351.562 237.656C351.562 233.437 348.75 230.625 344.531 230.625Z"
    fill="#3ba962" />
  <path
    d="M407.812 286.172H379.688C375.469 286.172 372.656 288.984 372.656 293.203C372.656 297.422 375.469 300.234 379.688 300.234H407.812C412.031 300.234 414.844 297.422 414.844 293.203C414.844 288.984 412.031 286.172 407.812 286.172Z"
    fill="#3ba962" />
</svg>