<svg xmlns="http://www.w3.org/2000/svg" version="1.1" xmlns:xlink="http://www.w3.org/1999/xlink" width="512" height="512" x="0" y="0" viewBox="0 0 24 24" style="enable-background:new 0 0 512 512" xml:space="preserve" class=""><g><path d="M22.5 20h-21C.673 20 0 19.327 0 18.5v-13C0 4.673.673 4 1.5 4h2a.5.5 0 0 1 0 1h-2a.5.5 0 0 0-.5.5v13a.5.5 0 0 0 .5.5h21a.5.5 0 0 0 .5-.5v-13a.5.5 0 0 0-.5-.5h-2a.5.5 0 0 1 0-1h2c.827 0 1.5.673 1.5 1.5v13c0 .827-.673 1.5-1.5 1.5zM16.5 24h-9a.5.5 0 0 1 0-1h9a.5.5 0 0 1 0 1z" fill="#3ba962" opacity="1" data-original="#000000"></path><path d="M10.5 24a.5.5 0 0 1-.5-.5v-4a.5.5 0 0 1 1 0v4a.5.5 0 0 1-.5.5zM13.5 24a.5.5 0 0 1-.5-.5v-4a.5.5 0 0 1 1 0v4a.5.5 0 0 1-.5.5zM12 9c-1.379 0-2.5-1.122-2.5-2.5S10.621 4 12 4s2.5 1.122 2.5 2.5S13.379 9 12 9zm0-4c-.827 0-1.5.673-1.5 1.5S11.173 8 12 8s1.5-.673 1.5-1.5S12.827 5 12 5z" fill="#3ba962" opacity="1" data-original="#000000"></path><path d="M12.798 13h-1.596a.996.996 0 0 1-.994-.901l-.128-1.271a4.696 4.696 0 0 1-.865-.503l-1.167.527a.996.996 0 0 1-1.278-.411L5.973 9.06a.996.996 0 0 1 .281-1.312l1.03-.74c-.019-.155-.034-.328-.034-.508s.015-.353.034-.507l-1.03-.74a.997.997 0 0 1-.281-1.313l.797-1.38a.997.997 0 0 1 1.277-.412l1.168.528c.273-.2.562-.368.865-.503L10.208.9a.996.996 0 0 1 .994-.9h1.596c.516 0 .943.387.994.901l.128 1.271c.303.135.593.304.865.503l1.167-.527a.997.997 0 0 1 1.278.411l.797 1.381a.996.996 0 0 1-.281 1.312l-1.03.74c.019.155.034.328.034.508s-.015.353-.034.507l1.03.74c.419.302.54.867.281 1.313l-.797 1.38a1 1 0 0 1-1.277.412l-1.168-.528c-.273.2-.562.368-.865.503l-.128 1.273a.996.996 0 0 1-.994.9zM9.285 9.245a.5.5 0 0 1 .321.117c.339.284.714.501 1.113.647.18.066.307.229.325.42L11.202 12h1.596l.157-1.571a.501.501 0 0 1 .325-.42 3.745 3.745 0 0 0 1.113-.647.5.5 0 0 1 .527-.072l1.443.652.798-1.381-1.278-.918a.503.503 0 0 1-.2-.493c.038-.213.067-.427.067-.65s-.029-.437-.066-.648a.503.503 0 0 1 .2-.493l1.278-.918-.797-1.381-1.444.651a.502.502 0 0 1-.527-.072 3.7 3.7 0 0 0-1.113-.647.498.498 0 0 1-.325-.42L12.798 1h-1.596l-.157 1.571a.501.501 0 0 1-.325.42 3.72 3.72 0 0 0-1.114.648.502.502 0 0 1-.527.072l-1.443-.652-.798 1.381 1.278.918a.503.503 0 0 1 .2.493c-.037.212-.066.426-.066.649s.029.437.066.648a.503.503 0 0 1-.2.493l-1.278.919.797 1.38 1.444-.651a.503.503 0 0 1 .206-.044z" fill="#3ba962" opacity="1" data-original="#000000"></path></g></svg>