<svg xmlns="http://www.w3.org/2000/svg" version="1.1" xmlns:xlink="http://www.w3.org/1999/xlink" width="512" height="512" x="0" y="0" viewBox="0 0 496 496" style="enable-background:new 0 0 512 512" xml:space="preserve" class=""><g><path d="M368 416c0-13.113-4.488-25.594-12.23-34.559 2.773-6.656 4.23-13.953 4.23-21.441 0-14.594-5.527-28.168-14.816-37.16C349.617 314.977 352 305.695 352 296c0-20.031-10.2-37.414-25.2-44.496.802-3.777 1.2-7.633 1.2-11.504 0-26.473-17.945-48-40-48 20.031 0 36.672-17.77 39.559-40.855C346.008 146.887 360 127.367 360 104a54.88 54.88 0 0 0-2.29-15.688C369 79.594 376 64.52 376 48c0-26.473-17.945-48-40-48s-40 21.527-40 48c0 5.328.77 10.574 2.29 15.688-9.642 7.449-16.153 19.511-17.849 33.167C261.984 101.113 248 120.633 248 144c0-23.367-13.984-42.887-32.441-47.145-1.696-13.656-8.207-25.726-17.848-33.168A54.88 54.88 0 0 0 200 48c0-26.473-17.945-48-40-48s-40 21.527-40 48c0 16.52 7 31.594 18.29 40.313A54.88 54.88 0 0 0 136 104c0 23.367 13.992 42.887 32.441 47.145C171.328 174.23 187.97 192 208 192c-22.055 0-40 21.527-40 48 0 3.871.398 7.727 1.2 11.504-15 7.082-25.2 24.465-25.2 44.496 0 9.695 2.383 18.977 6.816 26.84C141.527 331.832 136 345.406 136 360c0 7.488 1.457 14.785 4.23 21.441C132.488 390.406 128 402.887 128 416c0 1.055.063 2.078.16 3.105C122.88 427.457 120 437.594 120 448c0 26.473 17.945 48 40 48s40-21.527 40-48c0-1.055-.062-2.078-.16-3.105C205.12 436.543 208 426.406 208 416c0-7.488-1.457-14.785-4.23-21.441C211.512 385.594 216 373.113 216 360c0-9.695-2.383-18.977-6.816-26.84C218.473 324.168 224 310.594 224 296c0-3.871-.398-7.727-1.2-11.504 15-7.082 25.2-24.465 25.2-44.496 0 20.031 10.2 37.414 25.2 44.496-.802 3.777-1.2 7.633-1.2 11.504 0 14.594 5.527 28.168 14.816 37.16C282.383 341.023 280 350.305 280 360c0 13.113 4.488 25.594 12.23 34.559-2.773 6.656-4.23 13.953-4.23 21.441 0 10.406 2.879 20.543 8.16 28.895A32.597 32.597 0 0 0 296 448c0 26.473 17.945 48 40 48s40-21.527 40-48c0-10.406-2.879-20.543-8.16-28.895.098-1.027.16-2.05.16-3.105zm-80-304c4.414 0 8-3.574 8-8 0-13.145 6.273-25.16 15.617-29.895 3.774-1.914 5.399-6.449 3.711-10.328C313.121 58.703 312 53.391 312 48c0-17.648 10.77-32 24-32s24 14.352 24 32c0 13.145-6.273 25.16-15.617 29.895-3.774 1.914-5.399 6.449-3.711 10.328C342.879 93.297 344 98.609 344 104c0 17.078-10.113 30.945-22.754 31.832l-45.238-19.39C279.55 113.687 283.618 112 288 112zm-24 32c0-5.121.992-9.887 2.602-14.184l45.015 19.29C309.77 164.32 299.922 176 288 176c-.762 0-1.574-.121-2.414-.273-3.707-12.278-11.441-22.23-21.305-27.536-.176-1.457-.281-2.847-.281-4.191zm-112-40c0-5.39 1.121-10.703 3.328-15.777 1.688-3.88.063-8.414-3.71-10.328C142.272 73.16 136 61.145 136 48c0-17.648 10.77-32 24-32s24 14.352 24 32c0 5.39-1.121 10.703-3.328 15.777-1.688 3.88-.063 8.414 3.71 10.328C193.728 78.84 200 90.855 200 104c0 4.426 3.586 8 8 8 4.383 0 8.45 1.688 11.992 4.441l-45.238 19.391C162.114 134.945 152 121.078 152 104zm40.223 232.559C197.238 342.734 200 351.055 200 360c0 10.855-4.16 20.902-11.121 26.887a8.005 8.005 0 0 0-1.75 10.015C190.32 402.527 192 409.137 192 416c0 8.168-2.45 16.031-6.879 22.129a8.022 8.022 0 0 0-1.496 5.543l.117 1.07c.121 1.082.258 2.145.258 3.258 0 17.648-10.77 32-24 32s-24-14.352-24-32c0-8.168 2.45-16.031 6.879-22.129a8.022 8.022 0 0 0 1.496-5.543l-.117-1.07c-.121-1.082-.258-2.145-.258-3.258 0-10.848 4.16-20.902 11.129-26.887a8.003 8.003 0 0 0 1.742-10.015C153.68 373.473 152 366.863 152 360c0-12.305 5.313-23.32 13.863-28.77a7.986 7.986 0 0 0 3.602-5.468 8.04 8.04 0 0 0-1.688-6.328c-4.578-5.633-7.168-13.098-7.601-21.153l45.457 11.36c-2.344 6.437-6.313 11.816-11.496 15.113a7.986 7.986 0 0 0-3.602 5.469 8.004 8.004 0 0 0 1.688 6.336zM232 240c0 15.648-8.832 29.191-20.535 31.52a7.989 7.989 0 0 0-5.945 10.602c1.375 3.75 2.054 7.648 2.28 11.581l-45.343-11.336c3.383-9.289 10.008-16.289 18.078-17.894a7.989 7.989 0 0 0 5.945-10.602A40.072 40.072 0 0 1 184 240c0-17.648 10.77-32 24-32 .77 0 1.574.121 2.414.266 3.707 12.277 11.441 22.238 21.313 27.535.168 1.472.273 2.855.273 4.199zm32 0c0-2.504.297-5.129.93-8.238a8.015 8.015 0 0 0-2.64-7.672 8.033 8.033 0 0 0-5.2-1.922c-.938 0-1.883.168-2.793.496-2.442.91-4.45 1.336-6.297 1.336-13.23 0-24-14.352-24-32 0-2.504.297-5.129.93-8.238a8.015 8.015 0 0 0-2.64-7.672 8.04 8.04 0 0 0-7.993-1.426c-2.442.91-4.45 1.336-6.297 1.336-11.922 0-21.77-11.68-23.617-26.895l45.015-19.289C231.008 134.113 232 138.88 232 144c0 2.504-.297 5.129-.93 8.238a8.015 8.015 0 0 0 2.64 7.672 8.036 8.036 0 0 0 7.993 1.426c2.442-.91 4.45-1.336 6.297-1.336 13.23 0 24 14.352 24 32 0 2.504-.297 5.129-.93 8.238a8.015 8.015 0 0 0 2.64 7.672 8 8 0 0 0 7.993 1.426c2.442-.91 4.45-1.336 6.297-1.336 13.23 0 24 14.352 24 32a39.9 39.9 0 0 1-2.488 13.871 7.989 7.989 0 0 0 5.945 10.602c8.07 1.605 14.695 8.605 18.078 17.894l-45.344 11.336c.235-3.933.907-7.832 2.282-11.582a7.989 7.989 0 0 0-5.946-10.601C272.832 269.19 264 255.648 264 240zm72 240c-13.23 0-24-14.352-24-32 0-1.113.137-2.176.258-3.258l.117-1.07a7.962 7.962 0 0 0-1.496-5.543C306.449 432.03 304 424.168 304 416c0-6.863 1.68-13.473 4.871-19.098a8.005 8.005 0 0 0-1.75-10.015C300.161 380.902 296 370.855 296 360c0-8.945 2.762-17.266 7.777-23.441a8.04 8.04 0 0 0 1.688-6.329 8.02 8.02 0 0 0-3.602-5.468c-5.183-3.305-9.152-8.672-11.496-15.114l45.457-11.359c-.433 8.055-3.023 15.512-7.601 21.152a8.04 8.04 0 0 0-1.688 6.329 8.02 8.02 0 0 0 3.602 5.468C338.687 336.68 344 347.695 344 360c0 6.863-1.68 13.473-4.871 19.098a8.005 8.005 0 0 0 1.75 10.015C347.839 395.098 352 405.145 352 416c0 1.113-.137 2.176-.258 3.258l-.117 1.07a7.962 7.962 0 0 0 1.496 5.543C357.551 431.97 360 439.832 360 448c0 17.648-10.77 32-24 32zM40 243.078c0-9.3 1.352-18.39 3.895-27.078h40.218A96.549 96.549 0 0 1 88 243.078V256h16v-12.922c0-28.055-10.352-54.445-29.07-75.078C93.648 147.375 104 120.977 104 92.922V80H88v12.922c0 9.3-1.352 18.39-3.895 27.078h-40.21A96.27 96.27 0 0 1 40 92.922V80H24v12.922c0 28.055 10.352 54.453 29.07 75.078C34.352 188.625 24 215.023 24 243.078V256h16zM50.246 200c3.656-7.258 8.274-14.047 13.754-20.266 5.48 6.22 10.098 13.008 13.754 20.266zm27.508-64c-3.656 7.258-8.274 14.047-13.754 20.266-5.48-6.22-10.098-13.008-13.754-20.266zM456 252.922c0 9.3-1.352 18.39-3.895 27.078h-40.218A96.549 96.549 0 0 1 408 252.922V240h-16v12.922c0 28.055 10.352 54.445 29.07 75.078-18.718 20.625-29.07 47.023-29.07 75.078V416h16v-12.922c0-9.3 1.352-18.39 3.895-27.078h40.218A96.549 96.549 0 0 1 456 403.078V416h16v-12.922c0-28.055-10.352-54.445-29.07-75.078 18.718-20.625 29.07-47.023 29.07-75.078V240h-16zM445.754 296c-3.656 7.258-8.266 14.047-13.754 20.266-5.48-6.22-10.098-13.008-13.754-20.266zm-27.508 64c3.656-7.258 8.266-14.047 13.754-20.266 5.48 6.22 10.098 13.008 13.754 20.266zM88 352c-3.64 0-7.09.742-10.352 1.863l-19.16-31.933A31.841 31.841 0 0 0 64 304c0-17.648-14.352-32-32-32S0 286.352 0 304s14.352 32 32 32c5.121 0 9.895-1.32 14.191-3.465l18.106 30.168C59.19 368.375 56 375.793 56 384c0 8.129 3.145 15.48 8.152 21.129l-21.601 28.8C39.23 432.763 35.719 432 32 432c-17.648 0-32 14.352-32 32s14.352 32 32 32 32-14.352 32-32c0-8.129-3.145-15.48-8.152-21.129l21.601-28.8C80.77 415.237 84.281 416 88 416c17.648 0 32-14.352 32-32s-14.352-32-32-32zm-72-48c0-8.824 7.176-16 16-16s16 7.176 16 16-7.176 16-16 16-16-7.176-16-16zm16 176c-8.824 0-16-7.176-16-16s7.176-16 16-16 16 7.176 16 16-7.176 16-16 16zm56-80c-8.824 0-16-7.176-16-16s7.176-16 16-16 16 7.176 16 16-7.176 16-16 16zM464 160c-3.719 0-7.23.762-10.55 1.93l-21.602-28.801c5.007-5.649 8.152-13 8.152-21.129 0-8.207-3.191-15.625-8.297-21.297l18.106-30.168C454.105 62.68 458.879 64 464 64c17.648 0 32-14.352 32-32S481.648 0 464 0s-32 14.352-32 32c0 6.64 2.04 12.809 5.512 17.93l-19.16 31.933C415.09 80.743 411.64 80 408 80c-17.648 0-32 14.352-32 32s14.352 32 32 32c3.719 0 7.23-.762 10.55-1.93l21.602 28.801c-5.007 5.649-8.152 13-8.152 21.129 0 17.648 14.352 32 32 32s32-14.352 32-32-14.352-32-32-32zm0-144c8.824 0 16 7.176 16 16s-7.176 16-16 16-16-7.176-16-16 7.176-16 16-16zm-72 96c0-8.824 7.176-16 16-16s16 7.176 16 16-7.176 16-16 16-16-7.176-16-16zm72 96c-8.824 0-16-7.176-16-16s7.176-16 16-16 16 7.176 16 16-7.176 16-16 16zm0 0" fill="#3ba962" opacity="1" data-original="#000000" class=""></path></g></svg>