<svg width="450" height="450" viewBox="0 0 450 450" fill="none" xmlns="http://www.w3.org/2000/svg">
  <path
    d="M232.031 450H7.03125C5.16645 450 3.37802 449.259 2.05941 447.941C0.74079 446.622 0 444.834 0 442.969V7.03125C0 5.16645 0.74079 3.37802 2.05941 2.05941C3.37802 0.74079 5.16645 0 7.03125 0L232.031 0C233.896 0 235.684 0.74079 237.003 2.05941C238.322 3.37802 239.062 5.16645 239.062 7.03125V53.6836C239.062 55.5484 238.322 57.3368 237.003 58.6554C235.684 59.9741 233.896 60.7148 232.031 60.7148C230.166 60.7148 228.378 59.9741 227.059 58.6554C225.741 57.3368 225 55.5484 225 53.6836V14.0625H14.0625V435.938H225V342.352C225 340.487 225.741 338.698 227.059 337.38C228.378 336.061 230.166 335.32 232.031 335.32C233.896 335.32 235.684 336.061 237.003 337.38C238.322 338.698 239.062 340.487 239.062 342.352V442.969C239.062 444.834 238.322 446.622 237.003 447.941C235.684 449.259 233.896 450 232.031 450Z"
    fill="#3ba962" />
  <path
    d="M92.3535 99.3848H50.166C48.3012 99.3848 46.5128 98.644 45.1942 97.3254C43.8756 96.0067 43.1348 94.2183 43.1348 92.3535V50.166C43.1348 48.3012 43.8756 46.5128 45.1942 45.1942C46.5128 43.8756 48.3012 43.1348 50.166 43.1348H92.3535C94.2183 43.1348 96.0067 43.8756 97.3254 45.1942C98.644 46.5128 99.3848 48.3012 99.3848 50.166V92.3535C99.3848 94.2183 98.644 96.0067 97.3254 97.3254C96.0067 98.644 94.2183 99.3848 92.3535 99.3848ZM57.1973 85.3223H85.3223V57.1973H57.1973V85.3223Z"
    fill="#3ba962" />
  <path
    d="M188.931 99.3848H146.743C144.878 99.3848 143.09 98.644 141.771 97.3254C140.453 96.0067 139.712 94.2183 139.712 92.3535V50.166C139.712 48.3012 140.453 46.5128 141.771 45.1942C143.09 43.8756 144.878 43.1348 146.743 43.1348H188.931C190.795 43.1348 192.584 43.8756 193.903 45.1942C195.221 46.5128 195.962 48.3012 195.962 50.166V92.3535C195.962 94.2183 195.221 96.0067 193.903 97.3254C192.584 98.644 190.795 99.3848 188.931 99.3848ZM153.774 85.3223H181.899V57.1973H153.774V85.3223Z"
    fill="#3ba962" />
  <path
    d="M92.3535 184.677H50.166C48.3012 184.677 46.5128 183.936 45.1942 182.617C43.8756 181.299 43.1348 179.51 43.1348 177.646V135.458C43.1348 133.593 43.8756 131.805 45.1942 130.486C46.5128 129.168 48.3012 128.427 50.166 128.427H92.3535C94.2183 128.427 96.0067 129.168 97.3254 130.486C98.644 131.805 99.3848 133.593 99.3848 135.458V177.646C99.3848 179.51 98.644 181.299 97.3254 182.617C96.0067 183.936 94.2183 184.677 92.3535 184.677ZM57.1973 170.614H85.3223V142.489H57.1973V170.614Z"
    fill="#3ba962" />
  <path
    d="M92.3535 269.999H50.166C48.3012 269.999 46.5128 269.258 45.1942 267.94C43.8756 266.621 43.1348 264.833 43.1348 262.968V220.78C43.1348 218.915 43.8756 217.127 45.1942 215.808C46.5128 214.49 48.3012 213.749 50.166 213.749H92.3535C94.2183 213.749 96.0067 214.49 97.3254 215.808C98.644 217.127 99.3848 218.915 99.3848 220.78V262.968C99.3848 264.833 98.644 266.621 97.3254 267.94C96.0067 269.258 94.2183 269.999 92.3535 269.999ZM57.1973 255.937H85.3223V227.812H57.1973V255.937Z"
    fill="#3ba962" />
  <path
    d="M189.386 450H49.71C47.8452 450 46.0567 449.259 44.7381 447.941C43.4195 446.622 42.6787 444.834 42.6787 442.969V373.535C42.6787 371.67 43.4195 369.882 44.7381 368.563C46.0567 367.245 47.8452 366.504 49.71 366.504H189.386C191.251 366.504 193.039 367.245 194.358 368.563C195.676 369.882 196.417 371.67 196.417 373.535V442.969C196.417 444.834 195.676 446.622 194.358 447.941C193.039 449.259 191.251 450 189.386 450ZM56.7412 435.938H182.354V380.566H56.7412V435.938Z"
    fill="#3ba962" />
  <path
    d="M92.3535 355.325H50.166C48.3012 355.325 46.5128 354.584 45.1942 353.266C43.8756 351.947 43.1348 350.159 43.1348 348.294V306.106C43.1348 304.242 43.8756 302.453 45.1942 301.135C46.5128 299.816 48.3012 299.075 50.166 299.075H92.3535C94.2183 299.075 96.0067 299.816 97.3254 301.135C98.644 302.453 99.3848 304.242 99.3848 306.106V348.294C99.3848 350.159 98.644 351.947 97.3254 353.266C96.0067 354.584 94.2183 355.325 92.3535 355.325ZM57.1973 341.263H85.3223V313.138H57.1973V341.263Z"
    fill="#3ba962" />
  <path
    d="M188.931 355.325H146.743C144.878 355.325 143.09 354.584 141.771 353.266C140.453 351.947 139.712 350.159 139.712 348.294V306.106C139.712 304.242 140.453 302.453 141.771 301.135C143.09 299.816 144.878 299.075 146.743 299.075H188.931C190.795 299.075 192.584 299.816 193.903 301.135C195.221 302.453 195.962 304.242 195.962 306.106V348.294C195.962 350.159 195.221 351.947 193.903 353.266C192.584 354.584 190.795 355.325 188.931 355.325ZM153.774 341.263H181.899V313.138H153.774V341.263Z"
    fill="#3ba962" />
  <path
    d="M119.531 450C117.666 450 115.878 449.259 114.559 447.941C113.241 446.622 112.5 444.834 112.5 442.969V373.535C112.5 371.67 113.241 369.882 114.559 368.563C115.878 367.245 117.666 366.504 119.531 366.504C121.396 366.504 123.184 367.245 124.503 368.563C125.822 369.882 126.562 371.67 126.562 373.535V442.969C126.562 444.834 125.822 446.622 124.503 447.941C123.184 449.259 121.396 450 119.531 450Z"
    fill="#3ba962" />
  <path
    d="M146.743 184.677C144.878 184.677 143.09 183.936 141.771 182.617C140.453 181.299 139.712 179.51 139.712 177.646V135.458C139.712 133.593 140.453 131.805 141.771 130.486C143.09 129.168 144.878 128.427 146.743 128.427H158.028C159.893 128.427 161.682 129.168 163 130.486C164.319 131.805 165.06 133.593 165.06 135.458C165.06 137.323 164.319 139.111 163 140.43C161.682 141.748 159.893 142.489 158.028 142.489H153.774V177.646C153.774 179.51 153.034 181.299 151.715 182.617C150.396 183.936 148.608 184.677 146.743 184.677Z"
    fill="#3ba962" />
  <path
    d="M158.028 269.999H146.743C144.878 269.999 143.09 269.258 141.771 267.94C140.453 266.621 139.712 264.833 139.712 262.968V220.78C139.712 218.915 140.453 217.127 141.771 215.808C143.09 214.49 144.878 213.749 146.743 213.749C148.608 213.749 150.396 214.49 151.715 215.808C153.034 217.127 153.774 218.915 153.774 220.78V255.937H158.028C159.893 255.937 161.682 256.677 163 257.996C164.319 259.315 165.06 261.103 165.06 262.968C165.06 264.833 164.319 266.621 163 267.94C161.682 269.258 159.893 269.999 158.028 269.999Z"
    fill="#3ba962" />
  <path
    d="M306.635 342.421C278.278 342.421 250.558 334.012 226.981 318.257C203.403 302.502 185.028 280.109 174.177 253.91C163.327 227.711 160.49 198.883 166.025 171.071C171.56 143.26 185.218 117.714 205.271 97.6654C225.325 77.6166 250.874 63.9649 278.687 58.4371C306.5 52.9092 335.327 55.7533 361.523 66.6099C387.72 77.4664 410.108 95.8476 425.857 119.429C441.607 143.01 450.009 170.732 450.002 199.089C449.955 237.095 434.835 273.53 407.957 300.401C381.08 327.272 344.641 342.384 306.635 342.421ZM306.635 69.7842C281.061 69.7842 256.061 77.3678 234.797 91.576C213.533 105.784 196.96 125.979 187.173 149.606C177.386 173.234 174.825 199.232 179.815 224.315C184.804 249.398 197.119 272.438 215.203 290.521C233.286 308.605 256.326 320.92 281.409 325.909C306.491 330.898 332.49 328.338 356.118 318.551C379.745 308.764 399.94 292.191 414.148 270.927C428.356 249.663 435.94 224.663 435.94 199.089C435.902 164.807 422.267 131.939 398.026 107.698C373.785 83.4566 340.917 69.8215 306.635 69.7842Z"
    fill="#3ba962" />
  <path
    d="M284.518 294.646C283.492 294.659 282.475 294.448 281.54 294.026C280.604 293.605 279.772 292.983 279.102 292.206C278.432 291.429 277.94 290.514 277.661 289.527C277.382 288.539 277.323 287.503 277.487 286.49L290.249 206.79L267.397 202.15C265.592 201.784 264.003 200.725 262.971 199.199C261.939 197.674 261.546 195.805 261.877 193.994L275.94 116.333C276.124 115.328 276.525 114.374 277.115 113.539C277.706 112.704 278.471 112.008 279.358 111.499C280.245 110.991 281.232 110.682 282.251 110.594C283.27 110.505 284.295 110.641 285.256 110.99L339.327 130.431C340.204 130.748 341.009 131.237 341.695 131.868C342.382 132.499 342.936 133.26 343.325 134.108C343.714 134.955 343.931 135.872 343.963 136.804C343.995 137.736 343.841 138.665 343.51 139.537L332.717 167.978L353.178 173.322C354.248 173.6 355.237 174.126 356.065 174.858C356.893 175.59 357.537 176.507 357.945 177.534C358.352 178.561 358.512 179.67 358.411 180.771C358.309 181.872 357.95 182.933 357.362 183.869L290.565 291.376C289.921 292.393 289.027 293.228 287.968 293.8C286.91 294.373 285.722 294.664 284.518 294.646ZM277.03 189.845L299.741 194.451C301.523 194.809 303.098 195.844 304.134 197.339C305.169 198.833 305.586 200.671 305.295 202.466L296.963 254.287L340.381 184.501L321.573 179.615C320.618 179.367 319.726 178.922 318.955 178.307C318.184 177.692 317.551 176.922 317.097 176.047C316.642 175.172 316.377 174.211 316.319 173.226C316.26 172.242 316.409 171.256 316.756 170.333L327.795 141.259L288.456 127.197L277.03 189.845Z"
    fill="#3ba962" />
</svg>