<svg xmlns="http://www.w3.org/2000/svg" version="1.1" xmlns:xlink="http://www.w3.org/1999/xlink" width="512" height="512" x="0" y="0" viewBox="0 0 512 512" style="enable-background:new 0 0 512 512" xml:space="preserve" fill-rule="evenodd"><g><path d="M482.27 146.2H5.03c-2.77 0-5-2.24-5-5V91.8c0-2.77 2.23-5 5-5h501.94c2.77 0 5 2.23 5 5v24.7c0 16.37-13.32 29.7-29.7 29.7zm-472.24-10h472.24c10.87 0 19.7-8.84 19.7-19.7V96.8H10.03z" fill="#3ba962" opacity="1" data-original="#000000"></path><path d="M473.65 96.8H38.35h.02-.02c-1.32 0-2.59-.53-3.53-1.47s-1.47-2.21-1.47-3.53V67.09c0-16.37 13.33-29.7 29.7-29.7h385.9c16.37 0 29.69 13.33 29.69 29.7V91.8c0 2.76-2.23 5-4.99 5zm-430.3-10h425.3V67.09c0-10.86-8.84-19.7-19.7-19.7H63.05c-10.86 0-19.7 8.84-19.7 19.7V86.8z" fill="#3ba962" opacity="1" data-original="#000000"></path><path d="M150.23 47.39h-66.5c-2.76 0-5-2.23-5-4.99V15.79c0-6.25 5.08-11.33 11.33-11.33h53.84c6.24 0 11.33 5.08 11.33 11.33v26.6c0 2.77-2.24 5-5 5zm-61.5-9.99h56.5V15.79c0-.72-.61-1.33-1.33-1.33H90.06c-.72 0-1.33.61-1.33 1.33zM428.27 47.39h-66.5c-2.76 0-5-2.23-5-4.99V15.79c0-6.25 5.08-11.33 11.33-11.33h53.84c6.25 0 11.33 5.08 11.33 11.33v26.6c0 2.77-2.24 5-5 5zm-61.5-9.99h56.5V15.79c0-.72-.61-1.33-1.33-1.33H368.1c-.72 0-1.33.61-1.33 1.33zM163.3 180.4H56.27c-2.76 0-5-2.24-5-5v-34.2c0-2.76 2.24-5 5-5H163.3c2.76 0 5 2.24 5 5v34.2c0 2.76-2.24 5-5 5zm-102.03-10h97.03v-24.2H61.27z" fill="#3ba962" opacity="1" data-original="#000000"></path><path d="M109.78 414.1c-21.09 0-38.25-17.15-38.25-38.25V175.4c0-2.76 2.24-5 5-5h66.51c2.76 0 5 2.24 5 5v200.45c0 21.1-17.16 38.25-38.26 38.25zM81.53 180.4v195.45c0 15.58 12.68 28.25 28.25 28.25 15.58 0 28.26-12.67 28.26-28.25V180.4zM303.91 180.4H196.87c-2.76 0-5-2.24-5-5v-34.2c0-2.76 2.24-5 5-5h107.04c2.76 0 5 2.24 5 5v34.2c0 2.76-2.24 5-5 5zm-102.04-10h97.04v-24.2h-97.04z" fill="#3ba962" opacity="1" data-original="#000000"></path><path d="M250.39 414.1c-21.09 0-38.25-17.15-38.25-38.25V175.4c0-2.76 2.24-5 5-5h66.5c2.76 0 5 2.24 5 5v200.45c0 21.1-17.16 38.25-38.25 38.25zm-28.25-233.7v195.45c0 15.58 12.67 28.25 28.25 28.25s28.25-12.67 28.25-28.25V180.4zM444.51 180.4H337.47c-2.76 0-5-2.24-5-5v-34.2c0-2.76 2.24-5 5-5h107.04c2.76 0 5 2.24 5 5v34.2c0 2.76-2.24 5-5 5zm-102.04-10h97.04v-24.2h-97.04z" fill="#3ba962" opacity="1" data-original="#000000"></path><path d="M390.99 414.1c-21.09 0-38.25-17.15-38.25-38.25V175.4c0-2.76 2.24-5 5-5h66.5c2.76 0 5 2.24 5 5v200.45c0 21.1-17.16 38.25-38.25 38.25zm-28.25-233.7v195.45c0 15.58 12.67 28.25 28.25 28.25s28.25-12.67 28.25-28.25V180.4zM143.04 250.38H76.53c-2.76 0-5-2.24-5-5s2.24-5 5-5h66.51c2.76 0 5 2.24 5 5s-2.24 5-5 5zM143.04 280.15H76.53c-2.76 0-5-2.24-5-5s2.24-5 5-5h66.51c2.76 0 5 2.24 5 5s-2.24 5-5 5zM143.04 309.92H76.53c-2.76 0-5-2.24-5-5s2.24-5 5-5h66.51c2.76 0 5 2.24 5 5s-2.24 5-5 5zM283.64 250.38h-66.5c-2.76 0-5-2.24-5-5s2.24-5 5-5h66.5c2.76 0 5 2.24 5 5s-2.24 5-5 5zM283.64 280.15h-66.5c-2.76 0-5-2.24-5-5s2.24-5 5-5h66.5c2.76 0 5 2.24 5 5s-2.24 5-5 5zM283.64 309.92h-66.5c-2.76 0-5-2.24-5-5s2.24-5 5-5h66.5c2.76 0 5 2.24 5 5s-2.24 5-5 5z" fill="#3ba962" opacity="1" data-original="#000000"></path><path d="M424.24 250.38h-66.5c-2.76 0-5-2.24-5-5s2.24-5 5-5h66.5c2.76 0 5 2.24 5 5s-2.24 5-5 5zM424.24 280.15h-66.5c-2.76 0-5-2.24-5-5s2.24-5 5-5h66.5c2.76 0 5 2.24 5 5s-2.24 5-5 5zM424.24 309.92h-66.5c-2.76 0-5-2.24-5-5s2.24-5 5-5h66.5c2.76 0 5 2.24 5 5s-2.24 5-5 5zM174.39 507.54c-19.3 0-35-15.7-35-35 0-9.01 11.82-30.25 25-53.07 2.33-4.04 4.35-7.54 5.6-9.85a5.006 5.006 0 0 1 8.79 0c1.25 2.31 3.27 5.8 5.6 9.85 13.18 22.82 25 44.06 25 53.07 0 19.3-15.7 35-34.99 35zm0-85.39c-.44.75-.88 1.52-1.34 2.32-7.08 12.27-23.66 40.99-23.66 48.07 0 13.79 11.21 25 25 25 13.78 0 24.99-11.21 24.99-25 0-7.08-16.58-35.81-23.66-48.08-.46-.79-.9-1.56-1.33-2.31zM326.39 507.54c-19.3 0-35-15.7-35-35 0-9.02 11.83-30.25 25-53.07 2.33-4.05 4.35-7.54 5.6-9.85a5.006 5.006 0 0 1 4.4-2.61c1.83 0 3.52 1 4.39 2.61 1.26 2.31 3.27 5.8 5.6 9.84 13.18 22.83 25.01 44.06 25.01 53.08 0 19.3-15.71 35-35 35zm0-85.39c-.43.75-.88 1.52-1.34 2.31-7.08 12.27-23.66 41-23.66 48.08 0 13.79 11.21 25 25 25 13.78 0 25-11.21 25-25 0-7.08-16.59-35.81-23.67-48.08-.46-.79-.9-1.57-1.33-2.31z" fill="#3ba962" opacity="1" data-original="#000000"></path></g></svg>