<svg xmlns="http://www.w3.org/2000/svg" version="1.1" xmlns:xlink="http://www.w3.org/1999/xlink" width="512" height="512" x="0" y="0" viewBox="0 0 511.997 511.997" style="enable-background:new 0 0 512 512" xml:space="preserve" class=""><g><path d="M280.398 34.586c42.85 4.63 82.07 21.35 114.2 46.68M429.398 399.246c26.82-32.72 44.56-73.17 49.35-117.51M280.398 480.086c42.85-4.63 82.07-21.35 114.2-46.68M117.398 433.406c32.13 25.33 71.35 42.05 114.2 46.68M33.248 281.736c4.79 44.34 22.53 84.79 49.35 117.51M117.398 81.266c32.13-25.33 71.35-42.05 114.2-46.68M82.598 115.426a223.588 223.588 0 0 0-19.87 28.49M47.438 175.276a222.066 222.066 0 0 0-14.19 57.66M429.398 115.426c26.82 32.72 44.56 73.17 49.35 117.51M394.598 401.146c-6.2-4.89-12.66-9.46-19.37-13.68M280.398 354.456c17.68 1.92 34.73 5.88 50.93 11.67M180.478 366.196c16.25-5.83 33.37-9.82 51.12-11.74M136.588 387.576c-6.64 4.19-13.05 8.72-19.19 13.57M183.078 149.396c15.47 5.32 31.72 9 48.52 10.82M394.598 113.526c-7.5 5.92-15.4 11.37-23.63 16.29M280.398 160.216c16.72-1.81 32.89-5.46 48.3-10.75M140.878 129.736a224.99 224.99 0 0 1-23.48-16.21M357.558 353.596c5.31-22.18 8.84-46.37 10.22-71.85M279.898 476.336c25.12-10.84 47.11-38.39 62.9-76.53M359.528 169.746c4.21 19.76 7.04 40.98 8.25 63.18M279.898 38.336c26.83 11.58 50.09 42.23 66.04 84.49M144.218 281.746c1.38 25.46 4.91 49.64 10.21 71.81M169.168 399.716c15.79 38.18 37.79 65.77 62.93 76.62M144.218 232.926c1.2-22.17 4.03-43.37 8.24-63.12M166.038 122.886c15.94-42.29 39.22-72.97 66.06-84.55M119.128 257.336h-62.78M344.018 257.336h-63.59M405.228 257.336h-12.36M455.648 257.336h-15.42M231.568 257.336h-63.59" style="stroke-width:15;stroke-linecap:round;stroke-linejoin:round;stroke-miterlimit:10;" fill="none" stroke="#3ba962" stroke-width="15" stroke-linecap="round" stroke-linejoin="round" stroke-miterlimit="10" data-original="#000000" opacity="1"></path><circle cx="99.066" cy="97.392" r="24.425" style="stroke-width:15;stroke-linecap:round;stroke-linejoin:round;stroke-miterlimit:10;" fill="none" stroke="#3ba962" stroke-width="15" stroke-linecap="round" stroke-linejoin="round" stroke-miterlimit="10" data-original="#000000" opacity="1"></circle><circle cx="158.867" cy="146.245" r="24.425" style="stroke-width:15;stroke-linecap:round;stroke-linejoin:round;stroke-miterlimit:10;" fill="none" stroke="#3ba962" stroke-width="15" stroke-linecap="round" stroke-linejoin="round" stroke-miterlimit="10" data-original="#000000" opacity="1"></circle><circle cx="143.553" cy="257.336" r="24.425" style="stroke-width:15;stroke-linecap:round;stroke-linejoin:round;stroke-miterlimit:10;" fill="none" stroke="#3ba962" stroke-width="15" stroke-linecap="round" stroke-linejoin="round" stroke-miterlimit="10" data-original="#000000" opacity="1"></circle><circle cx="368.443" cy="257.336" r="24.425" style="stroke-width:15;stroke-linecap:round;stroke-linejoin:round;stroke-miterlimit:10;" fill="none" stroke="#3ba962" stroke-width="15" stroke-linecap="round" stroke-linejoin="round" stroke-miterlimit="10" data-original="#000000" opacity="1"></circle><circle cx="480.071" cy="257.336" r="24.425" style="stroke-width:15;stroke-linecap:round;stroke-linejoin:round;stroke-miterlimit:10;" fill="none" stroke="#3ba962" stroke-width="15" stroke-linecap="round" stroke-linejoin="round" stroke-miterlimit="10" data-original="#000000" opacity="1"></circle><circle cx="31.925" cy="257.336" r="24.425" style="stroke-width:15;stroke-linecap:round;stroke-linejoin:round;stroke-miterlimit:10;" fill="none" stroke="#3ba962" stroke-width="15" stroke-linecap="round" stroke-linejoin="round" stroke-miterlimit="10" data-original="#000000" opacity="1"></circle><circle cx="99.066" cy="417.28" r="24.425" style="stroke-width:15;stroke-linecap:round;stroke-linejoin:round;stroke-miterlimit:10;" fill="none" stroke="#3ba962" stroke-width="15" stroke-linecap="round" stroke-linejoin="round" stroke-miterlimit="10" data-original="#000000" opacity="1"></circle><circle cx="412.931" cy="97.392" r="24.425" style="stroke-width:15;stroke-linecap:round;stroke-linejoin:round;stroke-miterlimit:10;" fill="none" stroke="#3ba962" stroke-width="15" stroke-linecap="round" stroke-linejoin="round" stroke-miterlimit="10" data-original="#000000" opacity="1"></circle><circle cx="412.931" cy="417.28" r="24.425" style="stroke-width:15;stroke-linecap:round;stroke-linejoin:round;stroke-miterlimit:10;" fill="none" stroke="#3ba962" stroke-width="15" stroke-linecap="round" stroke-linejoin="round" stroke-miterlimit="10" data-original="#000000" opacity="1"></circle><circle cx="158.867" cy="377.569" r="24.425" style="stroke-width:15;stroke-linecap:round;stroke-linejoin:round;stroke-miterlimit:10;" fill="none" stroke="#3ba962" stroke-width="15" stroke-linecap="round" stroke-linejoin="round" stroke-miterlimit="10" data-original="#000000" opacity="1"></circle><circle cx="352.9" cy="146.245" r="24.425" style="stroke-width:15;stroke-linecap:round;stroke-linejoin:round;stroke-miterlimit:10;" fill="none" stroke="#3ba962" stroke-width="15" stroke-linecap="round" stroke-linejoin="round" stroke-miterlimit="10" data-original="#000000" opacity="1"></circle><circle cx="352.9" cy="377.569" r="24.425" style="stroke-width:15;stroke-linecap:round;stroke-linejoin:round;stroke-miterlimit:10;" fill="none" stroke="#3ba962" stroke-width="15" stroke-linecap="round" stroke-linejoin="round" stroke-miterlimit="10" data-original="#000000" opacity="1"></circle><path d="M255.998 232.906v-46.95M255.998 137.106v-79.42M255.998 328.716v-46.95M255.998 456.986v-79.42" style="stroke-width:15;stroke-linecap:round;stroke-linejoin:round;stroke-miterlimit:10;" fill="none" stroke="#3ba962" stroke-width="15" stroke-linecap="round" stroke-linejoin="round" stroke-miterlimit="10" data-original="#000000" opacity="1"></path><circle cx="255.998" cy="257.336" r="24.425" style="stroke-width:15;stroke-linecap:round;stroke-linejoin:round;stroke-miterlimit:10;" fill="none" stroke="#3ba962" stroke-width="15" stroke-linecap="round" stroke-linejoin="round" stroke-miterlimit="10" data-original="#000000" opacity="1"></circle><circle cx="255.998" cy="161.53" r="24.425" style="stroke-width:15;stroke-linecap:round;stroke-linejoin:round;stroke-miterlimit:10;" fill="none" stroke="#3ba962" stroke-width="15" stroke-linecap="round" stroke-linejoin="round" stroke-miterlimit="10" data-original="#000000" opacity="1"></circle><circle cx="255.998" cy="33.263" r="24.425" style="stroke-width:15;stroke-linecap:round;stroke-linejoin:round;stroke-miterlimit:10;" fill="none" stroke="#3ba962" stroke-width="15" stroke-linecap="round" stroke-linejoin="round" stroke-miterlimit="10" data-original="#000000" opacity="1"></circle><path d="M267.106 503.159c11.256-5.723 16.377-19.261 11.454-31.12-5.172-12.459-19.467-18.36-31.926-13.188-12.459 5.172-18.373 19.461-13.201 31.92.307.739.647 1.453 1.019 2.143" style="stroke-width:15;stroke-linecap:round;stroke-linejoin:round;stroke-miterlimit:10;" fill="none" stroke="#3ba962" stroke-width="15" stroke-linecap="round" stroke-linejoin="round" stroke-miterlimit="10" data-original="#000000" opacity="1"></path><circle cx="255.998" cy="353.142" r="24.425" style="stroke-width:15;stroke-linecap:round;stroke-linejoin:round;stroke-miterlimit:10;" fill="none" stroke="#3ba962" stroke-width="15" stroke-linecap="round" stroke-linejoin="round" stroke-miterlimit="10" data-original="#000000" opacity="1"></circle></g></svg>