<svg xmlns="http://www.w3.org/2000/svg" version="1.1" xmlns:xlink="http://www.w3.org/1999/xlink" width="512" height="512" x="0" y="0" viewBox="0 0 512 512" style="enable-background:new 0 0 512 512" xml:space="preserve" class=""><g><path d="M255.482 335.413c-4.143 0-7.5 3.372-7.5 7.514s3.357 7.5 7.5 7.5 7.5-3.358 7.5-7.5v-.028c0-4.143-3.357-7.486-7.5-7.486zM195.789 346.058c-4.143 0-7.5 3.373-7.5 7.515s3.357 7.5 7.5 7.5 7.5-3.358 7.5-7.5v-.029c0-4.143-3.357-7.486-7.5-7.486zM316.211 347.177c-4.143 0-7.5 3.373-7.5 7.515s3.357 7.5 7.5 7.5 7.5-3.358 7.5-7.5v-.029c0-4.142-3.357-7.486-7.5-7.486z" fill="#3ba962" opacity="1" data-original="#000000"></path><path d="M465.775 380.763h-1.764v-88.508c0-4.142-3.357-7.5-7.5-7.5s-7.5 3.358-7.5 7.5v88.508h-22.343c-5.473-16.352-20.865-26.988-42.737-29.401-6.586-21.965-25.837-37.369-47.669-37.369-19.241 0-21.609-1.882-26.328-5.632a93.027 93.027 0 0 0-3.475-2.667c-16.736-12.132-30.039-18.421-42.96-20.15v-21.61l19.744-13.312c11.467 4.255 22.235 6.39 32.072 6.39 10.647 0 20.209-2.493 28.392-7.48 16.402-9.997 26.338-29.27 28.732-55.718.07-.761.888-8.529-1.188-11.596-1.972-2.948-9.52-5.214-10.349-5.467-25.592-7.641-47.263-5.576-62.671 5.97-14.705 11.019-22.74 30.154-23.384 55.471l-11.349 7.652v-62.677c21.68-15.393 33.597-33.551 34.512-52.704.955-19.958-9.925-39.782-31.437-57.308-.611-.502-6.82-5.724-10.575-5.724s-9.964 5.222-10.547 5.701c-21.543 17.539-32.427 37.357-31.477 57.313.912 19.158 12.833 37.322 34.523 52.722v62.677l-11.349-7.652c-.644-25.317-8.679-44.452-23.384-55.471-15.408-11.546-37.079-13.61-62.715-5.957-.785.24-8.265 2.405-10.305 5.454-2.075 3.067-1.258 10.835-1.188 11.582 2.413 26.477 12.358 45.752 28.762 55.743 8.177 4.98 17.728 7.469 28.367 7.469 9.836 0 20.604-2.135 32.068-6.389l19.744 13.312v21.61c-12.921 1.729-26.223 8.017-42.955 20.146a93.525 93.525 0 0 0-3.482 2.673c-4.716 3.749-7.083 5.63-26.296 5.63-21.861 0-41.113 15.403-47.676 37.369-21.884 2.413-37.284 13.049-42.76 29.401h-22.34v-88.508c0-4.142-3.357-7.5-7.5-7.5s-7.5 3.358-7.5 7.5v88.508h-1.764c-7.673 0-13.915 6.248-13.915 13.927v103.412c0 7.664 6.242 13.898 13.915 13.898h419.551c7.673 0 13.915-6.235 13.915-13.898V394.69c0-7.68-6.242-13.927-13.915-13.927zM307.229 194.724c11.453-8.581 28.529-9.826 49.341-3.614.362.11.706.213 1.033.31l-.1 1.022c-1.95 21.544-9.42 36.856-21.602 44.281-9.463 5.767-21.996 6.802-36.731 3.161l18.558-12.513a7.5 7.5 0 1 0-8.385-12.438l-18.625 12.558c2.082-14.948 7.675-26.146 16.511-32.767zM228.96 129.73c-.715-15.007 8.263-30.557 25.992-44.99.373-.307.722-.597 1.048-.87.329.276.685.572 1.074.892 17.697 14.418 26.673 29.974 25.955 44.984-.566 11.832-7.275 23.53-19.529 34.333v-25.334c0-4.142-3.357-7.5-7.5-7.5s-7.5 3.358-7.5 7.5v25.334c-12.263-10.81-18.976-22.513-19.54-34.349zm-52.838 107c-12.183-7.42-19.661-22.736-21.627-44.308-.033-.351-.065-.685-.098-1.003.318-.094.649-.193.989-.297 20.857-6.225 37.933-4.98 49.385 3.601 8.836 6.621 14.429 17.819 16.51 32.768l-18.625-12.558a7.5 7.5 0 0 0-8.385 12.438l18.558 12.513c-14.725 3.639-27.248 2.606-36.707-3.154zm-41.71 129.184a7.5 7.5 0 0 0 7.039-6.095c3.387-17.862 17.818-30.826 34.315-30.826 23.312 0 28.488-3.211 35.629-8.887.923-.733 1.876-1.491 2.949-2.268 32.703-23.708 50.61-23.706 83.315.003a79.18 79.18 0 0 1 2.941 2.262c7.144 5.677 12.322 8.889 35.661 8.889 16.473 0 30.905 12.968 34.317 30.836a7.499 7.499 0 0 0 7.036 6.085c6.291.278 24.661 2.208 32.554 14.849H101.832c7.898-12.641 26.284-14.57 32.58-14.848zM464.69 497H47.31V395.763h417.38z" fill="#3ba962" opacity="1" data-original="#000000"></path><path d="M55.488 264.719a7.5 7.5 0 0 0 7.5-7.5v-49.726C62.988 101.352 149.573 15 256 15s193.012 86.352 193.012 192.494v50.558c0 4.142 3.357 7.5 7.5 7.5s7.5-3.358 7.5-7.5v-50.558c0-55.213-21.698-107.263-61.099-146.561C363.519 21.64 311.344 0 256 0S148.481 21.64 109.087 60.933c-39.4 39.298-61.099 91.348-61.099 146.561v49.726a7.5 7.5 0 0 0 7.5 7.499zM379.989 438.896h-14.585c-4.143 0-7.5 3.358-7.5 7.5s3.357 7.5 7.5 7.5h14.585c4.143 0 7.5-3.358 7.5-7.5s-3.357-7.5-7.5-7.5zM214.114 417.72c-15.826 0-28.702 12.864-28.702 28.676s12.876 28.676 28.702 28.676c15.842 0 28.73-12.864 28.73-28.676s-12.888-28.676-28.73-28.676zm0 42.351c-7.556 0-13.702-6.135-13.702-13.676s6.146-13.676 13.702-13.676c7.571 0 13.73 6.135 13.73 13.676s-6.158 13.676-13.73 13.676zM297.886 417.72c-15.842 0-28.73 12.864-28.73 28.676s12.889 28.676 28.73 28.676c15.826 0 28.702-12.864 28.702-28.676s-12.876-28.676-28.702-28.676zm0 42.351c-7.571 0-13.73-6.135-13.73-13.676s6.159-13.676 13.73-13.676c7.556 0 13.702 6.135 13.702 13.676s-6.147 13.676-13.702 13.676zM429.441 438.896h-14.585c-4.143 0-7.5 3.358-7.5 7.5s3.357 7.5 7.5 7.5h14.585c4.143 0 7.5-3.358 7.5-7.5s-3.357-7.5-7.5-7.5zM97.144 438.896H82.559c-4.143 0-7.5 3.358-7.5 7.5s3.357 7.5 7.5 7.5h14.585a7.5 7.5 0 0 0 0-15zM146.596 438.896h-14.585c-4.143 0-7.5 3.358-7.5 7.5s3.357 7.5 7.5 7.5h14.585a7.5 7.5 0 0 0 0-15z" fill="#3ba962" opacity="1" data-original="#000000"></path></g></svg>