<svg xmlns="http://www.w3.org/2000/svg" version="1.1" xmlns:xlink="http://www.w3.org/1999/xlink" width="512" height="512" x="0" y="0" viewBox="0 0 64 64" style="enable-background:new 0 0 512 512" xml:space="preserve" class=""><g><path d="M61 56h-2V20h1a1 1 0 0 0 1-1v-4a1 1 0 0 0-1-1H47V8h2a1 1 0 0 0 1-1V3a1 1 0 0 0-1-1H15a1 1 0 0 0-1 1v4a1 1 0 0 0 1 1h2v6H4a1 1 0 0 0-1 1v4a1 1 0 0 0 1 1h1v36H3a1 1 0 0 0-1 1v4a1 1 0 0 0 1 1h58a1 1 0 0 0 1-1v-4a1 1 0 0 0-1-1zm-2-40v2H47v-2zm-2 4v36H47V20zM16 6V4h32v2zm24 36H24a1 1 0 0 0-1 1v13h-4V8h26v48h-4V43a1 1 0 0 0-1-1zm-1 2v12h-6V44zm-8 0v12h-6V44zM5 16h12v2H5zm12 4v36H7V20zm43 40H4v-2h56z" fill="#3ba962" opacity="1" data-original="#000000"></path><path d="M22 40h4a1 1 0 0 0 1-1v-4a1 1 0 0 0-1-1h-4a1 1 0 0 0-1 1v4a1 1 0 0 0 1 1zm1-4h2v2h-2zM34 34h-4a1 1 0 0 0-1 1v4a1 1 0 0 0 1 1h4a1 1 0 0 0 1-1v-4a1 1 0 0 0-1-1zm-1 4h-2v-2h2zM38 40h4a1 1 0 0 0 1-1v-4a1 1 0 0 0-1-1h-4a1 1 0 0 0-1 1v4a1 1 0 0 0 1 1zm1-4h2v2h-2zM22 32h4a1 1 0 0 0 1-1v-4a1 1 0 0 0-1-1h-4a1 1 0 0 0-1 1v4a1 1 0 0 0 1 1zm1-4h2v2h-2zM34 26h-4a1 1 0 0 0-1 1v4a1 1 0 0 0 1 1h4a1 1 0 0 0 1-1v-4a1 1 0 0 0-1-1zm-1 4h-2v-2h2zM38 32h4a1 1 0 0 0 1-1v-4a1 1 0 0 0-1-1h-4a1 1 0 0 0-1 1v4a1 1 0 0 0 1 1zm1-4h2v2h-2zM28.649 21.937a1 1 0 0 0 1.288-.586L30.443 20h3.114l.506 1.351A1 1 0 0 0 35 22a1.038 1.038 0 0 0 .352-.063 1 1 0 0 0 .585-1.288l-3-8a1 1 0 0 0-1.874 0l-3 8a1 1 0 0 0 .586 1.288zM32 15.848 32.807 18h-1.614zM43 15a3.009 3.009 0 0 0-3-3h-2a1 1 0 0 0-1 1v8a1 1 0 0 0 1 1h2a3.009 3.009 0 0 0 3-3 2.974 2.974 0 0 0-.78-2 2.974 2.974 0 0 0 .78-2zm-3 5h-1v-2h1a1 1 0 0 1 0 2zm0-4h-1v-2h1a1 1 0 0 1 0 2zM22 22h4a1 1 0 0 0 0-2h-3v-7a1 1 0 0 0-2 0v8a1 1 0 0 0 1 1zM50 44h4a1 1 0 0 0 1-1v-4a1 1 0 0 0-1-1h-4a1 1 0 0 0-1 1v4a1 1 0 0 0 1 1zm1-4h2v2h-2zM50 52h4a1 1 0 0 0 1-1v-4a1 1 0 0 0-1-1h-4a1 1 0 0 0-1 1v4a1 1 0 0 0 1 1zm1-4h2v2h-2zM14 38h-4a1 1 0 0 0-1 1v4a1 1 0 0 0 1 1h4a1 1 0 0 0 1-1v-4a1 1 0 0 0-1-1zm-1 4h-2v-2h2zM14 46h-4a1 1 0 0 0-1 1v4a1 1 0 0 0 1 1h4a1 1 0 0 0 1-1v-4a1 1 0 0 0-1-1zm-1 4h-2v-2h2zM14 30h-4a1 1 0 0 0-1 1v4a1 1 0 0 0 1 1h4a1 1 0 0 0 1-1v-4a1 1 0 0 0-1-1zm-1 4h-2v-2h2zM14 21h-4a1 1 0 0 0-1 1v4a1 1 0 0 0 1 1h4a1 1 0 0 0 1-1v-4a1 1 0 0 0-1-1zm-1 4h-2v-2h2zM50 36h4a1 1 0 0 0 1-1v-4a1 1 0 0 0-1-1h-4a1 1 0 0 0-1 1v4a1 1 0 0 0 1 1zm1-4h2v2h-2zM50 28h4a1 1 0 0 0 1-1v-4a1 1 0 0 0-1-1h-4a1 1 0 0 0-1 1v4a1 1 0 0 0 1 1zm1-4h2v2h-2z" fill="#3ba962" opacity="1" data-original="#000000"></path></g></svg>