<svg width="450" height="563" viewBox="0 0 450 563" fill="none" xmlns="http://www.w3.org/2000/svg">
<g clip-path="url(#clip0_736_9)">
<path d="M299.422 504.26V552.953C299.422 558.064 295.278 562.208 290.168 562.208C285.057 562.208 280.913 558.064 280.913 552.953V504.26C280.913 499.149 285.057 495.006 290.168 495.006C295.278 495.006 299.422 499.149 299.422 504.26ZM159.826 495.006C154.715 495.006 150.571 499.149 150.571 504.26V552.953C150.571 558.064 154.715 562.208 159.826 562.208C164.936 562.208 169.08 558.064 169.08 552.953V504.26C169.08 499.149 164.936 495.006 159.826 495.006ZM449.995 170.813V522.885C449.995 527.995 445.852 532.139 440.741 532.139C435.63 532.139 431.486 527.995 431.486 522.885V462.091C431.486 442.658 414.132 426.849 392.802 426.849H323.319C320.322 426.849 317.365 427.168 314.499 427.785C338.554 440.533 354.84 464.722 354.84 492.422V552.953C354.84 558.064 350.696 562.208 345.586 562.208C340.475 562.208 336.331 558.064 336.331 552.953V492.422C336.331 461.707 309.122 436.719 275.675 436.719H251.035C251.181 440.766 250.414 444.747 248.902 447.369C247.764 449.356 246.296 451.175 244.58 452.755L258.555 531.365C259.143 534.669 257.897 538.032 255.297 540.155L230.835 560.124C229.132 561.515 227.057 562.21 224.983 562.21C222.908 562.21 220.833 561.515 219.129 560.124L194.667 540.155C192.068 538.032 190.821 534.667 191.41 531.362L205.413 452.768C203.678 451.18 202.198 449.35 201.051 447.347C199.555 444.698 198.805 440.736 198.953 436.719H174.321C140.859 436.719 113.634 461.707 113.634 492.422V552.953C113.634 558.064 109.491 562.208 104.38 562.208C99.269 562.208 95.1253 558.064 95.1253 552.953V492.422C95.1253 464.724 111.414 440.537 135.476 427.788C132.604 427.169 129.642 426.849 126.644 426.849H57.1937C35.8633 426.849 18.5089 442.659 18.5089 462.091V522.885C18.5089 527.995 14.3652 532.139 9.25445 532.139C4.14368 532.139 0 527.995 0 522.885V170.813C0 166.624 2.81335 162.957 6.85986 161.873L108.307 134.692V55.5869C108.307 50.4761 112.451 46.3324 117.562 46.3324H141.951V9.25445C141.951 4.14368 146.094 0 151.205 0H298.763C303.873 0 308.017 4.14368 308.017 9.25445V46.3324H332.406C337.517 46.3324 341.66 50.4761 341.66 55.5869V134.692L443.14 161.874C447.185 162.958 450 166.624 450 170.814L449.995 170.813ZM393.515 358.177C393.515 338.618 377.602 322.705 358.044 322.705C338.486 322.705 322.604 338.618 322.604 358.177C322.604 379.006 333.6 408.339 358.044 408.339C382.489 408.339 393.515 379.006 393.515 358.177ZM160.456 46.3324H289.505V18.5089H160.456V46.3324ZM127.388 358.177C127.388 338.618 111.474 322.705 91.9164 322.705C72.3582 322.705 56.4441 338.618 56.4441 358.177C56.4441 379.006 67.4499 408.339 91.9164 408.339C116.383 408.339 127.388 379.006 127.388 358.177ZM54.3699 408.406C43.5723 395.085 37.9351 376.328 37.9351 358.177C37.9351 328.413 62.1517 304.196 91.9164 304.196C97.6287 304.196 103.133 305.095 108.304 306.747V153.853L18.5054 177.913V422.542C28.0491 414.289 40.5738 409.039 54.3699 408.406ZM280.947 340.797C280.947 309.938 255.84 284.832 224.98 284.832C194.12 284.832 169.015 309.938 169.015 340.797C169.015 359.082 174.265 378.517 183.06 392.789C193.452 409.656 207.558 418.209 224.98 418.209C265.752 418.209 280.947 370.726 280.947 340.797ZM231.704 436.718H218.292C217.942 436.718 217.665 436.753 217.454 436.8C217.391 437.395 217.381 438.108 217.433 438.62C217.895 439.186 218.609 439.731 219.385 440.083C223.243 441.828 225.423 445.969 224.681 450.138L210.583 529.253L224.979 541.006L239.378 529.252L225.311 450.134C224.571 445.966 226.751 441.827 230.608 440.083C231.376 439.736 232.068 439.199 232.544 438.597C232.596 438.093 232.584 437.391 232.522 436.797C232.316 436.752 232.046 436.718 231.701 436.718H231.704ZM288.87 419.259C298.022 412.723 309.032 408.936 320.521 408.406C309.729 395.085 304.095 376.326 304.095 358.176C304.095 341.718 311.504 326.967 323.148 317.057V64.8413H126.813V317.041C138.476 326.951 145.896 341.71 145.896 358.178C145.896 373.473 141.425 389.855 133.936 402.002C132.525 404.291 131 406.415 129.392 408.405C140.89 408.926 151.926 412.717 161.114 419.261C165.412 418.582 169.818 418.21 174.319 418.21H179.697C175.152 413.747 171.003 408.508 167.302 402.5C156.785 385.433 150.506 362.367 150.506 340.799C150.506 299.733 183.915 266.325 224.98 266.325C266.046 266.325 299.456 299.733 299.456 340.799C299.456 363.242 293.124 386.067 282.085 403.424C278.509 409.046 274.538 413.978 270.214 418.21H275.674C280.17 418.21 284.574 418.581 288.87 419.259ZM431.488 422.542V177.913L341.658 153.852V306.749C346.829 305.096 352.333 304.195 358.045 304.195C387.81 304.195 412.025 328.41 412.025 358.176C412.025 376.326 406.39 395.084 395.592 408.405C409.401 409.032 421.936 414.284 431.488 422.542ZM232.778 157.367V103.296C232.778 98.1851 236.922 94.0414 242.033 94.0414H298.76C303.871 94.0414 308.015 98.1851 308.015 103.296V157.367C308.015 162.478 303.871 166.622 298.76 166.622H242.033C236.922 166.622 232.778 162.478 232.778 157.367ZM251.287 148.113H289.506V112.55H251.287V148.113ZM217.186 103.296V157.367C217.186 162.478 213.042 166.622 207.931 166.622H151.204C146.093 166.622 141.949 162.478 141.949 157.367V103.296C141.949 98.1851 146.093 94.0414 151.204 94.0414H207.931C213.042 94.0414 217.186 98.1851 217.186 103.296ZM198.677 112.55H160.458V148.113H198.677V112.55ZM298.761 252.139H242.034C236.923 252.139 232.78 247.995 232.78 242.884V188.813C232.78 183.702 236.923 179.558 242.034 179.558H298.761C303.872 179.558 308.016 183.702 308.016 188.813V242.884C308.016 247.995 303.872 252.139 298.761 252.139ZM289.507 198.067H251.288V233.63H289.507V198.067ZM217.186 188.813V242.884C217.186 247.995 213.042 252.139 207.931 252.139H151.204C146.093 252.139 141.949 247.995 141.949 242.884V188.813C141.949 183.702 146.093 179.558 151.204 179.558H207.931C213.042 179.558 217.186 183.702 217.186 188.813ZM198.677 198.067H160.458V233.63H198.677V198.067ZM421.01 206.061V260.1C421.01 265.211 416.867 269.354 411.756 269.354H361.39C356.279 269.354 352.135 265.211 352.135 260.1V206.061C352.135 200.95 356.279 196.806 361.39 196.806H411.756C416.867 196.806 421.01 200.95 421.01 206.061ZM402.502 215.315H370.644V250.845H402.502V215.315ZM38.2394 269.354C33.1286 269.354 28.9849 265.211 28.9849 260.1V206.061C28.9849 200.95 33.1286 196.806 38.2394 196.806H88.5732C93.684 196.806 97.8276 200.95 97.8276 206.061V260.1C97.8276 265.211 93.684 269.354 88.5732 269.354H38.2394ZM47.4938 250.845H79.3187V215.315H47.4938V250.845Z" fill="#3BA962"/>
</g>
<defs>
<clipPath id="clip0_736_9">
<rect width="450" height="563" fill="white"/>
</clipPath>
</defs>
</svg>
