<svg xmlns="http://www.w3.org/2000/svg" version="1.1" xmlns:xlink="http://www.w3.org/1999/xlink" width="512" height="512" x="0" y="0" viewBox="0 0 32 32" style="enable-background:new 0 0 512 512" xml:space="preserve" class=""><g><path d="M30 9.71h-2c-.55 0-1 .45-1 1s.45 1 1 1h2c.55 0 1-.45 1-1s-.45-1-1-1zM27 7.21c.17 0 .34-.04.5-.13l1.73-1c.48-.28.64-.89.37-1.37a1.01 1.01 0 0 0-1.37-.37l-1.73 1c-.48.28-.64.89-.37 1.37.19.32.52.5.87.5zM29.23 15.34l-1.73-1c-.48-.28-1.09-.11-1.37.37s-.11 1.09.37 1.37l1.73 1c.16.09.33.13.5.13a1.002 1.002 0 0 0 .5-1.87zM5 10.71c0-.55-.45-1-1-1H2c-.55 0-1 .45-1 1s.45 1 1 1h2c.55 0 1-.45 1-1zM2.77 6.07l1.73 1c.16.09.33.13.5.13a1.002 1.002 0 0 0 .5-1.87l-1.73-1c-.48-.28-1.09-.11-1.37.37s-.11 1.09.37 1.37zM5.87 14.71a1.01 1.01 0 0 0-1.37-.37l-1.73 1c-.48.28-.64.89-.37 1.37.19.32.52.5.87.5.17 0 .34-.04.5-.13l1.73-1c.48-.28.64-.89.37-1.37zM21 10.71c0-.08 0-.15-.02-.19-.02-.44-.32-.82-.74-.93a2.977 2.977 0 0 1-2.23-2.78c-.02-.44-.32-.82-.74-.93-.46-.12-.87-.18-1.27-.18-2.76 0-5 2.24-5 5s2.24 5 5 5 5-2.24 5-5zm-8 0c0-1.65 1.35-3 3-3h.11a4.938 4.938 0 0 0 2.84 3.54A3.006 3.006 0 0 1 16 13.7c-1.65 0-3-1.35-3-3z" fill="#3ba962" opacity="1" data-original="#000000" class=""></path><path d="M25.59 22.2A.977.977 0 0 0 25 22h-5.5v-3.12l3.97-2.23A3.01 3.01 0 0 0 25 14.03V7.37c0-1.08-.59-2.08-1.53-2.61l-6-3.38c-.91-.51-2.03-.51-2.94 0l-6 3.38C7.59 5.29 7 6.29 7 7.37v6.66c0 1.08.59 2.09 1.53 2.61l3.97 2.23v3.12H7c-.21 0-.42.07-.59.2l-2 1.48a1.003 1.003 0 0 0 .6 1.81c.21 0 .41-.06.59-.2L7.34 24h5.17v2H9.2c-.25 0-.49.09-.67.26l-2.19 2a.988.988 0 0 0-.06 1.41.996.996 0 0 0 1.41.07L9.59 28h2.92c0 1.65 1.35 3 3 3h1c1.65 0 3-1.35 3-3h2.92l1.9 1.74a.996.996 0 0 0 1.41-.07c.37-.41.34-1.04-.06-1.41l-2.19-2a.971.971 0 0 0-.67-.26h-3.31v-2h5.17l1.74 1.28c.18.13.39.2.59.2a1.005 1.005 0 0 0 .6-1.81l-2-1.48zM9 14.03V7.37c0-.36.2-.69.51-.87l6-3.38c.15-.08.32-.13.49-.13s.34.04.49.13l6 3.38c.31.18.51.51.51.87v6.66c0 .36-.19.7-.51.87l-6 3.38c-.3.17-.68.17-.98 0l-6-3.38c-.31-.18-.51-.51-.51-.87zm5.53 5.99c.45.26.96.38 1.47.38s1.02-.13 1.47-.38l.03-.02v3.99h-3V20zM17.5 28c0 .55-.45 1-1 1h-1c-.55 0-1-.45-1-1v-2h3z" fill="#3ba962" opacity="1" data-original="#000000" class=""></path></g></svg>