<svg width="450" height="451" viewBox="0 0 450 451" fill="none" xmlns="http://www.w3.org/2000/svg">
  <mask id="mask0_725_162" style="mask-type:luminance" maskUnits="userSpaceOnUse" x="0" y="0" width="450" height="451">
    <path d="M0 0.666992H450V450.667H0V0.666992Z" fill="white" />
  </mask>
  <g mask="url(#mask0_725_162)">
    <path
      d="M6.5918 100.862V46.7256C6.5918 41.8714 10.5275 37.9365 15.3809 37.9365H434.619C439.472 37.9365 443.408 41.8714 443.408 46.7256V368.177C443.408 373.03 439.472 376.966 434.619 376.966H344.531"
      stroke="#3ba962" stroke-width="11" stroke-miterlimit="10" stroke-linecap="round" stroke-linejoin="round" />
    <path d="M305.42 376.966H15.3809C10.5275 376.966 6.5918 373.031 6.5918 368.177V134.26" stroke="#3ba962"
      stroke-width="11" stroke-miterlimit="10" stroke-linecap="round" stroke-linejoin="round" />
    <path d="M416.445 245.883V64.8377H33.5552V350.067H304.102" stroke="#3ba962" stroke-width="11" stroke-miterlimit="10"
      stroke-linecap="round" stroke-linejoin="round" />
    <path d="M344.971 350.065H416.444V281.037" stroke="#3ba962" stroke-width="11" stroke-miterlimit="10"
      stroke-linecap="round" stroke-linejoin="round" />
    <path d="M85.4849 120.014H312.723" stroke="#3ba962" stroke-width="11" stroke-miterlimit="10" stroke-linecap="round"
      stroke-linejoin="round" />
    <path d="M85.4849 160.108H364.516" stroke="#3ba962" stroke-width="11" stroke-miterlimit="10" stroke-linecap="round"
      stroke-linejoin="round" />
    <path d="M85.4849 200.201H244.017" stroke="#3ba962" stroke-width="11" stroke-miterlimit="10" stroke-linecap="round"
      stroke-linejoin="round" />
    <path
      d="M94.8036 311.686C103.323 289.257 107.106 265.368 107.724 241.446C103.408 242.031 99.0918 242.614 94.7764 243.199C97.704 260.758 97.936 279.384 106.133 295.584C109.982 303.192 117.834 307.693 126.234 304.308C133.321 301.454 138.97 293.577 141.133 286.434H128.421C129.337 291.191 131.902 296.093 135.301 299.524C141.695 305.977 150.104 305.287 158.467 305.277C171.515 305.26 184.565 305.229 197.615 305.192C206.097 305.169 206.113 291.985 197.615 292.009C186.426 292.04 175.238 292.067 164.049 292.084C160.454 292.091 156.86 292.096 153.267 292.098C150.516 292.1 147.549 292.586 145.224 290.811C142.623 288.824 141.728 286.019 141.133 282.929C139.844 276.236 130.19 277.089 128.421 282.929C127.637 285.515 123.682 292.919 120.228 292.315C118.397 291.994 117.597 289.169 116.92 287.707C115.603 284.861 114.643 281.843 113.822 278.82C110.351 266.046 109.658 252.709 107.489 239.694C106.23 232.147 94.7254 234.28 94.5399 241.446C93.9502 264.272 90.2175 286.785 82.0911 308.181C79.0756 316.12 91.8162 319.553 94.8036 311.686Z"
      fill="#3ba962" />
    <path d="M343.553 308.808V413.397L324.657 404.608L305.76 413.397V308.808" stroke="#3ba962" stroke-width="11"
      stroke-miterlimit="10" stroke-linecap="round" stroke-linejoin="round" />
    <path
      d="M324.657 321.935C317.989 321.935 313.623 310.584 307.825 308.175C301.814 305.678 290.736 310.517 286.206 305.979C281.677 301.441 286.506 290.343 284.014 284.322C281.609 278.512 270.28 274.138 270.28 267.458C270.28 260.778 281.609 256.403 284.014 250.595C286.506 244.573 281.677 233.475 286.206 228.937C290.736 224.399 301.814 229.237 307.825 226.74C313.623 224.332 317.989 212.982 324.657 212.982C331.325 212.982 335.692 224.332 341.49 226.74C347.5 229.237 358.578 224.4 363.108 228.937C367.637 233.476 362.808 244.573 365.301 250.595C367.705 256.403 379.035 260.778 379.035 267.458C379.035 274.138 367.705 278.512 365.3 284.322C362.808 290.343 367.637 301.441 363.107 305.979C358.578 310.517 347.5 305.678 341.49 308.176C335.692 310.584 331.325 321.935 324.657 321.935Z"
      stroke="#3ba962" stroke-width="11" stroke-miterlimit="10" stroke-linecap="round" stroke-linejoin="round" />
    <path
      d="M343.813 267.459C343.813 278.039 335.237 286.614 324.657 286.614C314.079 286.614 305.502 278.039 305.502 267.459C305.502 256.88 314.079 248.304 324.657 248.304C335.237 248.304 343.813 256.88 343.813 267.459Z"
      stroke="#3ba962" stroke-width="11" stroke-miterlimit="10" stroke-linecap="round" stroke-linejoin="round" />
  </g>
</svg>