<svg xmlns="http://www.w3.org/2000/svg" version="1.1" xmlns:xlink="http://www.w3.org/1999/xlink" width="512" height="512" x="0" y="0" viewBox="0 0 511.481 511.481" style="enable-background:new 0 0 512 512" xml:space="preserve" class=""><g><path d="m297.664 293.893 3.213.602c4.065.756 7.989-1.919 8.753-5.991a7.5 7.5 0 0 0-5.991-8.753l-19.843-3.718a7.51 7.51 0 0 0-8.688 5.678l-4.56 19.666a7.5 7.5 0 1 0 14.613 3.388l.432-1.865 15.783 25.685c1.769 2.879.682 5.475.133 6.457-.55.983-2.192 3.269-5.572 3.269-4.143 0-7.5 3.357-7.5 7.5s3.357 7.5 7.5 7.5c7.854 0 14.831-4.093 18.664-10.947s3.667-14.941-.445-21.632zM264.186 326.046a7.501 7.501 0 0 0-10.604-.226 7.5 7.5 0 0 0-.226 10.604l1.808 1.887h-38.891c-3.395 0-5.036-2.3-5.584-3.289s-1.629-3.6.17-6.478l1.877-3.003a7.501 7.501 0 0 0-12.72-7.951l-1.877 3.004c-4.181 6.688-4.394 14.801-.57 21.699s10.816 11.018 18.704 11.018h38.89l-1.807 1.886a7.5 7.5 0 0 0 5.414 12.689 7.475 7.475 0 0 0 5.416-2.311L278.154 351a7.5 7.5 0 0 0 0-10.379zM210.644 304.766a7.502 7.502 0 0 0 8.688 5.678l19.842-3.718a7.5 7.5 0 0 0-2.763-14.744l-3.059.573 17.678-28.284c1.7-2.72 4.348-2.97 5.438-3.001 1.069.004 3.735.309 5.414 3.042l3.293 5.359a7.5 7.5 0 0 0 12.781-7.853l-3.293-5.359c-3.903-6.351-10.684-10.16-18.138-10.188h-.084c-7.422 0-14.195 3.753-18.131 10.051l-17.141 27.426-.472-2.036a7.5 7.5 0 1 0-14.612 3.389zM501.51 137.292l-32.113-84.863c-3.157-8.344-11.272-13.95-20.193-13.95h-78.469c-4.143 0-7.5 3.357-7.5 7.5s3.357 7.5 7.5 7.5h64.206v50.188a4.238 4.238 0 0 1-4.233 4.233h-33.702c-4.143 0-7.5 3.357-7.5 7.5s3.357 7.5 7.5 7.5h33.702c10.605 0 19.233-8.628 19.233-19.233V53.536c2.423.278 4.551 1.886 5.427 4.201l29.706 78.502h-72.24c-4.143 0-7.5 3.357-7.5 7.5s3.357 7.5 7.5 7.5h83.073l.026.002h.007a.55.55 0 0 1 .543.549v13.861a.551.551 0 0 1-.551.551h-83.094c-4.143 0-7.5 3.357-7.5 7.5s3.357 7.5 7.5 7.5h74.907l-3.687 42.065a7.5 7.5 0 0 0 14.943 1.31l3.95-45.069c5.053-2.571 8.531-7.81 8.531-13.858v-13.86c-.001-6.607-4.149-12.25-9.972-14.498z" fill="#3ba962" opacity="1" data-original="#000000" class=""></path><path d="M391.203 165.651V151.79c0-6.612-4.148-12.274-9.979-14.52l-32.105-84.842c-3.157-8.344-11.272-13.95-20.193-13.95h-83.571c-4.142 0-7.5 3.357-7.5 7.5s3.358 7.5 7.5 7.5h69.309v50.188a4.238 4.238 0 0 1-4.233 4.233h-109.49a4.238 4.238 0 0 1-4.233-4.233V53.479h16.685c4.142 0 7.5-3.357 7.5-7.5s-3.358-7.5-7.5-7.5h-30.854c-8.92 0-17.036 5.606-20.193 13.95l-32.105 84.842c-5.832 2.245-9.979 7.907-9.979 14.52v13.861c0 6.051 3.474 11.306 8.533 13.875l23.599 269.272c1.209 13.799 12.566 24.204 26.418 24.204h153.846c13.852 0 25.209-10.406 26.418-24.204l23.6-269.272c5.053-2.57 8.527-7.825 8.527-13.876zm-255.394.551a.552.552 0 0 1-.551-.552v-13.86c0-.304.247-.551.551-.551h239.844c.304 0 .551.247.551.551v13.86a.552.552 0 0 1-.551.552zm40.563-108.465c.865-2.284 2.949-3.886 5.333-4.194v50.124c0 10.605 8.628 19.233 19.233 19.233h109.49c10.605 0 19.233-8.628 19.233-19.233V53.536c2.424.278 4.551 1.887 5.427 4.201l29.706 78.502H146.666zm167.756 389.752a11.455 11.455 0 0 1-11.475 10.514H178.808a11.458 11.458 0 0 1-11.476-10.514l-23.338-266.287h223.471zM489.384 248.414a7.492 7.492 0 0 0-8.127 6.816l-16.85 192.258a11.458 11.458 0 0 1-11.476 10.515h-75.06c-4.143 0-7.5 3.357-7.5 7.5s3.357 7.5 7.5 7.5h75.06c13.851 0 25.209-10.405 26.419-24.205L496.2 256.54a7.5 7.5 0 0 0-6.816-8.126zM33.039 373.236a7.5 7.5 0 0 0 6.816-8.127L23.737 181.202h74.888c4.142 0 7.5-3.357 7.5-7.5s-3.358-7.5-7.5-7.5H15.551a.551.551 0 0 1-.551-.551V151.79a.55.55 0 0 1 .543-.549h.007l.026-.002h83.052c4.142 0 7.5-3.357 7.5-7.5s-3.358-7.5-7.5-7.5h-72.22l29.706-78.502c.865-2.285 2.948-3.886 5.333-4.194v50.124c0 10.605 8.628 19.233 19.233 19.233h33.775c4.142 0 7.5-3.357 7.5-7.5s-3.358-7.5-7.5-7.5H80.681a4.238 4.238 0 0 1-4.233-4.233V53.479h64.279c4.142 0 7.5-3.357 7.5-7.5s-3.358-7.5-7.5-7.5H62.279c-8.921 0-17.036 5.606-20.193 13.95L9.972 137.292C4.149 139.54 0 145.183 0 151.79v13.861c0 6.048 3.477 11.287 8.531 13.858L24.913 366.42a7.5 7.5 0 0 0 8.126 6.816zM133.589 458.003H58.55c-6.017 0-10.95-4.52-11.475-10.515l-4.428-50.523a7.5 7.5 0 1 0-14.942 1.311l4.428 50.522c1.208 13.799 12.565 24.205 26.417 24.205h75.04a7.5 7.5 0 1 0-.001-15z" fill="#3ba962" opacity="1" data-original="#000000" class=""></path></g></svg>