<svg xmlns="http://www.w3.org/2000/svg" version="1.1" xmlns:xlink="http://www.w3.org/1999/xlink" width="512" height="512" x="0" y="0" viewBox="0 0 512 512" style="enable-background:new 0 0 512 512" xml:space="preserve" class=""><g><path d="M437.25 352.05c-.82 11.78-1.22 24.36-1.01 37.66.11 6.87.38 13.54.77 19.98M322.44 352.05c.84 12.18 1.23 25.22.97 39.01-.01.28-.01.56-.02.84M226.5 254.78h87.65c3.87 0 7 3.13 7 7v30.27M283.08 152.41H226.5M435.54 224.57a96.534 96.534 0 0 1 2.98 23.84v43.64" style="stroke-width:15;stroke-linecap:round;stroke-linejoin:round;stroke-miterlimit:10;" fill="none" stroke="#3ba962" stroke-width="15" stroke-linecap="round" stroke-linejoin="round" stroke-miterlimit="10" data-original="#000000" opacity="1" class=""></path><path d="M361.384 352.053h-48.229a7 7 0 0 1-7-7v-46a7 7 0 0 1 7-7h133.37a7 7 0 0 1 7 7v46a7 7 0 0 1-7 7h-50.141M7.5 152.41h169.643M177.143 254.78H7.5M177.143 190.09v-45.68a7 7 0 0 1 7-7H219.5a7 7 0 0 1 7 7v118.37a7 7 0 0 1-7 7h-35.357a7 7 0 0 1-7-7v-37.69M7.5 390.794c41.415 0 41.415 20 82.831 20 41.416 0 41.416-20 82.832-20 41.415 0 41.415 20 82.831 20 41.417 0 41.417-20 82.833-20 41.418 0 41.418 20 82.837 20 41.419 0 41.419-20 82.837-20M7.5 469.5c41.415 0 41.415 20 82.831 20 41.416 0 41.416-20 82.832-20 41.415 0 41.415 20 82.831 20 41.417 0 41.417-20 82.833-20 41.418 0 41.418 20 82.837 20 41.419 0 41.419-20 82.837-20M217.243 446.42h0M338.301 438.471h0M467.919 433.58h0M68.671 443.363h0M7.5 7.5v497" style="stroke-width:15;stroke-linecap:round;stroke-linejoin:round;stroke-miterlimit:10;" fill="none" stroke="#3ba962" stroke-width="15" stroke-linecap="round" stroke-linejoin="round" stroke-miterlimit="10" data-original="#000000" opacity="1" class=""></path><ellipse cx="391.5" cy="120.491" rx="113" ry="112.991" style="stroke-width:15;stroke-linecap:round;stroke-linejoin:round;stroke-miterlimit:10;" fill="none" stroke="#3ba962" stroke-width="15" stroke-linecap="round" stroke-linejoin="round" stroke-miterlimit="10" data-original="#000000" opacity="1" class=""></ellipse><path d="M320.706 144.095a74.506 74.506 0 0 1-3.812-23.604c0-41.199 33.403-74.6 74.606-74.6 24.441 0 46.143 11.866 59.749 30.029M462.263 96.793a74.532 74.532 0 0 1 3.843 23.698c0 41.199-33.403 74.6-74.606 74.6-24.441 0-46.143-11.866-59.749-30.029" style="stroke-width:15;stroke-linecap:round;stroke-linejoin:round;stroke-miterlimit:10;" fill="none" stroke="#3ba962" stroke-width="15" stroke-linecap="round" stroke-linejoin="round" stroke-miterlimit="10" data-original="#000000" opacity="1" class=""></path><path d="M451.249 54.897V75.92h-21.024M331.751 186.084v-21.022h21.024" style="stroke-width:15;stroke-linecap:round;stroke-linejoin:round;stroke-miterlimit:10;" fill="none" stroke="#3ba962" stroke-width="15" stroke-linecap="round" stroke-linejoin="round" stroke-miterlimit="10" data-original="#000000" opacity="1" class=""></path></g></svg>