<svg width="450" height="465" viewBox="0 0 450 465" fill="none" xmlns="http://www.w3.org/2000/svg">
  <path d="M260.469 447.003H253.303V79.7686H414.841V444.279H407.673V86.9349H260.469V447.003Z" fill="#3ba962" />
  <path d="M385.783 132.09H282.362V113.561H385.784V132.09H385.783ZM289.529 124.924H378.617V120.727H289.529V124.924Z"
    fill="#3ba962" />
  <path d="M385.783 173.383H282.362V154.856H385.784V173.383H385.783ZM289.529 166.217H378.617V162.024H289.529V166.217Z"
    fill="#3ba962" />
  <path d="M385.783 214.68H282.362V196.15H385.784V214.68H385.783ZM289.529 207.513H378.617V203.317H289.529V207.513Z"
    fill="#3ba962" />
  <path d="M385.783 255.972H282.362V237.445H385.784V255.972H385.783ZM289.529 248.805H378.617V244.613H289.529V248.805Z"
    fill="#3ba962" />
  <path d="M385.783 297.268H282.362V278.738H385.784V297.268H385.783ZM289.529 290.101H378.617V285.905H289.529V290.101Z"
    fill="#3ba962" />
  <path d="M385.783 338.56H282.362V320.034H385.784V338.56H385.783ZM289.529 331.393H378.617V327.201H289.529V331.393Z"
    fill="#3ba962" />
  <path d="M385.783 379.857H282.362V361.327H385.784V379.857H385.783ZM289.529 372.689H378.617V368.493H289.529V372.689Z"
    fill="#3ba962" />
  <path d="M385.783 421.15H282.362V402.624H385.784V421.15H385.783ZM289.529 413.983H378.617V409.791H289.529V413.983Z"
    fill="#3ba962" />
  <path d="M260.468 447.003H253.302V7.16634H134.503V447.003H127.337V0H260.468V447.003Z" fill="#3ba962" />
  <path d="M186.665 55.6345H159.542V28.5107H186.665V55.6345ZM166.708 48.4672H179.497V35.6771H166.708V48.4672Z"
    fill="#3ba962" />
  <path d="M228.266 55.6345H201.144V28.5107H228.266V55.6345ZM208.311 48.4672H221.1V35.6771H208.311V48.4672Z"
    fill="#3ba962" />
  <path d="M186.665 106.887H159.542V79.7676H186.665V106.887ZM166.708 99.7209H179.497V86.9339H166.708V99.7209Z"
    fill="#3ba962" />
  <path d="M228.266 106.887H201.144V79.7676H228.266V106.887ZM208.311 99.7209H221.1V86.9339H208.311V99.7209Z"
    fill="#3ba962" />
  <path d="M186.665 158.146H159.542V131.026H186.665V158.146ZM166.708 150.98H179.497V138.193H166.708V150.98Z"
    fill="#3ba962" />
  <path d="M228.266 158.146H201.144V131.026H228.266V158.146ZM208.311 150.98H221.1V138.193H208.311V150.98Z"
    fill="#3ba962" />
  <path d="M186.665 209.405H159.542V182.281H186.665V209.405ZM166.708 202.239H179.497V189.449H166.708V202.239Z"
    fill="#3ba962" />
  <path d="M228.266 209.405H201.144V182.281H228.266V209.405ZM208.311 202.239H221.1V189.449H208.311V202.239Z"
    fill="#3ba962" />
  <path d="M186.665 260.665H159.542V233.541H186.665V260.665ZM166.708 253.498H179.497V240.708H166.708V253.498Z"
    fill="#3ba962" />
  <path d="M228.266 260.665H201.144V233.541H228.266V260.665ZM208.311 253.498H221.1V240.708H208.311V253.498Z"
    fill="#3ba962" />
  <path d="M186.665 311.923H159.542V284.799H186.665V311.923ZM166.708 304.756H179.497V291.966H166.708V304.756Z"
    fill="#3ba962" />
  <path d="M228.266 311.923H201.144V284.799H228.266V311.923ZM208.311 304.756H221.1V291.966H208.311V304.756Z"
    fill="#3ba962" />
  <path d="M186.665 363.182H159.542V336.059H186.665V363.182ZM166.708 356.016H179.497V343.226H166.708V356.016Z"
    fill="#3ba962" />
  <path d="M228.266 363.182H201.144V336.059H228.266V363.182ZM208.311 356.016H221.1V343.226H208.311V356.016Z"
    fill="#3ba962" />
  <path d="M186.665 414.44H159.542V387.316H186.665V414.44ZM166.708 407.274H179.497V394.484H166.708V407.274Z"
    fill="#3ba962" />
  <path d="M228.266 414.44H201.144V387.316H228.266V414.44ZM208.311 407.274H221.1V394.484H208.311V407.274Z"
    fill="#3ba962" />
  <path d="M134.504 447.003H127.338V164.051L30.9232 182.922V444.815H23.7559V177.023L134.504 155.344V447.003Z"
    fill="#3ba962" />
  <path d="M53.9482 202.239H130.921V209.406H53.9482V202.239Z" fill="#3ba962" />
  <path d="M53.9482 227.12H130.921V234.286H53.9482V227.12Z" fill="#3ba962" />
  <path d="M53.9482 252H130.921V259.167H53.9482V252Z" fill="#3ba962" />
  <path d="M53.9482 276.877H130.921V284.043H53.9482V276.877Z" fill="#3ba962" />
  <path d="M53.9482 301.758H130.921V308.924H53.9482V301.758Z" fill="#3ba962" />
  <path d="M53.9482 326.639H130.921V333.806H53.9482V326.639Z" fill="#3ba962" />
  <path d="M53.9482 351.519H130.921V358.686H53.9482V351.519Z" fill="#3ba962" />
  <path d="M53.9482 376.396H130.921V383.562H53.9482V376.396Z" fill="#3ba962" />
  <path d="M53.9482 401.277H130.921V408.445H53.9482V401.277Z" fill="#3ba962" />
  <path d="M450 464.254H0V439.982H65.3517V447.15H7.16634V457.088H442.833V447.15H386.548V439.982H450V464.254Z"
    fill="#3ba962" />
  <path d="M72.9551 439.982H92.4355V447.15H72.9551V439.982Z" fill="#3ba962" />
  <path d="M356.97 439.982H376.45V447.15H356.97V439.982Z" fill="#3ba962" />
  <path d="M198.393 439.982H308.581V447.15H198.393V439.982Z" fill="#3ba962" />
  <path d="M391.895 106.282H399.061V202.214H391.895V106.282Z" fill="#3ba962" />
  <path d="M391.895 208.793H399.061V221.958H391.895V208.793Z" fill="#3ba962" />
</svg>