<svg xmlns="http://www.w3.org/2000/svg" version="1.1" xmlns:xlink="http://www.w3.org/1999/xlink" width="512" height="512" x="0" y="0" viewBox="0 0 512 512" style="enable-background:new 0 0 512 512" xml:space="preserve" class=""><g><path d="M474.398 275.603h-124.25v-27.706a23.935 23.935 0 0 0 2.04-6.313l4.059-23.177c.883-5.04-.443-9.974-3.735-13.893-3.292-3.918-7.922-6.075-13.038-6.075h-41.502v-6.327c0-9-7.322-16.322-16.322-16.322h-51.299c-9 0-16.322 7.322-16.322 16.322v6.327h-41.502c-5.115 0-9.746 2.157-13.04 6.077-3.29 3.918-4.616 8.851-3.734 13.891l4.059 23.176a23.908 23.908 0 0 0 2.041 6.314v27.706H37.603a7 7 0 0 0-7 7c0 60.206 23.445 116.808 66.017 159.38s99.174 66.018 159.38 66.018 116.808-23.445 159.38-66.018c42.572-42.572 66.018-99.174 66.018-159.38a7 7 0 0 0-7-7zm-110.71 14c-.68 39.55-7.107 77.164-18.539 109.422-25.786-11.105-53.606-17.351-82.148-18.23v-38.854h65.097c12.159 0 22.05-9.892 22.05-22.051v-30.287zm-187.836-29.275a25.738 25.738 0 0 0 8.617 1.478h44.993c.46 5.681 5.222 10.167 11.021 10.167h31.034c5.799 0 10.561-4.486 11.021-10.167h44.992c3.019 0 5.922-.522 8.617-1.478v59.562c0 4.439-3.611 8.051-8.05 8.051H183.902c-4.439 0-8.05-3.611-8.05-8.051zm67.564-2.355v-6.334h25.168v6.334zM249 490.363c-25.365-3.213-49.279-23.824-67.968-58.874-3.282-6.156-6.335-12.632-9.152-19.389 24.195-10.496 50.314-16.418 77.119-17.299v95.561zm-80.321-52.287c11.98 22.468 26.161 39.653 41.722 50.961-33.904-7.483-64.782-23.119-90.452-44.754a211.19 211.19 0 0 1 39.275-26.182c2.915 6.949 6.067 13.621 9.455 19.974zm184.097-19.974a211.19 211.19 0 0 1 39.275 26.182c-25.67 21.635-56.548 37.271-90.452 44.754 15.562-11.308 29.742-28.493 41.722-50.961 3.388-6.353 6.54-13.026 9.455-19.974zm-21.809 13.388c-18.689 35.05-42.602 55.66-67.967 58.874v-95.561c26.805.881 52.924 6.803 77.119 17.299-2.817 6.757-5.869 13.233-9.152 19.389zM228.028 192.113c0-1.259 1.063-2.322 2.322-2.322h51.299c1.258 0 2.322 1.063 2.322 2.322v6.327h-55.942v-6.327zm-57.823 21.409c.646-.769 1.318-1.082 2.32-1.082h166.947c1.002 0 1.674.313 2.318 1.08.646.769.838 1.484.665 2.472l-4.059 23.178c-.862 4.924-5.534 8.637-10.867 8.637h-44.992c-.46-5.681-5.222-10.167-11.021-10.167h-31.034c-5.799 0-10.561 4.486-11.021 10.167h-44.993c-5.333 0-10.005-3.713-10.867-8.638l-4.059-23.176c-.173-.988.02-1.704.664-2.471zm13.696 128.419h65.098v38.854c-28.543.879-56.363 7.125-82.149 18.23-11.432-32.258-17.859-69.872-18.539-109.422h13.539v30.287c0 12.159 9.892 22.051 22.05 22.051zM44.716 289.603h89.593c.694 41.633 7.57 81.327 19.814 115.383a225.234 225.234 0 0 0-44.665 29.836c-38.391-36.972-62.882-88.281-64.743-145.219zM402.54 434.822a225.205 225.205 0 0 0-44.665-29.836c12.245-34.056 19.12-73.75 19.814-115.383h89.594c-1.86 56.938-26.352 108.247-64.743 145.219zM178.512 163.106h154.976a6.999 6.999 0 0 0 6.972-7.628c-1.892-21.001-11.516-40.451-27.098-54.77a84.621 84.621 0 0 0-30.297-17.925c10.331-8.07 16.992-20.631 16.992-34.726 0-24.293-19.764-44.058-44.057-44.058s-44.057 19.765-44.057 44.058c0 14.095 6.661 26.656 16.992 34.726a84.621 84.621 0 0 0-30.297 17.925c-15.583 14.318-25.206 33.77-27.098 54.77-.176 1.958.479 3.899 1.805 5.351s3.201 2.277 5.167 2.277zM256 18c16.574 0 30.057 13.483 30.057 30.058S272.574 78.116 256 78.116s-30.057-13.483-30.057-30.058S239.426 18 256 18zm0 74.365c34.292 0 62.899 23.903 69.42 56.741H186.58c6.521-32.838 35.128-56.741 69.42-56.741zm247.052 143.432c-1.578-17.512-9.602-33.731-22.596-45.671a70.584 70.584 0 0 0-23.156-14.185c7.762-6.849 12.671-16.859 12.671-27.999 0-20.594-16.754-37.348-37.347-37.348s-37.347 16.754-37.347 37.348c0 11.14 4.909 21.15 12.671 27.999a70.571 70.571 0 0 0-23.157 14.185c-12.994 11.939-21.018 28.159-22.596 45.671-.176 1.958.479 3.899 1.805 5.351s3.201 2.277 5.167 2.277H496.08a6.999 6.999 0 0 0 6.972-7.628zm-70.428-111.202c12.874 0 23.347 10.474 23.347 23.348s-10.473 23.347-23.347 23.347-23.347-10.474-23.347-23.347 10.474-23.348 23.347-23.348zm-55.284 104.83c5.789-25.517 28.347-43.931 55.284-43.931s49.494 18.414 55.283 43.931zm-229.341 11.723a7.003 7.003 0 0 0 1.805-5.351c-1.578-17.513-9.603-33.731-22.596-45.671a70.6 70.6 0 0 0-23.156-14.185c7.762-6.849 12.671-16.859 12.671-27.999 0-20.594-16.753-37.348-37.347-37.348s-37.347 16.754-37.347 37.348c0 11.14 4.909 21.15 12.671 27.999a70.557 70.557 0 0 0-23.156 14.185c-12.994 11.939-21.018 28.159-22.596 45.671-.176 1.958.479 3.899 1.805 5.351s3.201 2.277 5.167 2.277h126.913a6.999 6.999 0 0 0 5.167-2.277zM79.376 124.595c12.874 0 23.347 10.474 23.347 23.348S92.25 171.29 79.376 171.29s-23.347-10.474-23.347-23.347 10.473-23.348 23.347-23.348zm-55.283 104.83c5.789-25.517 28.347-43.931 55.283-43.931s49.494 18.414 55.284 43.931z" fill="#3ba962" opacity="1" data-original="#000000"></path></g></svg>