<svg width="450" height="450" viewBox="0 0 450 450" fill="none" xmlns="http://www.w3.org/2000/svg">
<g clip-path="url(#clip0_736_11)">
<path d="M43.5484 450C59.7484 450 73.8871 441.087 81.3847 427.928C104.647 426.477 133.614 416.656 165.716 399.194H167.436C171.029 427.79 195.445 450 225 450C254.555 450 278.971 427.79 282.564 399.194H284.284C319.493 418.34 350.419 428.11 374.545 428.11C391.231 428.11 404.681 423.457 414.073 414.065C435.687 392.451 432.508 350.666 405.356 296.129C410.509 290.896 413.71 283.725 413.71 275.806C413.71 259.795 400.689 246.774 384.677 246.774C382.006 246.774 379.466 247.253 377.006 247.935C371.889 240.329 366.474 232.686 360.74 225.029C401.516 170.586 425.642 119.04 427.965 81.3629C441.109 73.8581 450 59.7339 450 43.5484C450 19.5315 430.469 0 406.452 0C390.237 0 376.091 8.92016 368.601 22.1008C354.237 22.979 338.008 26.9855 320.473 33.7863C294.322 12.6944 261.131 0 225 0C188.819 0 155.584 12.7234 129.419 33.8661C88.1565 17.971 54.3919 17.4702 35.9274 35.9274C14.3129 57.5419 17.4919 99.3266 44.6444 153.864C39.4911 159.104 36.2903 166.275 36.2903 174.194C36.2903 190.205 49.3113 203.226 65.3226 203.226C70.5774 203.226 75.5855 201.803 79.9476 199.256C82.6621 207.726 86.0806 215.906 90.196 223.708C49.5073 277.672 24.4669 329.952 22.1008 368.601C8.92016 376.091 0 390.237 0 406.452C0 430.469 19.5315 450 43.5484 450ZM162.951 275.61C139.631 263.845 120.723 246.208 107.615 225C123.881 204.075 142.352 183.019 162.69 162.682C183.07 142.302 204.184 123.786 225.152 107.492C245.41 123.293 266.298 141.663 287.318 162.682C307.365 182.729 325.981 203.799 342.435 224.935C342.196 225.327 341.92 225.697 341.673 226.081C341.615 226.154 341.565 226.227 341.506 226.299L341.521 226.314C328.449 246.919 309.883 264.085 287.064 275.603C284.603 276.844 283.065 279.348 283.065 282.085V304.839H254.032V198.973L273.68 179.325L263.417 169.062L241.643 190.836C240.278 192.194 239.516 194.044 239.516 195.968V304.839H210.484V195.968C210.484 194.044 209.722 192.194 208.357 190.836L186.583 169.062L176.32 179.325L195.968 198.973V304.839H166.935V282.085C166.935 279.348 165.397 276.844 162.951 275.61ZM362.903 152.419C362.903 173.141 358.287 193.021 349.89 210.985C334.06 191.069 316.444 171.29 297.581 152.419C277.541 132.38 257.19 114.315 237.077 98.4411C265.224 77.6976 292.798 61.2944 317.671 50.5815C345.375 75.825 362.903 112.072 362.903 152.419ZM297.581 319.355L297.588 333.871H152.419V319.355H297.581ZM283.065 348.387V355.645H166.935V348.387H283.065ZM297.581 370.161L297.588 384.677H152.419V370.161H297.581ZM225 435.484C203.465 435.484 185.581 419.756 182.105 399.194H267.895C264.419 419.756 246.535 435.484 225 435.484ZM399.194 275.806C399.194 283.812 392.683 290.323 384.677 290.323C376.672 290.323 370.161 283.812 370.161 275.806C370.161 267.801 376.672 261.29 384.677 261.29C392.683 261.29 399.194 267.801 399.194 275.806ZM384.677 304.839C387.523 304.839 390.223 304.302 392.828 303.532C415.88 350.296 420.075 387.537 403.81 403.81C387.886 419.727 352.698 416.25 307.844 394.94C310.471 392.306 312.097 388.677 312.097 384.677V370.161C312.097 362.156 305.586 355.645 297.581 355.645V348.387C305.586 348.387 312.097 341.877 312.097 333.871V319.355C312.097 311.349 305.586 304.839 297.581 304.839V286.483C319.848 274.427 338.226 257.415 351.74 237.223C356.153 243.21 360.334 249.184 364.348 255.128C358.991 260.398 355.645 267.714 355.645 275.806C355.645 291.818 368.666 304.839 384.677 304.839ZM406.452 14.5161C422.463 14.5161 435.484 27.5371 435.484 43.5484C435.484 59.5597 422.463 72.5806 406.452 72.5806C390.44 72.5806 377.419 59.5597 377.419 43.5484C377.419 27.5371 390.44 14.5161 406.452 14.5161ZM406.452 87.0968C408.651 87.0968 410.792 86.879 412.904 86.5669C409.732 111.578 396.443 143.565 375.198 178.069C376.606 169.686 377.419 161.129 377.419 152.419C377.419 110.41 360.334 72.3194 332.753 44.7242C343.713 40.8774 354.048 38.1992 363.44 37.0234C363.121 39.1573 362.903 41.3274 362.903 43.5484C362.903 67.5653 382.435 87.0968 406.452 87.0968ZM225 14.5161C254.852 14.5161 282.433 24.1476 305.027 40.3331C279.878 51.8806 252.69 68.4436 225.007 89.2016C197.093 68.2984 169.89 51.8081 144.893 40.3911C167.502 24.1694 195.119 14.5161 225 14.5161ZM46.1903 46.1903C58.725 33.6556 84.1282 33.271 117.21 44.7605C91.0089 70.9911 74.475 106.744 72.8927 146.286C70.4323 145.619 67.9137 145.161 65.3226 145.161C62.4774 145.161 59.7774 145.698 57.1718 146.468C34.1202 99.704 29.9177 62.4629 46.1903 46.1903ZM65.3226 188.71C57.3169 188.71 50.8065 182.199 50.8065 174.194C50.8065 166.188 57.3169 159.677 65.3226 159.677C68.0226 159.677 70.6355 160.425 72.9 161.811C73.3573 169.36 74.3444 176.785 75.8686 184.043C73.1468 186.96 69.4016 188.71 65.3226 188.71ZM87.0968 152.419C87.0968 112.086 104.61 75.854 132.307 50.6177C156.513 60.9242 183.992 76.8629 213.09 98.3468C192.767 114.373 172.335 132.51 152.419 152.419C133.222 171.617 115.679 191.308 100.074 210.912C91.6984 192.97 87.0968 173.112 87.0968 152.419ZM98.296 237.281C111.81 257.444 130.173 274.442 152.419 286.483V304.839C144.414 304.839 137.903 311.349 137.903 319.355V333.871C137.903 341.877 144.414 348.387 152.419 348.387V355.645C144.414 355.645 137.903 362.156 137.903 370.161V384.677C137.903 388.662 139.522 392.277 142.127 394.904C121.34 404.782 102.498 410.923 86.5597 412.926C86.879 410.806 87.0968 408.658 87.0968 406.452C87.0968 382.435 67.5653 362.903 43.5484 362.903C41.3274 362.903 39.1573 363.121 37.0234 363.448C41.2548 329.625 63.7113 284.24 98.296 237.281ZM43.5484 377.419C59.5597 377.419 72.5806 390.44 72.5806 406.452C72.5806 422.463 59.5597 435.484 43.5484 435.484C27.5371 435.484 14.5161 422.463 14.5161 406.452C14.5161 390.44 27.5371 377.419 43.5484 377.419Z" fill="#3BA962"/>
</g>
<defs>
<clipPath id="clip0_736_11">
<rect width="450" height="450" fill="white"/>
</clipPath>
</defs>
</svg>
