<svg xmlns="http://www.w3.org/2000/svg" version="1.1" xmlns:xlink="http://www.w3.org/1999/xlink" width="512" height="512" x="0" y="0" viewBox="0 0 512 512" style="enable-background:new 0 0 512 512" xml:space="preserve" class=""><g><path d="M496 147.474h-14.524V85.056c0-27.729-58.139-42.237-115.57-42.237s-115.57 14.508-115.57 42.237v62.418h-3.573c-1.571-27.945-13.159-53.941-33.007-73.744-21.281-21.233-49.636-32.928-79.842-32.928a6.51 6.51 0 0 0-.242.004l-9.812.297V31.44c0-8.728-7.101-15.828-15.828-15.828H71.821c-8.199 0-14.959 6.268-15.748 14.263H16a8 8 0 0 0-8 8v95.557a8 8 0 0 0 8 8h40.073c.789 7.995 7.549 14.262 15.748 14.262h36.209c8.728 0 15.828-7.1 15.828-15.827v-9.659l10.11-.15c13.405.029 23.948 10.464 24.01 23.727l-.043 22.781L55.078 277.753a8.002 8.002 0 0 0-2.347 4.887c-15.236 6.814-24.825 15.895-24.825 27.156V454.15c0 27.729 58.139 42.237 115.57 42.237s115.57-14.508 115.57-42.237v-5.043h154.167a8 8 0 0 0 7.021-4.166l82.787-151.636a8.001 8.001 0 0 0 .979-3.834V155.474a8 8 0 0 0-8-8zm-57.366 0-20.217-24.438c19.015-3.282 35.652-8.448 47.058-15.429v39.867zm-72.729-88.656c64.425 0 99.57 17.332 99.57 26.237 0 6.801-20.519 18.508-58.901 23.665l-32.011-38.694a8.002 8.002 0 0 0-14.164 5.099v36.12c-60.915-.952-94.064-17.543-94.064-26.191 0-8.904 35.145-26.236 99.57-26.236zm21.466 51.791c-3.544.229-7.201.404-10.972.518v-13.78zm-121.036-3.002c21.219 12.988 60.554 19.686 99.57 19.686 11.411 0 22.848-.575 33.853-1.71l18.11 21.891H266.335zM24 45.875h31.994v79.557H24zm83.859 93.818H71.994V31.612h35.865zm50.034 59.359-.056 29.068a8 8 0 0 0 7.985 8.016h.016a8 8 0 0 0 8-7.984l.142-74.39c-.105-22.264-17.705-39.704-40.066-39.704l-.119.001-9.935.148V57.109l10.172-.308c53.199.063 96.665 43.44 96.917 96.73l.144 54.971a8 8 0 0 0 8 7.979h.021a8 8 0 0 0 7.979-8.021l-.118-44.988H426.5v37.681a8 8 0 0 0 16 0v-37.681h38.797L408.86 275.456H213.077c-15.457-3.993-33.537-6.491-52.183-7.449v-12.47l137.339-31.345v36.096a8 8 0 0 0 16 0v-46.127a8.003 8.003 0 0 0-3.012-6.255 8.013 8.013 0 0 0-6.768-1.545l-153.339 34.996a8 8 0 0 0-6.22 7.8v18.407c-.473-.002-.946-.006-1.418-.006-21.326 0-42.747 2.002-61.255 5.938zm-14.418 84.507c.48 0 .942.01 1.418.012v31.96a8 8 0 0 0 16 0V284c53.314 2.75 82.152 17.73 82.152 25.797 0 8.905-35.145 26.237-99.57 26.237s-99.57-17.332-99.57-26.237 35.145-26.238 99.57-26.238zm99.57 170.591c0 8.905-35.145 26.237-99.57 26.237s-99.57-17.332-99.57-26.237V332.347c21.219 12.988 60.554 19.686 99.57 19.686s78.351-6.698 99.57-19.686zm16-144.354c0-6.951-3.655-13.071-10.034-18.34h156.202v141.651H259.045zm162.168 99.963V285.818L488 182.57v104.86zM183.022 100.248a72.128 72.128 0 0 0-37.778-18.116 8.001 8.001 0 0 1-6.683-9.13c.675-4.365 4.761-7.352 9.129-6.683 17.283 2.675 33.235 10.325 46.132 22.124a8 8 0 0 1-5.403 13.903 7.972 7.972 0 0 1-5.397-2.098zm15.394 67.62-.083 43.167a8 8 0 0 1-8 7.984h-.016a8.001 8.001 0 0 1-7.985-8.016l.083-43.167a8 8 0 0 1 8-7.984h.016a8.001 8.001 0 0 1 7.985 8.016zm3.368-40.006a8 8 0 0 1 14.959-5.677c3.792 9.993 5.724 20.542 5.743 31.355l.024 14.364a8.001 8.001 0 0 1-7.986 8.014h-.014a8 8 0 0 1-8-7.986l-.024-14.364c-.015-8.877-1.597-17.525-4.702-25.706zm-21.817 10.464a47.664 47.664 0 0 0-13.438-20.413 8 8 0 0 1-.632-11.296 7.999 7.999 0 0 1 11.296-.632 63.694 63.694 0 0 1 17.952 27.278 8 8 0 0 1-7.59 10.533 8 8 0 0 1-7.588-5.47zm72.416 60.872a8 8 0 0 1 8-8c5.858 0 8.317-2.288 12.39-6.079 4.701-4.375 11.139-10.367 23.291-10.367s18.59 5.992 23.291 10.367c4.073 3.791 6.532 6.079 12.391 6.079 5.858 0 8.317-2.288 12.39-6.079 4.701-4.375 11.139-10.367 23.291-10.367s18.59 5.992 23.291 10.367c4.073 3.791 6.532 6.079 12.391 6.079a8 8 0 0 1 0 16c-12.152 0-18.59-5.992-23.291-10.367-4.073-3.791-6.532-6.079-12.39-6.079s-8.317 2.288-12.39 6.079c-4.701 4.375-11.139 10.367-23.291 10.367s-18.59-5.992-23.291-10.367c-4.073-3.791-6.532-6.079-12.391-6.079-5.858 0-8.317 2.288-12.39 6.079-4.701 4.375-11.139 10.367-23.291 10.367a8 8 0 0 1-8.001-8zm159.831 41.912a8 8 0 0 1-8 8c-12.152 0-18.59-5.991-23.291-10.366-4.073-3.791-6.532-6.079-12.391-6.079s-8.317 2.288-12.391 6.079c-4.701 4.375-11.139 10.366-23.291 10.366a8 8 0 0 1 0-16c5.859 0 8.317-2.288 12.391-6.079 4.701-4.375 11.139-10.366 23.291-10.366s18.59 5.991 23.291 10.366c4.073 3.791 6.532 6.079 12.391 6.079a8 8 0 0 1 8 8z" fill="#3ba962" opacity="1" data-original="#000000"></path></g></svg>