<svg id="Layer_1" enable-background="new 0 0 512 512" viewBox="0 0 512 512" xmlns="http://www.w3.org/2000/svg"><path d="m496 147.474h-14.524v-62.418c0-27.729-58.139-42.237-115.57-42.237s-115.57 14.508-115.57 42.237v62.418h-3.573c-1.571-27.945-13.159-53.941-33.007-73.744-21.281-21.233-49.636-32.928-79.842-32.928-.081 0-.161.001-.242.004l-9.812.297v-9.663c0-8.728-7.101-15.828-15.828-15.828h-36.211c-8.199 0-14.959 6.268-15.748 14.263h-40.073c-4.418 0-8 3.582-8 8v95.557c0 4.418 3.582 8 8 8h40.073c.789 7.995 7.549 14.262 15.748 14.262h36.209c8.728 0 15.828-7.1 15.828-15.827v-9.659l10.11-.15c13.405.029 23.948 10.464 24.01 23.727l-.043 22.781-102.857 101.187c-1.333 1.312-2.158 3.043-2.347 4.887-15.236 6.814-24.825 15.895-24.825 27.156v144.354c0 27.729 58.139 42.237 115.57 42.237s115.57-14.508 115.57-42.237v-5.043h154.167c2.926 0 5.619-1.598 7.021-4.166l82.787-151.636c.642-1.176.979-2.494.979-3.834v-133.997c0-4.418-3.582-8-8-8zm-57.366 0-20.217-24.438c19.015-3.282 35.652-8.448 47.058-15.429v39.867zm-72.729-88.656c64.425 0 99.57 17.332 99.57 26.237 0 6.801-20.519 18.508-58.901 23.665l-32.011-38.694c-2.151-2.599-5.701-3.569-8.874-2.428-3.174 1.144-5.29 4.154-5.29 7.527v36.12c-60.915-.952-94.064-17.543-94.064-26.191 0-8.904 35.145-26.236 99.57-26.236zm21.466 51.791c-3.544.229-7.201.404-10.972.518v-13.78zm-121.036-3.002c21.219 12.988 60.554 19.686 99.57 19.686 11.411 0 22.848-.575 33.853-1.71l18.11 21.891h-151.533zm-242.335-61.732h31.994v79.557h-31.994zm83.859 93.818h-35.865v-108.081h35.865zm50.034 59.359-.056 29.068c-.008 4.419 3.566 8.007 7.985 8.016h.016c4.411 0 7.991-3.572 8-7.984l.142-74.39c-.105-22.264-17.705-39.704-40.066-39.704-.04 0-.079 0-.119.001l-9.935.148v-57.098l10.172-.308c53.199.063 96.665 43.44 96.917 96.73l.144 54.971c.012 4.412 3.591 7.979 8 7.979h.021c4.418-.012 7.991-3.603 7.979-8.021l-.118-44.988h179.525v37.681c0 4.418 3.582 8 8 8s8-3.582 8-8v-37.681h38.797l-72.437 111.984h-195.783c-15.457-3.993-33.537-6.491-52.183-7.449v-12.47l137.339-31.345v36.096c0 4.418 3.582 8 8 8s8-3.582 8-8v-46.127c0-2.435-1.109-4.736-3.012-6.255-1.903-1.517-4.391-2.083-6.768-1.545l-153.339 34.996c-3.639.831-6.22 4.067-6.22 7.8v18.407c-.473-.002-.946-.006-1.418-.006-21.326 0-42.747 2.002-61.255 5.938zm-14.418 84.507c.48 0 .942.01 1.418.012v31.96c0 4.418 3.582 8 8 8s8-3.582 8-8v-31.531c53.314 2.75 82.152 17.73 82.152 25.797 0 8.905-35.145 26.237-99.57 26.237s-99.57-17.332-99.57-26.237 35.145-26.238 99.57-26.238zm99.57 170.591c0 8.905-35.145 26.237-99.57 26.237s-99.57-17.332-99.57-26.237v-121.803c21.219 12.988 60.554 19.686 99.57 19.686s78.351-6.698 99.57-19.686zm16-144.354c0-6.951-3.655-13.071-10.034-18.34h156.202v141.651h-146.168zm162.168 99.963v-123.941l66.787-103.248v104.86zm-238.191-309.511c-10.562-9.662-23.625-15.927-37.778-18.116-4.367-.676-7.358-4.764-6.683-9.13.675-4.365 4.761-7.352 9.129-6.683 17.283 2.675 33.235 10.325 46.132 22.124 3.26 2.982 3.485 8.042.502 11.303-1.578 1.725-3.738 2.6-5.905 2.6-1.928 0-3.862-.694-5.397-2.098zm15.394 67.62-.083 43.167c-.009 4.412-3.589 7.984-8 7.984-.005 0-.01 0-.016 0-4.418-.009-7.993-3.597-7.985-8.016l.083-43.167c.008-4.413 3.589-7.984 8-7.984h.016c4.418.009 7.993 3.597 7.985 8.016zm3.368-40.006c-1.567-4.131.51-8.751 4.641-10.318 4.131-1.566 8.75.511 10.318 4.641 3.792 9.993 5.724 20.542 5.743 31.355l.024 14.364c.007 4.418-3.568 8.006-7.986 8.014-.005 0-.009 0-.014 0-4.412 0-7.992-3.572-8-7.986l-.024-14.364c-.015-8.877-1.597-17.525-4.702-25.706zm-21.817 10.464c-2.611-7.829-7.258-14.888-13.438-20.413-3.294-2.944-3.577-8.002-.632-11.296s8.002-3.578 11.296-.632c8.253 7.378 14.461 16.812 17.952 27.278 1.398 4.191-.867 8.723-5.058 10.12-.84.28-1.693.413-2.532.413-3.349.001-6.47-2.118-7.588-5.47zm72.416 60.872c0-4.418 3.582-8 8-8 5.858 0 8.317-2.288 12.39-6.079 4.701-4.375 11.139-10.367 23.291-10.367s18.59 5.992 23.291 10.367c4.073 3.791 6.532 6.079 12.391 6.079 5.858 0 8.317-2.288 12.39-6.079 4.701-4.375 11.139-10.367 23.291-10.367s18.59 5.992 23.291 10.367c4.073 3.791 6.532 6.079 12.391 6.079 4.418 0 8 3.582 8 8s-3.582 8-8 8c-12.152 0-18.59-5.992-23.291-10.367-4.073-3.791-6.532-6.079-12.39-6.079s-8.317 2.288-12.39 6.079c-4.701 4.375-11.139 10.367-23.291 10.367s-18.59-5.992-23.291-10.367c-4.073-3.791-6.532-6.079-12.391-6.079-5.858 0-8.317 2.288-12.39 6.079-4.701 4.375-11.139 10.367-23.291 10.367-4.419 0-8.001-3.582-8.001-8zm159.831 41.912c0 4.418-3.582 8-8 8-12.152 0-18.59-5.991-23.291-10.366-4.073-3.791-6.532-6.079-12.391-6.079s-8.317 2.288-12.391 6.079c-4.701 4.375-11.139 10.366-23.291 10.366-4.418 0-8-3.582-8-8s3.582-8 8-8c5.859 0 8.317-2.288 12.391-6.079 4.701-4.375 11.139-10.366 23.291-10.366s18.59 5.991 23.291 10.366c4.073 3.791 6.532 6.079 12.391 6.079 4.418 0 8 3.582 8 8z"/></svg>