<svg width="450" height="372" viewBox="0 0 450 372" fill="none" xmlns="http://www.w3.org/2000/svg">
<g clip-path="url(#clip0_736_7)">
<path fill-rule="evenodd" clip-rule="evenodd" d="M225.17 85.281C225.17 81.7616 228.019 78.9061 231.545 78.9061L281.676 78.877C285.207 78.877 288.056 81.7265 288.056 85.2459C288.056 88.7703 285.207 91.6197 281.687 91.6318L231.545 91.6609C228.031 91.6609 225.17 88.8054 225.17 85.281ZM153.285 85.281C153.279 81.7616 156.14 78.9061 159.653 78.9061L209.796 78.877C213.309 78.877 216.159 81.7265 216.171 85.2459C216.171 88.7703 213.321 91.6197 209.796 91.6318L159.664 91.6609C156.14 91.6609 153.285 88.8054 153.285 85.281ZM225.17 61.1384C225.17 57.614 228.019 54.7525 231.545 54.7525L281.676 54.7294C285.207 54.7294 288.056 57.5788 288.056 61.1043C288.056 64.6227 285.207 67.4842 281.687 67.4842L231.545 67.5073C228.031 67.5073 225.17 64.6568 225.17 61.1384ZM153.285 61.1384C153.279 57.614 156.14 54.7525 159.653 54.7525L209.796 54.7294C213.309 54.7294 216.159 57.5788 216.171 61.1043C216.171 64.6227 213.321 67.4842 209.796 67.4842L159.664 67.5073C156.14 67.5073 153.285 64.6568 153.285 61.1384ZM225.17 36.9898C225.17 33.4654 228.019 30.6149 231.545 30.6039L281.676 30.5747C285.207 30.5747 288.056 33.4302 288.056 36.9546C288.056 40.4791 285.207 43.3295 281.687 43.3295L231.545 43.3586C228.031 43.3586 225.17 40.5092 225.17 36.9898ZM153.285 36.9898C153.279 33.4654 156.14 30.6149 159.653 30.6039L209.796 30.5747C213.309 30.5747 216.159 33.4302 216.171 36.9546C216.171 40.4791 213.321 43.3295 209.796 43.3295L159.664 43.3586C156.14 43.3586 153.285 40.5092 153.285 36.9898ZM329.649 162.041C335.568 162.041 340.5 158.326 341.636 153.001L347.486 125.582C347.549 125.635 347.619 125.71 347.705 125.784L372.344 148.686C373.849 150.076 373.82 152.621 373.538 154.507L367.417 194.779H320.396L299.859 162.041H329.649ZM289.013 154.68C286.112 158.851 285.794 163.581 288.136 167.342L308.852 200.547C311.748 205.185 315.504 207.533 320.009 207.533H367.619C373.861 207.533 379.058 203.05 379.999 196.889L386.148 156.415C387.204 149.453 385.381 143.383 381.026 139.333L356.387 116.437C347.983 108.627 337.002 113.559 335.308 121.52L329.395 149.285H299.299C295.134 149.286 291.379 151.253 289.013 154.68ZM437.041 218.719C437.462 215.985 437.451 212.263 435.073 210.048L404.285 181.441C403.233 180.457 402.696 180.089 401.678 180.616L394.069 216.29C392.811 222.192 387.296 226.316 380.645 226.316H342.726C341.929 226.316 341.627 226.811 341.307 227.498L366.834 268.405C367.746 269.858 368.391 270.39 368.61 270.39H428.075C428.75 270.39 429.264 269.94 429.362 269.288L437.041 218.719ZM443.756 200.709L412.962 172.096C403.342 163.153 391.129 168.922 389.27 177.617L381.655 213.343C381.471 213.447 381.113 213.562 380.646 213.562H342.727C331.819 213.562 325.176 225.73 330.14 233.689L356.024 275.162C359.319 280.458 363.558 283.145 368.611 283.145H385.653V340.407H351.283C347.758 340.407 344.908 343.268 344.908 346.782C344.908 350.306 347.758 353.162 351.283 353.162H432.79C436.303 353.162 439.165 350.306 439.165 346.782C439.165 343.268 436.303 340.407 432.79 340.407H398.408V283.145H428.077C435.085 283.145 440.924 278.116 441.973 271.198L449.652 220.64C450.892 212.471 448.792 205.393 443.756 200.709ZM77.6498 148.686L102.294 125.784C102.375 125.709 102.443 125.635 102.506 125.582L108.356 153.001C109.487 158.326 114.425 162.041 120.343 162.041H150.134L129.603 194.779H82.5763L76.4555 154.507C76.1723 152.621 76.1502 150.076 77.6498 148.686ZM69.9943 196.89C70.9344 203.051 76.1381 207.534 82.3794 207.534H129.984C134.494 207.534 138.245 205.186 141.14 200.548L161.856 167.343C166.378 160.087 160.386 149.286 150.699 149.286H120.598L114.679 121.521C112.976 113.548 102.002 108.634 93.6055 116.438L68.9668 139.334C64.6117 143.384 62.7877 149.453 63.8434 156.416L69.9943 196.89ZM320.713 283.232C322.525 281.478 322.034 280.654 321.561 279.863L257.89 173.965C256.546 171.726 252.479 169.454 246.422 169.454H194.907C188.861 169.454 184.794 171.727 183.45 173.965L119.779 279.863C119.306 280.654 118.816 281.478 120.616 283.232C122.889 285.442 126.76 286.704 131.247 286.704H310.091C314.575 286.704 318.451 285.442 320.713 283.232ZM271.822 358.613H263.376L248.273 314.972C247.379 312.399 244.968 310.68 242.239 310.68H199.099C196.376 310.68 193.958 312.399 193.065 314.972L177.956 358.613H169.517V299.459H271.821L271.822 358.613ZM268.822 167.394C264.859 160.8 256.28 156.698 246.422 156.698H194.907C185.06 156.698 176.481 160.8 172.518 167.394L108.847 273.298C105.052 279.627 106.147 286.93 111.72 292.365C116.421 296.945 123.35 299.461 131.247 299.461H156.769V364.994C156.769 368.519 159.618 371.369 163.144 371.369H182.498C185.215 371.369 187.639 369.65 188.521 367.083L203.635 323.436H237.706L252.809 367.083C253.703 369.65 256.126 371.369 258.843 371.369H278.198C281.722 371.369 284.578 368.52 284.578 364.994V299.461H310.093C317.991 299.461 324.919 296.946 329.615 292.365C335.187 286.931 336.289 279.627 332.482 273.298L268.822 167.394ZM145.814 26.8886V95.347C145.814 103.146 152.16 109.486 159.948 109.486H281.393C289.181 109.486 295.527 103.146 295.527 95.347V26.8886C295.527 19.0895 289.181 12.7498 281.393 12.7498H159.948C152.16 12.7498 145.814 19.0895 145.814 26.8886ZM159.948 122.236H281.393C296.219 122.236 308.282 110.179 308.282 95.347V26.8886C308.282 12.0567 296.219 0 281.393 0H159.948C145.128 0 133.065 12.0567 133.065 26.8886V95.347C133.065 110.179 145.128 122.236 159.948 122.236ZM20.6304 269.289C20.7338 269.941 21.242 270.391 21.9049 270.391H81.3811C81.6 270.391 82.2469 269.86 83.1578 268.406L108.685 227.499C108.364 226.812 108.063 226.317 107.265 226.317H69.3484C62.7024 226.317 57.1822 222.192 55.9247 216.291L48.3154 180.617C47.2849 180.085 46.7938 180.429 45.708 181.442L14.9194 210.049C12.543 212.264 12.5309 215.985 12.9518 218.72L20.6304 269.289ZM98.7119 340.407H64.3295V283.145H81.3821C86.4292 283.145 90.6637 280.457 93.9752 275.162L119.854 233.678C124.828 225.72 118.162 213.562 107.267 213.562H69.3484C68.8874 213.562 68.5238 213.447 68.339 213.343L60.7237 177.617C59.6279 172.506 55.3703 168.738 49.6021 167.781C45.1365 167.043 40.908 168.49 37.0321 172.096L6.2384 200.709C1.20237 205.393 -0.891789 212.471 0.348637 220.64L8.02722 271.198C9.07079 278.116 14.9154 283.145 21.9069 283.145H51.5807V340.407H17.2044C13.691 340.407 10.8295 343.268 10.8295 346.782C10.8295 350.306 13.691 353.162 17.2044 353.162H98.7119C102.225 353.162 105.086 350.306 105.086 346.782C105.086 343.267 102.225 340.407 98.7119 340.407Z" fill="#3BA962"/>
</g>
<defs>
<clipPath id="clip0_736_7">
<rect width="450" height="372" fill="white"/>
</clipPath>
</defs>
</svg>
