<svg width="600" height="123" viewBox="0 0 600 123" fill="none" xmlns="http://www.w3.org/2000/svg">
<g clip-path="url(#clip0_752_13)">
<path fill-rule="evenodd" clip-rule="evenodd" d="M97.4657 45.2991L67.0122 0L79.4685 51.2181L97.4657 45.2991ZM113.938 69.7616L98.5283 46.8719L79.9368 53.1211L87.6927 85.0154L113.938 69.7616ZM132.295 97.0275L115.007 71.3464L88.155 86.9243L96.8954 122.847L132.295 97.0275ZM18.8976 80.423L0 113.164L94.8604 122.757L86.1259 86.7803L18.9036 80.417L18.8976 80.423ZM36.7147 49.5493L19.9902 78.5321L85.6517 84.8473L77.9197 53.001L36.7207 49.5493H36.7147ZM65.1272 0.324165L37.8073 47.6583L77.4455 51.056L65.1272 0.324165Z" fill="#00A651"/>
<path d="M181.803 35.4551V43.9014H171.231V78.1428H161.098V43.9014H150.467V35.4551H181.803Z" fill="#00A651"/>
<path d="M196.067 35.4551V78.1428H186.09V35.4551H196.067Z" fill="#00A651"/>
<path d="M239.066 51.3451L228.591 51.9994C228.447 45.9723 226.094 42.9588 221.537 42.9588C216.315 42.9588 213.703 47.5992 213.703 56.8739C213.703 62.2346 214.412 65.8665 215.834 67.7755C217.257 69.6844 219.238 70.6389 221.789 70.6389C225.926 70.6389 228.453 67.9495 229.371 62.5708L239.066 63.1651C238.442 68.2737 236.539 72.1577 233.357 74.817C230.176 77.4764 226.286 78.8031 221.675 78.8031C216.027 78.8031 211.434 76.8521 207.898 72.9561C204.363 69.0601 202.598 63.6694 202.598 56.7898C202.598 50.3486 204.309 45.0719 207.724 40.9658C211.146 36.8597 215.816 34.8066 221.735 34.8066C231.995 34.8066 237.77 40.3235 239.06 51.3511L239.066 51.3451Z" fill="#00A651"/>
<path d="M275.312 43.5892H254.985V52.3477H270.966V60.3858H254.985V69.7025H275.312V78.1488H244.822V35.4551H275.312V43.5832V43.5892Z" fill="#00A651"/>
<path d="M291.45 69.7025H308.432V78.1488H281.316V35.4551H291.45V69.6965V69.7025Z" fill="#00A651"/>
<path d="M329.586 35.4531H349.474C353.04 35.4531 355.717 35.8913 357.512 36.7678C359.307 37.6442 360.784 38.8929 361.954 40.5197C363.119 42.1465 363.707 44.1215 363.707 46.4567C363.707 51.1871 361.144 54.3448 356.011 55.9236C358.971 56.5899 361.192 57.9166 362.675 59.8976C364.152 61.8786 364.896 64.0397 364.896 66.3749C364.896 69.5685 363.689 72.3239 361.27 74.6531C358.851 76.9823 354.919 78.1409 349.48 78.1409H329.592V35.4531H329.586ZM339.557 42.993V52.3457H347.127C349.9 52.3457 351.647 51.7995 352.368 50.7009C353.088 49.6083 353.448 48.5578 353.448 47.5553C353.448 46.4687 353.148 45.5383 352.554 44.7579C351.959 43.9775 351.305 43.4852 350.597 43.2871C349.888 43.089 348.49 42.993 346.406 42.993H339.557ZM339.557 59.9456V70.2349H347.235C349.858 70.2349 351.707 69.7786 352.788 68.8602C353.868 67.9417 354.409 66.663 354.409 65.0122C354.409 63.6375 353.886 62.4489 352.848 61.4464C351.809 60.4439 350.08 59.9456 347.667 59.9456H339.551H339.557Z" fill="#00A651"/>
<path d="M381.278 35.4531V78.1409H371.301V35.4531H381.278Z" fill="#00A651"/>
<path d="M405.874 78.8013C400.123 78.8013 395.675 76.6462 392.529 72.33C389.383 68.0138 387.811 62.7911 387.811 56.662C387.811 50.5329 389.401 45.2261 392.589 41.054C395.777 36.8819 400.321 34.7988 406.216 34.7988C412.111 34.7988 416.667 37.026 419.699 41.4742C422.73 45.9285 424.243 51.0191 424.243 56.752C424.243 62.9472 422.682 68.1698 419.555 72.42C416.427 76.6702 411.871 78.8013 405.868 78.8013H405.874ZM406.156 42.963C400.915 42.963 398.292 47.5733 398.292 56.788C398.292 66.0027 400.915 70.6431 406.156 70.6431C411.397 70.6431 413.774 66.0328 413.774 56.8181C413.774 47.6034 411.234 42.963 406.156 42.963Z" fill="#00A651"/>
<path d="M456.952 62.2868V78.1409H446.789V35.4531H463.616C467.368 35.4531 470.243 35.8553 472.23 36.6597C474.223 37.4641 476 38.8929 477.561 40.9579C479.122 43.023 479.908 45.5563 479.908 48.5578C479.908 50.6649 479.488 52.7179 478.659 54.7169C477.825 56.716 476.648 58.2948 475.123 59.4414C473.599 60.5879 472.128 61.3503 470.699 61.7225C469.271 62.0947 467.037 62.2868 463.994 62.2868H456.958H456.952ZM456.61 54.5309H463.117C465.597 54.5309 467.338 53.9606 468.34 52.808C469.343 51.6614 469.841 50.3467 469.841 48.87C469.841 47.1411 469.283 45.7664 468.166 44.7399C467.049 43.7193 465.357 43.2091 463.081 43.2091H456.61V54.5309Z" fill="#00A651"/>
<path d="M503.861 35.4531L517.223 78.1409H506.478L503.848 69.3524H490.047L487.37 78.1409H478.6L492.281 35.4531H503.861ZM492.437 61.4764H501.483L496.999 46.4988L492.437 61.4764Z" fill="#00A651"/>
<path d="M531.89 61.2243V78.1409H521.816V35.4531H540.582C544.04 35.4531 546.819 35.8553 548.914 36.6537C551.009 37.4521 552.744 38.9289 554.119 41.078C555.494 43.2271 556.184 45.6103 556.184 48.2336C556.184 53.3603 553.711 57.0341 548.77 59.2673L556.652 78.1409H545.601L539.045 61.2243H531.884H531.89ZM531.89 43.053V53.9365H538.019C540.018 53.9365 541.476 53.7985 542.383 53.5163C543.289 53.2342 544.1 52.6099 544.808 51.6374C545.516 50.6709 545.871 49.5603 545.871 48.3057C545.871 47.051 545.516 46.0545 544.808 45.1181C544.1 44.1816 543.325 43.5993 542.491 43.3832C541.657 43.1671 540.096 43.053 537.803 43.053H531.89Z" fill="#00A651"/>
<path d="M573.729 35.4531V55.5094L587.11 35.4531H596.679L586.426 50.6949L599.242 78.1409H588.233L579.714 59.6034L573.723 68.3499V78.1409H563.902V35.4531H573.723H573.729Z" fill="#00A651"/>
</g>
<defs>
<clipPath id="clip0_752_13">
<rect width="600" height="122.847" fill="white"/>
</clipPath>
</defs>
</svg>
