<svg width="520" height="59" viewBox="0 0 520 59" fill="none" xmlns="http://www.w3.org/2000/svg">
<g clip-path="url(#clip0_718_5)">
<path d="M97.7404 13.4551V19.3713H88.002V50.0003H80.672V19.3713H70.9336V13.4551H97.7404Z" fill="white"/>
<path d="M110.41 13.4551V50.0003H103.08V13.4551H110.41Z" fill="white"/>
<path d="M118.29 22.0146C119.913 19.1694 122.13 16.9543 124.939 15.365C127.749 13.7771 130.899 12.9824 134.391 12.9824C138.474 12.9824 142.053 14.0301 145.124 16.1242C148.195 18.2183 150.342 21.1166 151.564 24.8163H143.134C142.296 23.0719 141.119 21.7629 139.601 20.8894C138.082 20.0172 136.328 19.5804 134.339 19.5804C132.21 19.5804 130.315 20.0784 128.658 21.073C126.999 22.0677 125.708 23.4733 124.784 25.2884C123.859 27.1036 123.396 29.2331 123.396 31.6755C123.396 34.1179 123.859 36.2038 124.784 38.0367C125.708 39.8695 127.001 41.2833 128.658 42.2779C130.315 43.2726 132.21 43.7706 134.339 43.7706C136.328 43.7706 138.082 43.3257 139.601 42.4358C141.119 41.5459 142.298 40.2287 143.134 38.483H151.564C150.342 42.2181 148.204 45.1245 145.15 47.2009C142.095 49.2773 138.508 50.3155 134.391 50.3155C130.899 50.3155 127.749 49.5222 124.939 47.9329C122.13 46.345 119.913 44.1366 118.29 41.3091C116.666 38.4816 115.855 35.2704 115.855 31.6755C115.855 28.0806 116.666 24.8612 118.29 22.016V22.0146Z" fill="white"/>
<path d="M165.176 44.1888H177.218V50.0003H157.846V13.4551H165.176V44.1888Z" fill="white"/>
<path d="M220.15 34.3456C221.477 36.0206 222.139 37.9406 222.139 40.1054C222.139 42.0607 221.659 43.7793 220.7 45.2624C219.739 46.7469 218.353 47.9062 216.537 48.7444C214.722 49.5826 212.575 50.0017 210.097 50.0017H194.338V13.4551H209.417C211.895 13.4551 214.032 13.8565 215.831 14.6593C217.629 15.4621 218.989 16.5792 219.915 18.0106C220.839 19.4421 221.303 21.0654 221.303 22.8805C221.303 25.01 220.735 26.7898 219.602 28.2212C218.467 29.6526 216.958 30.665 215.073 31.2583C217.132 31.6433 218.825 32.672 220.151 34.347H220.15V34.3456ZM201.668 28.5342H208.369C210.114 28.5342 211.458 28.1409 212.401 27.3558C213.344 26.5707 213.815 25.4454 213.815 23.9786C213.815 22.5118 213.344 21.3783 212.401 20.5755C211.458 19.7727 210.115 19.3713 208.369 19.3713H201.668V28.5342ZM213.213 42.7751C214.208 41.9369 214.706 40.7504 214.706 39.2142C214.706 37.678 214.182 36.4125 213.136 35.5226C212.088 34.6327 210.674 34.1878 208.894 34.1878H201.669V44.031H209.052C210.832 44.031 212.22 43.6119 213.215 42.7751H213.213Z" fill="white"/>
<path d="M235.334 13.4551V50.0003H228.004V13.4551H235.334Z" fill="white"/>
<path d="M250.099 47.9583C247.236 46.3527 244.967 44.128 243.292 41.2828C241.617 38.4376 240.779 35.2183 240.779 31.6233C240.779 28.0284 241.617 24.8607 243.292 22.0156C244.967 19.1704 247.237 16.9457 250.099 15.34C252.96 13.7344 256.102 12.9316 259.523 12.9316C262.943 12.9316 266.127 13.7344 268.973 15.34C271.818 16.9457 274.068 19.1717 275.727 22.0156C277.384 24.8607 278.214 28.0624 278.214 31.6233C278.214 35.1842 277.384 38.439 275.727 41.2828C274.068 44.128 271.808 46.3527 268.947 47.9583C266.084 49.5639 262.943 50.3668 259.523 50.3668C256.102 50.3668 252.96 49.5639 250.099 47.9583ZM265.334 42.3292C267.009 41.3345 268.318 39.9126 269.261 38.0621C270.204 36.2129 270.675 34.0658 270.675 31.622C270.675 29.1782 270.204 27.0406 269.261 25.2077C268.318 23.3749 267.009 21.9707 265.334 20.9923C263.659 20.0154 261.722 19.5269 259.523 19.5269C257.324 19.5269 255.378 20.0154 253.685 20.9923C251.991 21.9693 250.676 23.3749 249.733 25.2077C248.79 27.0406 248.319 29.1782 248.319 31.622C248.319 34.0658 248.79 36.2129 249.733 38.0621C250.676 39.9126 251.993 41.3345 253.685 42.3292C255.378 43.3239 257.324 43.8219 259.523 43.8219C261.722 43.8219 263.659 43.3239 265.334 42.3292Z" fill="white"/>
<path d="M308.923 30.2622C307.997 31.9726 306.548 33.351 304.577 34.3987C302.604 35.4464 300.118 35.9689 297.116 35.9689H290.99V50.0003H283.66V13.4551H297.116C299.943 13.4551 302.352 13.9436 304.341 14.9205C306.33 15.8989 307.823 17.2419 308.818 18.9522C309.813 20.6626 310.311 22.6002 310.311 24.7637C310.311 26.719 309.848 28.5519 308.923 30.2609V30.2622ZM301.304 28.6648C302.281 27.7409 302.77 26.4401 302.77 24.7637C302.77 21.2028 300.78 19.423 296.8 19.423H290.989V30.0513H296.8C298.824 30.0513 300.326 29.5887 301.303 28.6634H301.304V28.6648Z" fill="white"/>
<path d="M337.901 43.0367H323.346L320.937 50.0006H313.241L326.383 13.4023H334.917L348.058 50.0006H340.309L337.901 43.0367ZM335.912 37.1721L330.624 21.8835L325.336 37.1721H335.913H335.912Z" fill="white"/>
<path d="M371.828 50.0017L363.765 35.7608H360.309V50.0017H352.979V13.4551H366.696C369.523 13.4551 371.931 13.9531 373.921 14.9477C375.91 15.9424 377.403 17.2868 378.397 18.9795C379.392 20.6735 379.89 22.5662 379.89 24.6603C379.89 27.0687 379.192 29.2417 377.796 31.1793C376.4 33.1169 374.322 34.4518 371.565 35.1852L380.309 50.003H371.827H371.828V50.0017ZM360.31 30.2622H366.436C368.425 30.2622 369.908 29.7833 370.886 28.8226C371.863 27.8634 372.352 26.5285 372.352 24.8168C372.352 23.105 371.862 21.841 370.886 20.9157C369.91 19.9918 368.426 19.5278 366.436 19.5278H360.31V30.2609V30.2622Z" fill="white"/>
<path d="M407.169 50.0017L393.87 33.7184V50.0017H386.54V13.4551H393.87V29.8431L407.169 13.4551H416.018L400.939 31.5712L416.437 50.0017H407.169Z" fill="white"/>
<path d="M441.045 44.1888H453.087V50.0003H433.715V13.4551H441.045V44.1888Z" fill="white"/>
<path d="M482.616 13.4551V19.3713H472.878V50.0003H465.548V19.3713H455.81V13.4551H482.616Z" fill="white"/>
<path d="M510.863 15.707C513.778 17.2078 516.028 19.3455 517.618 22.1213C519.206 24.8957 520 28.1164 520 31.7808C520 35.4451 519.206 38.6481 517.618 41.3885C516.028 44.129 513.778 46.2503 510.863 47.7497C507.949 49.2506 504.571 50.0017 500.731 50.0017H487.956V13.4551H500.731C504.571 13.4551 507.947 14.2062 510.863 15.707ZM509.372 40.6293C511.466 38.5352 512.514 35.5852 512.514 31.7808C512.514 27.9763 511.466 25.0005 509.372 22.8533C507.278 20.7062 504.31 19.6339 500.472 19.6339H495.289V43.7711H500.472C504.311 43.7711 507.278 42.7234 509.372 40.6293Z" fill="white"/>
<path d="M0 58.4476H50.5276L45.1706 41.5547H9.2472L0 58.4476Z" fill="#1D8204"/>
<path d="M31.9952 0L18.7666 24.1657H39.6572L31.9952 0Z" fill="#1D8204"/>
<path d="M40.1321 25.6602H17.9475L10.0664 40.0562H44.6971L40.1321 25.6602Z" fill="#1D8204"/>
<path d="M33.8955 0L41.5616 24.178L50.206 20.2442L33.8955 0Z" fill="#1D8204"/>
<path d="M46.6167 40.1199L59.6343 31.9463L51.175 21.4473L42.0176 25.6137L46.6167 40.1199Z" fill="#1D8204"/>
<path d="M52.4287 58.4475L70.0101 44.8257L60.5792 33.1211L47.084 41.5941L52.4287 58.4475Z" fill="#1D8204"/>
</g>
<defs>
<clipPath id="clip0_718_5">
<rect width="520" height="58.4468" fill="white"/>
</clipPath>
</defs>
</svg>
