<?xml version="1.0" encoding="UTF-8"?>
<svg xmlns="http://www.w3.org/2000/svg" version="1.1" viewBox="0 0 3821.6 429.5">
  <defs>
    <style>
      .cls-1 {
        fill: #1d8204;
      }

      .cls-2 {
        font-family: Poppins-SemiBold, Poppins;
        font-size: 359.6px;
        font-weight: 600;
      }

      .cls-2, .cls-3 {
        fill: #1e60b5;
      }

      .cls-2, .cls-4 {
        display: none;
      }
    </style>
  </defs>
  <!-- Generator: Adobe Illustrator 28.7.1, SVG Export Plug-In . SVG Version: 1.2.0 Build 142)  -->
  <g>
    <g id="Layer_1">
      <g id="Layer_1-2" data-name="Layer_1">
        <g>
          <g class="cls-4">
            <path class="cls-3" d="M718.3,98.9v43.5h-71.6v225.1h-53.9v-225.1h-71.6v-43.5h197Z"/>
            <path class="cls-3" d="M811.4,98.9v268.6h-53.9V98.9h53.9Z"/>
            <path class="cls-3" d="M869.3,161.8c11.9-20.9,28.2-37.2,48.9-48.9,20.7-11.7,43.8-17.5,69.5-17.5s56.3,7.7,78.9,23.1c22.6,15.4,38.3,36.7,47.3,63.9h-61.9c-6.2-12.8-14.8-22.4-26-28.9-11.2-6.4-24-9.6-38.7-9.6s-29.6,3.7-41.8,11c-12.2,7.3-21.7,17.6-28.5,31-6.8,13.3-10.2,29-10.2,46.9s3.4,33.3,10.2,46.8c6.8,13.5,16.3,23.9,28.5,31.2s26.1,11,41.8,11,27.5-3.3,38.7-9.8c11.2-6.5,19.8-16.2,26-29h61.9c-9,27.5-24.7,48.8-47.1,64.1-22.4,15.3-48.8,22.9-79.1,22.9s-48.8-5.8-69.5-17.5c-20.7-11.7-36.9-27.9-48.9-48.7s-17.9-44.4-17.9-70.8,6-50.1,17.9-71h0Z"/>
            <path class="cls-3" d="M1213.9,324.8h88.5v42.7h-142.4V98.9h53.9v225.9Z"/>
            <path class="cls-3" d="M1617.9,252.4c9.8,12.3,14.6,26.4,14.6,42.3s-3.5,27-10.6,37.9c-7.1,10.9-17.2,19.4-30.6,25.6s-29.1,9.2-47.3,9.2h-115.8V98.9h110.8c18.2,0,33.9,2.9,47.1,8.8,13.2,5.9,23.2,14.1,30,24.6,6.8,10.5,10.2,22.4,10.2,35.8s-4.2,28.7-12.5,39.2c-8.3,10.5-19.4,18-33.3,22.3,15.1,2.8,27.6,10.4,37.3,22.7h0ZM1482.1,209.7h49.2c12.8,0,22.7-2.9,29.6-8.7s10.4-14,10.4-24.8-3.5-19.1-10.4-25-16.8-8.9-29.6-8.9h-49.2v67.3ZM1567,314.4c7.3-6.2,11-14.9,11-26.2s-3.8-20.6-11.5-27.1c-7.7-6.5-18.1-9.8-31.2-9.8h-53.1v72.3h54.3c13.1,0,23.3-3.1,30.6-9.2h0Z"/>
            <path class="cls-3" d="M1729.5,98.9v268.6h-53.9V98.9h53.9Z"/>
            <path class="cls-3" d="M1838,352.5c-21-11.8-37.7-28.1-50-49.1s-18.5-44.6-18.5-71,6.2-49.7,18.5-70.6c12.3-20.9,29-37.3,50-49.1s44.1-17.7,69.3-17.7,48.5,5.9,69.4,17.7c20.9,11.8,37.4,28.2,49.6,49.1,12.2,20.9,18.3,44.4,18.3,70.6s-6.1,50.1-18.3,71c-12.2,20.9-28.8,37.3-49.8,49.1-21,11.8-44.1,17.7-69.3,17.7s-48.2-5.9-69.3-17.7ZM1950,311.1c12.3-7.3,21.9-17.8,28.9-31.4,6.9-13.6,10.4-29.4,10.4-47.3s-3.5-33.7-10.4-47.1-16.6-23.8-28.9-31c-12.3-7.2-26.6-10.8-42.7-10.8s-30.5,3.6-42.9,10.8c-12.4,7.2-22.1,17.5-29.1,31s-10.4,29.2-10.4,47.1,3.5,33.7,10.4,47.3c6.9,13.6,16.6,24,29.1,31.4,12.4,7.3,26.7,11,42.9,11s30.4-3.7,42.7-11h0Z"/>
            <path class="cls-3" d="M2270.4,222.4c-6.8,12.6-17.4,22.7-31.9,30.4-14.5,7.7-32.8,11.5-54.8,11.5h-45v103.1h-53.9V98.9h98.9c20.8,0,38.5,3.6,53.1,10.8,14.6,7.2,25.6,17.1,32.9,29.6,7.3,12.6,11,26.8,11,42.7s-3.4,27.8-10.2,40.4h0ZM2214.4,210.7c7.2-6.8,10.8-16.4,10.8-28.7,0-26.2-14.6-39.2-43.9-39.2h-42.7v78.1h42.7c14.9,0,25.9-3.4,33.1-10.2h0Z"/>
            <path class="cls-3" d="M2483.3,316.3h-107l-17.7,51.2h-56.6l96.6-269h62.7l96.6,269h-56.9l-17.7-51.2h0ZM2468.7,273.2l-38.9-112.4-38.9,112.4h77.7,0Z"/>
            <path class="cls-3" d="M2732.7,367.5l-59.3-104.7h-25.4v104.7h-53.9V98.9h100.8c20.8,0,38.5,3.7,53.1,11s25.6,17.2,32.9,29.6c7.3,12.4,11,26.4,11,41.8s-5.1,33.7-15.4,47.9-25.5,24.1-45.8,29.4l64.3,108.9h-62.3,0ZM2648,222.4h45c14.6,0,25.5-3.5,32.7-10.6,7.2-7.1,10.8-16.9,10.8-29.4s-3.6-21.9-10.8-28.7c-7.2-6.8-18.1-10.2-32.7-10.2h-45v78.9h0Z"/>
            <path class="cls-3" d="M2992.4,367.5l-97.7-119.7v119.7h-53.9V98.9h53.9v120.4l97.7-120.4h65l-110.8,133.1,113.9,135.4h-68.1,0Z"/>
            <path class="cls-3" d="M3241.4,324.8h88.5v42.7h-142.4V98.9h53.9v225.9Z"/>
            <path class="cls-3" d="M3546.9,98.9v43.5h-71.6v225.1h-53.9v-225.1h-71.6v-43.5h197Z"/>
            <path class="cls-3" d="M3754.5,115.4c21.4,11,38,26.7,49.6,47.1,11.7,20.4,17.5,44.1,17.5,71s-5.8,50.5-17.5,70.6c-11.7,20.1-28.2,35.7-49.6,46.8-21.4,11-46.2,16.5-74.5,16.5h-93.9V98.9h93.9c28.2,0,53,5.5,74.5,16.6ZM3743.5,298.6c15.4-15.4,23.1-37.1,23.1-65s-7.7-49.8-23.1-65.6-37.2-23.7-65.4-23.7h-38.1v177.4h38.1c28.2,0,50-7.7,65.4-23.1Z"/>
          </g>
          <g>
            <polygon class="cls-1" points="0 429.5 371.3 429.5 332 305.4 68 305.4 0 429.5"/>
            <polygon class="cls-1" points="235.1 0 137.9 177.6 291.5 177.6 235.1 0"/>
            <polygon class="cls-1" points="294.9 188.6 131.9 188.6 74 294.4 328.5 294.4 294.9 188.6"/>
            <polygon class="cls-1" points="249.1 0 305.5 177.7 369 148.8 249.1 0"/>
            <polygon class="cls-1" points="342.6 294.9 438.3 234.8 376.1 157.6 308.8 188.2 342.6 294.9"/>
            <polygon class="cls-1" points="385.3 429.5 514.5 329.4 445.2 243.4 346 305.7 385.3 429.5"/>
          </g>
        </g>
        <g class="cls-4">
          <path class="cls-3" d="M727.2,97.3v52.7h-71.6v217.4h-65.8v-217.4h-71.6v-52.7h208.9Z"/>
          <path class="cls-3" d="M826,97.3v270.1h-65.8V97.3h65.8Z"/>
          <path class="cls-3" d="M879.9,160.6c11.5-20.9,27.6-37.2,48.3-48.9,20.7-11.7,44.1-17.5,70.2-17.5s59.5,8.5,82.3,25.4c22.8,16.9,38.1,40,45.8,69.3h-72.3c-5.4-11.3-13-19.9-22.9-25.8-9.9-5.9-21.1-8.9-33.7-8.9-20.3,0-36.7,7.1-49.2,21.2-12.6,14.1-18.8,33-18.8,56.6s6.3,42.5,18.8,56.6c12.6,14.1,29,21.2,49.2,21.2s23.8-3,33.7-8.9c9.9-5.9,17.5-14.5,22.9-25.8h72.3c-7.7,29.2-23,52.3-45.8,69.1-22.8,16.8-50.3,25.2-82.3,25.2s-49.6-5.8-70.2-17.5c-20.7-11.7-36.8-27.9-48.3-48.7s-17.3-44.5-17.3-71.2,5.8-50.5,17.3-71.4h0s0,0,0,0Z"/>
          <path class="cls-3" d="M1232.8,316.7h86.2v50.8h-152V97.3h65.8v219.3h0Z"/>
          <path class="cls-3" d="M1633.3,252.2c9.5,12.2,14.2,26.1,14.2,41.8,0,22.6-7.9,40.5-23.7,53.7-15.8,13.2-37.8,19.8-66,19.8h-125.8V97.3h121.6c27.4,0,48.9,6.3,64.4,18.8,15.5,12.6,23.3,29.6,23.3,51.2s-4.2,29.1-12.5,39.6c-8.3,10.5-19.4,17.8-33.3,21.9,15.6,3.3,28.2,11.1,37.7,23.3h0ZM1497.9,206.6h43.1c10.8,0,19.1-2.4,24.8-7.1,5.8-4.7,8.7-11.7,8.7-21s-2.9-16.3-8.7-21.2-14-7.3-24.8-7.3h-43.1v56.6ZM1572,306.9c6-5,9-12.2,9-21.7s-3.1-16.9-9.4-22.3-14.9-8.1-26-8.1h-47.7v59.6h48.5c11,0,19.6-2.5,25.6-7.5Z"/>
          <path class="cls-3" d="M1751.5,97.3v270.1h-65.8V97.3h65.8Z"/>
          <path class="cls-3" d="M1857.1,352.5c-21.2-11.8-38-28.3-50.4-49.5-12.4-21.2-18.7-45-18.7-71.4s6.2-50.1,18.7-71.2c12.4-21,29.2-37.4,50.4-49.2,21.2-11.8,44.4-17.7,69.8-17.7s48.7,5.9,69.8,17.7c21.2,11.8,37.8,28.2,50,49.2,12.2,21,18.3,44.8,18.3,71.2s-6.2,50.2-18.5,71.4c-12.3,21.2-29,37.6-50,49.5-21,11.8-44.2,17.7-69.7,17.7s-48.7-5.9-69.8-17.7h0ZM1978.7,288.6c12.9-14.4,19.4-33.3,19.4-56.9s-6.5-42.9-19.4-57.1c-13-14.2-30.2-21.4-51.8-21.4s-39.2,7.1-52.1,21.2c-13,14.1-19.4,33.2-19.4,57.3s6.5,42.9,19.4,57.1c12.9,14.2,30.3,21.4,52.1,21.4s38.8-7.2,51.8-21.5h0Z"/>
          <path class="cls-3" d="M2296.7,227.2c-7.2,13-18.2,23.4-33.1,31.4-14.9,8-33.4,11.9-55.4,11.9h-40.8v97h-65.8V97.3h106.6c21.6,0,39.8,3.7,54.6,11.2,14.9,7.4,26,17.7,33.5,30.8,7.4,13.1,11.2,28.1,11.2,45s-3.6,29.9-10.8,42.9h0ZM2231.3,209.3c6.2-5.9,9.2-14.2,9.2-25s-3.1-19.1-9.2-25c-6.2-5.9-15.5-8.9-28.1-8.9h-35.8v67.7h35.8c12.6,0,21.9-2.9,28.1-8.9Z"/>
          <path class="cls-3" d="M2509.9,319.8h-100.8l-16.2,47.7h-68.9l97.7-270.1h76.2l97.7,270.1h-69.6l-16.2-47.7h0ZM2492.9,269l-33.5-98.9-33.1,98.9h66.6Z"/>
          <path class="cls-3" d="M2763.1,367.5l-56.2-102h-15.8v102h-65.8V97.3h110.4c21.3,0,39.4,3.7,54.4,11.2s26.2,17.6,33.7,30.6c7.4,13,11.2,27.4,11.2,43.3s-5.1,34-15.2,48.1c-10.1,14.1-25.1,24.1-44.8,30l62.3,107h-74.3,0ZM2691.1,218.9h40.8c12.1,0,21.1-2.9,27.1-8.9,6-5.9,9-14.2,9-25s-3-18.3-9-24.2c-6-5.9-15.1-8.9-27.1-8.9h-40.8v66.9h0Z"/>
          <path class="cls-3" d="M3032.8,367.5l-90.8-119.3v119.3h-65.8V97.3h65.8v118.5l90-118.5h77.3l-104.7,132.4,108.5,137.8h-80.4Z"/>
          <path class="cls-3" d="M3291.8,316.7h86.2v50.8h-152V97.3h65.8v219.3h0Z"/>
          <path class="cls-3" d="M3603.8,97.3v52.7h-71.6v217.4h-65.8v-217.4h-71.6v-52.7h208.9Z"/>
          <path class="cls-3" d="M3812.8,114.3c21.3,11.3,37.8,27.1,49.4,47.5,11.7,20.4,17.5,43.9,17.5,70.6s-5.8,49.9-17.5,70.4c-11.7,20.5-28.2,36.4-49.6,47.7-21.4,11.3-46.2,16.9-74.5,16.9h-101.2V97.3h101.2c28.5,0,53.4,5.7,74.6,16.9ZM3792,290.1c13.9-13.6,20.8-32.8,20.8-57.7s-6.9-44.2-20.8-58.1-33.2-20.8-58.1-20.8h-31.2v157h31.2c24.9,0,44.2-6.8,58.1-20.4Z"/>
        </g>
      </g>
      <text class="cls-2" transform="translate(521.3 -446.9)"><tspan x="0" y="0">TICEL BIOPARK LTD</tspan></text>
      <g>
        <path class="cls-3" d="M696.6,110.7v40.2h-66.2v208.2h-49.8v-208.2h-66.2v-40.2h182.3Z"/>
        <path class="cls-3" d="M782.8,110.7v248.5h-49.8V110.7h49.8Z"/>
        <path class="cls-3" d="M836.4,168.9c11-19.3,26.1-34.4,45.2-45.2,19.1-10.8,40.5-16.2,64.3-16.2s52.1,7.1,73,21.4c20.9,14.2,35.5,33.9,43.8,59.1h-57.3c-5.7-11.9-13.7-20.8-24-26.7-10.3-5.9-22.2-8.9-35.8-8.9s-27.4,3.4-38.6,10.1c-11.3,6.8-20.1,16.3-26.3,28.7-6.3,12.3-9.4,26.8-9.4,43.4s3.1,30.8,9.4,43.3c6.3,12.5,15.1,22.1,26.3,28.8,11.3,6.8,24.1,10.1,38.6,10.1s25.5-3,35.8-9.1c10.3-6.1,18.3-15,24-26.9h57.3c-8.3,25.4-22.8,45.2-43.6,59.3-20.8,14.1-45.2,21.2-73.2,21.2s-45.2-5.4-64.3-16.2c-19.1-10.8-34.2-25.8-45.2-45-11-19.2-16.6-41.1-16.6-65.5s5.5-46.3,16.6-65.7Z"/>
        <path class="cls-3" d="M1155.1,151v62.3h83.7v39.5h-83.7v65.9h94.3v40.6h-144.2V110.4h144.2v40.6h-94.3Z"/>
        <path class="cls-3" d="M1344.5,319.7h81.9v39.5h-131.7V110.7h49.8v209Z"/>
        <path class="cls-3" d="M1718.3,252.8c9,11.4,13.5,24.4,13.5,39.2s-3.3,25-9.8,35.1c-6.5,10.1-16,18-28.3,23.7-12.3,5.7-26.9,8.5-43.8,8.5h-107.1V110.7h102.5c16.8,0,31.4,2.7,43.6,8.2,12.2,5.5,21.5,13.1,27.8,22.8,6.3,9.7,9.4,20.8,9.4,33.1s-3.9,26.6-11.6,36.3c-7.7,9.7-18,16.6-30.8,20.6,14,2.6,25.5,9.6,34.5,21ZM1592.6,213.3h45.6c11.9,0,21-2.7,27.4-8,6.4-5.3,9.6-13,9.6-23s-3.2-17.7-9.6-23.1c-6.4-5.5-15.5-8.2-27.4-8.2h-45.6v62.3ZM1671.1,310.1c6.8-5.7,10.1-13.8,10.1-24.2s-3.6-19-10.7-25.1c-7.1-6.1-16.7-9.1-28.8-9.1h-49.1v66.9h50.2c12.1,0,21.5-2.8,28.3-8.5Z"/>
        <path class="cls-3" d="M1821.5,110.7v248.5h-49.8V110.7h49.8Z"/>
        <path class="cls-3" d="M1921.9,345.3c-19.5-10.9-34.9-26-46.3-45.4-11.4-19.3-17.1-41.2-17.1-65.7s5.7-46,17.1-65.3c11.4-19.3,26.8-34.5,46.3-45.4,19.5-10.9,40.8-16.4,64.1-16.4s44.9,5.5,64.3,16.4c19.3,10.9,34.6,26,45.9,45.4,11.3,19.3,16.9,41.1,16.9,65.3s-5.6,46.3-16.9,65.7c-11.3,19.3-26.6,34.5-46.1,45.4-19.5,10.9-40.8,16.4-64.1,16.4s-44.6-5.5-64.1-16.4ZM2025.5,307.1c11.4-6.8,20.3-16.4,26.7-29,6.4-12.6,9.6-27.2,9.6-43.8s-3.2-31.1-9.6-43.6c-6.4-12.5-15.3-22-26.7-28.7-11.4-6.6-24.6-10-39.5-10s-28.2,3.3-39.7,10c-11.5,6.6-20.5,16.2-26.9,28.7-6.4,12.5-9.6,27-9.6,43.6s3.2,31.2,9.6,43.8c6.4,12.6,15.4,22.2,26.9,29,11.5,6.8,24.7,10.1,39.7,10.1s28.1-3.4,39.5-10.1Z"/>
        <path class="cls-3" d="M2321.8,225c-6.3,11.6-16.1,21-29.5,28.1-13.4,7.1-30.3,10.7-50.7,10.7h-41.6v95.4h-49.8V110.7h91.5c19.2,0,35.6,3.3,49.1,10,13.5,6.6,23.7,15.8,30.4,27.4,6.8,11.6,10.1,24.8,10.1,39.5s-3.1,25.8-9.4,37.4ZM2270,214.1c6.6-6.3,10-15.1,10-26.5,0-24.2-13.5-36.3-40.6-36.3h-39.5v72.3h39.5c13.8,0,24-3.1,30.6-9.4Z"/>
        <path class="cls-3" d="M2518.9,311.9h-99l-16.4,47.3h-52.3l89.3-248.8h58l89.3,248.8h-52.7l-16.4-47.3ZM2505.3,272l-36-103.9-36,103.9h71.9Z"/>
        <path class="cls-3" d="M2749.5,359.2l-54.8-96.8h-23.5v96.8h-49.8V110.7h93.3c19.2,0,35.6,3.4,49.1,10.1,13.5,6.8,23.7,15.9,30.4,27.4,6.8,11.5,10.1,24.4,10.1,38.6s-4.8,31.1-14.2,44.3c-9.5,13.2-23.6,22.2-42.4,27.2l59.4,100.7h-57.7ZM2671.2,225h41.6c13.5,0,23.6-3.3,30.3-9.8,6.6-6.5,10-15.6,10-27.2s-3.3-20.2-10-26.5c-6.6-6.3-16.7-9.4-30.3-9.4h-41.6v73Z"/>
        <path class="cls-3" d="M2989.8,359.2l-90.4-110.7v110.7h-49.8V110.7h49.8v111.4l90.4-111.4h60.2l-102.5,123.2,105.4,125.3h-63Z"/>
        <path class="cls-3" d="M3220.1,319.7h81.9v39.5h-131.7V110.7h49.8v209Z"/>
        <path class="cls-3" d="M3502.8,110.7v40.2h-66.2v208.2h-49.8v-208.2h-66.2v-40.2h182.3Z"/>
        <path class="cls-3" d="M3694.8,126c19.8,10.2,35.1,24.7,45.9,43.6,10.8,18.9,16.2,40.8,16.2,65.7s-5.4,46.7-16.2,65.3c-10.8,18.6-26.1,33.1-45.9,43.3-19.8,10.2-42.8,15.3-68.9,15.3h-86.9V110.7h86.9c26.1,0,49.1,5.1,68.9,15.3ZM3684.7,295.5c14.2-14.2,21.4-34.3,21.4-60.2s-7.1-46.1-21.4-60.7c-14.2-14.6-34.4-21.9-60.5-21.9h-35.2v164.1h35.2c26.1,0,46.3-7.1,60.5-21.4Z"/>
      </g>
    </g>
  </g>
</svg>