<svg width="3822" height="430" viewBox="0 0 3822 430" fill="none" xmlns="http://www.w3.org/2000/svg">
<g clip-path="url(#clip0_741_2)">
<path d="M0 429.5H371.3L332 305.4H68L0 429.5Z" fill="#1D8204"/>
<path d="M235.1 0L137.9 177.6H291.5L235.1 0Z" fill="#1D8204"/>
<path d="M294.9 188.6H131.9L74 294.4H328.5L294.9 188.6Z" fill="#1D8204"/>
<path d="M249.1 0L305.5 177.7L369 148.8L249.1 0Z" fill="#1D8204"/>
<path d="M342.6 294.9L438.3 234.8L376.1 157.6L308.8 188.2L342.6 294.9Z" fill="#1D8204"/>
<path d="M385.3 429.5L514.5 329.4L445.2 243.4L346 305.7L385.3 429.5Z" fill="#1D8204"/>
<path d="M696.6 110.699V150.899H630.4V359.099H580.6V150.899H514.4V110.699H696.7H696.6Z" fill="white"/>
<path d="M782.8 110.699V359.199H733V110.699H782.8Z" fill="white"/>
<path d="M836.401 168.9C847.401 149.6 862.501 134.5 881.601 123.7C900.701 112.9 922.101 107.5 945.901 107.5C969.701 107.5 998.001 114.6 1018.9 128.9C1039.8 143.1 1054.4 162.8 1062.7 188H1005.4C999.701 176.1 991.701 167.2 981.401 161.3C971.101 155.4 959.201 152.4 945.601 152.4C932.001 152.4 918.201 155.8 907.001 162.5C895.701 169.3 886.901 178.8 880.701 191.2C874.401 203.5 871.301 218 871.301 234.6C871.301 251.2 874.401 265.4 880.701 277.9C887.001 290.4 895.801 300 907.001 306.7C918.301 313.5 931.101 316.8 945.601 316.8C960.101 316.8 971.101 313.8 981.401 307.7C991.701 301.6 999.701 292.7 1005.4 280.8H1062.7C1054.4 306.2 1039.9 326 1019.1 340.1C998.301 354.2 973.901 361.3 945.901 361.3C917.901 361.3 900.701 355.9 881.601 345.1C862.501 334.3 847.401 319.3 836.401 300.1C825.401 280.9 819.801 259 819.801 234.6C819.801 210.2 825.301 188.3 836.401 168.9Z" fill="white"/>
<path d="M1155.1 151V213.3H1238.8V252.8H1155.1V318.7H1249.4V359.3H1105.2V110.4H1249.4V151H1155.1Z" fill="white"/>
<path d="M1344.5 319.699H1426.4V359.199H1294.7V110.699H1344.5V319.699Z" fill="white"/>
<path d="M1718.3 252.799C1727.3 264.199 1731.8 277.199 1731.8 291.999C1731.8 306.799 1728.5 316.999 1722 327.099C1715.5 337.199 1706 345.099 1693.7 350.799C1681.4 356.499 1666.8 359.299 1649.9 359.299H1542.8V110.699H1645.3C1662.1 110.699 1676.7 113.399 1688.9 118.899C1701.1 124.399 1710.4 131.999 1716.7 141.699C1723 151.399 1726.1 162.499 1726.1 174.799C1726.1 187.099 1722.2 201.399 1714.5 211.099C1706.8 220.799 1696.5 227.699 1683.7 231.699C1697.7 234.299 1709.2 241.299 1718.2 252.699L1718.3 252.799ZM1592.6 213.299H1638.2C1650.1 213.299 1659.2 210.599 1665.6 205.299C1672 199.999 1675.2 192.299 1675.2 182.299C1675.2 172.299 1672 164.599 1665.6 159.199C1659.2 153.699 1650.1 150.999 1638.2 150.999H1592.6V213.299ZM1671.1 310.099C1677.9 304.399 1681.2 296.299 1681.2 285.899C1681.2 275.499 1677.6 266.899 1670.5 260.799C1663.4 254.699 1653.8 251.699 1641.7 251.699H1592.6V318.599H1642.8C1654.9 318.599 1664.3 315.799 1671.1 310.099Z" fill="white"/>
<path d="M1821.5 110.699V359.199H1771.7V110.699H1821.5Z" fill="white"/>
<path d="M1921.9 345.3C1902.4 334.4 1887 319.3 1875.6 299.9C1864.2 280.6 1858.5 258.7 1858.5 234.2C1858.5 209.7 1864.2 188.2 1875.6 168.9C1887 149.6 1902.4 134.4 1921.9 123.5C1941.4 112.6 1962.7 107.1 1986 107.1C2009.3 107.1 2030.9 112.6 2050.3 123.5C2069.6 134.4 2084.9 149.5 2096.2 168.9C2107.5 188.2 2113.1 210 2113.1 234.2C2113.1 258.4 2107.5 280.5 2096.2 299.9C2084.9 319.2 2069.6 334.4 2050.1 345.3C2030.6 356.2 2009.3 361.7 1986 361.7C1962.7 361.7 1941.4 356.2 1921.9 345.3ZM2025.5 307.1C2036.9 300.3 2045.8 290.7 2052.2 278.1C2058.6 265.5 2061.8 250.9 2061.8 234.3C2061.8 217.7 2058.6 203.2 2052.2 190.7C2045.8 178.2 2036.9 168.7 2025.5 162C2014.1 155.4 2000.9 152 1986 152C1971.1 152 1957.8 155.3 1946.3 162C1934.8 168.6 1925.8 178.2 1919.4 190.7C1913 203.2 1909.8 217.7 1909.8 234.3C1909.8 250.9 1913 265.5 1919.4 278.1C1925.8 290.7 1934.8 300.3 1946.3 307.1C1957.8 313.9 1971 317.2 1986 317.2C2001 317.2 2014.1 313.8 2025.5 307.1Z" fill="white"/>
<path d="M2321.8 224.999C2315.5 236.599 2305.7 245.999 2292.3 253.099C2278.9 260.199 2262 263.799 2241.6 263.799H2200V359.199H2150.2V110.699H2241.7C2260.9 110.699 2277.3 113.999 2290.8 120.699C2304.3 127.299 2314.5 136.499 2321.2 148.099C2328 159.699 2331.3 172.899 2331.3 187.599C2331.3 202.299 2328.2 213.399 2321.9 224.999H2321.8ZM2270 214.099C2276.6 207.799 2280 198.999 2280 187.599C2280 163.399 2266.5 151.299 2239.4 151.299H2199.9V223.599H2239.4C2253.2 223.599 2263.4 220.499 2270 214.199V214.099Z" fill="white"/>
<path d="M2518.9 311.9H2419.9L2403.5 359.2H2351.2L2440.5 110.4H2498.5L2587.8 359.2H2535.1L2518.7 311.9H2518.9ZM2505.3 272L2469.3 168.1L2433.3 272H2505.2H2505.3Z" fill="white"/>
<path d="M2749.5 359.199L2694.7 262.399H2671.2V359.199H2621.4V110.699H2714.7C2733.9 110.699 2750.3 114.099 2763.8 120.799C2777.3 127.599 2787.5 136.699 2794.2 148.199C2801 159.699 2804.3 172.599 2804.3 186.799C2804.3 200.999 2799.5 217.899 2790.1 231.099C2780.6 244.299 2766.5 253.299 2747.7 258.299L2807.1 358.999H2749.4L2749.5 359.199ZM2671.2 224.999H2712.8C2726.3 224.999 2736.4 221.699 2743.1 215.199C2749.7 208.699 2753.1 199.599 2753.1 187.999C2753.1 176.399 2749.8 167.799 2743.1 161.499C2736.5 155.199 2726.4 152.099 2712.8 152.099H2671.2V225.099V224.999Z" fill="white"/>
<path d="M2989.8 359.199L2899.4 248.499V359.199H2849.6V110.699H2899.4V222.099L2989.8 110.699H3050L2947.5 233.899L3052.9 359.199H2989.9H2989.8Z" fill="white"/>
<path d="M3220.1 319.699H3302V359.199H3170.3V110.699H3220.1V319.699Z" fill="white"/>
<path d="M3502.8 110.699V150.899H3436.6V359.099H3386.8V150.899H3320.6V110.699H3502.9H3502.8Z" fill="white"/>
<path d="M3694.8 125.999C3714.6 136.199 3729.9 150.699 3740.7 169.599C3751.5 188.499 3756.9 210.399 3756.9 235.299C3756.9 260.199 3751.5 281.999 3740.7 300.599C3729.9 319.199 3714.6 333.699 3694.8 343.899C3675 354.099 3652 359.199 3625.9 359.199H3539V110.699H3625.9C3652 110.699 3675 115.799 3694.8 125.999ZM3684.7 295.499C3698.9 281.299 3706.1 261.199 3706.1 235.299C3706.1 209.399 3699 189.199 3684.7 174.599C3670.5 159.999 3650.3 152.699 3624.2 152.699H3589V316.799H3624.2C3650.3 316.799 3670.5 309.699 3684.7 295.399V295.499Z" fill="white"/>
</g>
<defs>
<clipPath id="clip0_741_2">
<rect width="3821.6" height="429.5" fill="white"/>
</clipPath>
</defs>
</svg>
